<?xml version="1.0" encoding="utf-8"?>
<!-- Generator: Adobe Illustrator 20.1.0, SVG Export Plug-In . SVG Version: 6.00 Build 0)  -->
<svg version="1.1" id="Layer_1" xmlns="http://www.w3.org/2000/svg" xmlns:xlink="http://www.w3.org/1999/xlink" x="0px" y="0px"
	 viewBox="0 0 598 72" style="enable-background:new 0 0 598 72;" xml:space="preserve">
<style type="text/css">
	.st0{fill:#FFFFFF;}
</style>
<g>
	<path class="st0" d="M60.5,67.4c-0.4,0.1-0.8,0.1-1.2,0.1s-0.8,0-1.3,0c-5.2,0-8.6-1.6-10.4-4.9c-0.6,1.2-1.2,2.2-2,3
		s-1.7,1.5-2.9,2.1s-2.6,1-4.2,1.2c-1.7,0.3-3.7,0.4-6,0.4c-1.5,0-3.3-0.1-5.5-0.2s-4.5-0.4-6.9-0.8s-4.8-1-7.1-1.7
		c-2.3-0.8-4.3-1.7-5.9-2.9c-4.2-3-6.2-7.5-6.2-13.6c0-5.5,1.5-9.7,4.7-12.7s8-4.5,14.5-4.5c3.2,0,6.7,0.1,10.5,0.2
		c3.8,0.1,7.6,0.4,11.3,0.9c1.9,0.2,3.5,0.8,4.8,1.6s2.4,2.1,3.1,3.7c0.2-1.1,0.3-2.2,0.3-3.3c0-2.8-0.8-4.8-2.4-5.8
		c-1.6-1-4.2-1.6-7.7-1.6c-2.1,0-4.6,0.1-7.5,0.2c-2.9,0.1-6,0.3-9.2,0.4c-3.2,0.2-6.5,0.4-9.7,0.7s-6.2,0.6-8.8,1
		c-0.1-1.7-0.2-3.4-0.3-5c-0.1-1.7-0.1-3.4-0.1-5c0-2.4,0.1-4.7,0.2-7s0.4-4.6,0.7-7c2.8-0.2,5.8-0.4,9-0.6c3.2-0.2,6.4-0.3,9.5-0.4
		c3.1-0.1,6-0.2,8.8-0.3s5.1-0.1,6.9-0.1c6.5,0,11.3,1.8,14.4,5.4s4.7,9.3,4.7,17.1c0,4.1,0,8.1-0.1,12.3c-0.1,4.1-0.1,8.2-0.1,12.2
		c0,3.7,0.2,6.8,0.5,9.2C59.1,63.8,59.7,65.8,60.5,67.4z M47.1,52.9c1,0,1.8-0.3,2.3-1c0.5-0.6,0.8-1.7,0.8-3.2s-0.2-2.6-0.7-3.4
		c-0.4-0.8-1.2-1.2-2.3-1.3c-1.7-0.2-3.8-0.3-6.3-0.5c-2.4-0.1-4.9-0.3-7.4-0.4c-2.5-0.1-4.8-0.2-7-0.3s-3.9-0.1-5.2-0.1
		c-1.8,0-2.7,1.8-2.7,5.5c0,2.3,1.2,3.6,3.6,3.7c1.3,0.1,3,0.2,5,0.3s4.1,0.2,6.3,0.3s4.5,0.2,6.8,0.2C42.8,52.8,45,52.9,47.1,52.9z
		"/>
	<path class="st0" d="M65.1,69.1c0.3-6,0.5-11.8,0.6-17.5s0.2-11.3,0.2-17c0-5.3,0-10.5-0.1-15.7S65.7,8.4,65.6,3.1
		c3,0,6,0.1,8.8,0.2c2.9,0.1,5.6,0.6,8.3,1.4c-0.6,5.3-1.2,10.8-1.9,16.4c-0.7,5.6-1.3,11.2-2,16.8S77.4,49,76.6,54.4
		c-0.8,5.4-1.5,10.6-2.2,15.4c-1.6,0-3.3-0.1-4.9-0.3C67.9,69.6,66.4,69.3,65.1,69.1z"/>
	<path class="st0" d="M90.1,70.9c-0.3-3-0.5-5.9-0.6-8.7c-0.1-2.8-0.2-5.6-0.2-8.6c1.5,0.1,3.3,0.2,5.4,0.3s4.4,0.2,6.7,0.3
		c2.4,0.1,4.8,0.2,7.3,0.3s4.8,0.2,7,0.3s4.2,0.1,6,0.2c1.8,0.1,3.1,0.1,4.1,0.1c1.3,0,2.3-0.3,3-1c0.6-0.7,1-1.9,1-3.7
		c0-1.4-0.4-2.6-1.2-3.4c-0.8-0.8-2-1.2-3.7-1.2c-2.4,0-5.4,0-8.7,0.1s-6.7,0.1-9.8,0.1c-6.8,0-11.8-1.5-15-4.5s-4.8-7.7-4.8-14.2
		c0-6.9,1.5-12.2,4.6-15.9s7.6-5.9,13.5-6.5c5.8-0.6,11.8-1.2,18.1-1.6c6.2-0.4,12.5-0.7,18.7-0.8c1.1,5.9,0.9,23.5,0,28
		c-2.4-0.2-8.1-0.5-11.1-0.7c-3-0.3-5.9-0.5-8.8-0.7s-5.6-0.4-8-0.5c-2.5-0.1-4.4-0.2-5.8-0.2c-3.5,0-5.3,1.5-5.3,4.6
		c0,2.7,1,4.1,2.9,4.1c1.3,0,2.8-0.1,4.5-0.2c1.7-0.1,3.5-0.2,5.4-0.4c1.9-0.1,3.7-0.3,5.7-0.4s3.7-0.2,5.5-0.2
		c5.1,0,9.1,1.1,12,3.3s4.3,5.7,4.3,10.4c0,2-0.1,3.9-0.3,5.8s-0.8,3.7-1.6,5.4s-2.1,3.1-3.7,4.3c-1.7,1.2-3.9,2.2-6.7,2.7
		c-1.9,0.4-3.8,0.8-5.7,1.1c-2,0.3-4.4,0.6-7.4,0.8c-2.9,0.2-6.5,0.4-10.8,0.6C101.9,70.7,96.6,70.8,90.1,70.9z"/>
	<path class="st0" d="M185.2,69.9c0.1-3.1,0.2-6.1,0.3-9.1s0.1-6,0.1-9.2c0-1.2,0-2.4,0-3.7c0-1.2,0-2.5-0.1-3.8
		c-3.4,0.1-6.7,0.2-10.1,0.3c-3.4,0.2-6.7,0.4-10,0.7c-0.5,4.1-0.8,8.2-1.1,12.4c-0.3,4.1-0.5,8.3-0.7,12.4c-1.7,0-3.4,0-5,0
		c-1.7,0-3.4-0.2-5.2-0.4c-0.9-10.3-2-20.7-3.1-31.3c-1.2-10.6-2.5-21.6-4-33.1c2.8-0.3,5.6-0.5,8.4-0.7c2.8-0.1,5.7-0.2,8.5-0.2
		c1.1,0,2.2,0,3.3,0s2.2,0,3.3,0.1c0.4,4.9,0.8,9.4,1.3,13.5c0.4,4.1,0.9,7.9,1.3,11.7c3.1,0.2,6.3,0.4,9.4,0.4
		c3.1,0.1,6.3,0.1,9.4,0.1c0-4.5,0.1-8.9,0.2-13.2c0.1-4.3,0.3-8.5,0.6-12.5c2,0,4.1,0.1,6.2,0.2c2.1,0.1,4.1,0.4,6.2,0.8
		c-0.3,11-0.9,21.8-1.6,32.2c-0.7,10.4-1.6,20.6-2.6,30.4c-2.4,0.6-4.9,1-7.4,1.3C190.1,69.5,187.6,69.8,185.2,69.9z"/>
	<path class="st0" d="M316.8,70.2c-0.5-7.2-0.8-14.4-1-21.5s-0.4-14.2-0.5-21.4c-2.7,0.1-5.5,0.3-8.3,0.5s-5.4,0.5-7.8,0.9
		c-1.4-7.2-2.3-15.1-2.6-23.8c9-0.8,18-1.3,26.9-1.6c9-0.3,17.9-0.4,26.9-0.4c-0.2,4.7-0.5,9.2-0.9,13.4c-0.3,4.2-0.9,8.2-1.7,11.9
		c-1.5-0.1-2.9-0.2-4.4-0.3s-2.9-0.1-4.3-0.1c-3.2,0-6.3,0.3-9.2,0.9c-0.5,6.2-0.9,12.6-1,19.3c-0.2,6.6-0.3,13.5-0.3,20.6
		c-2,0.4-3.9,0.7-5.9,1C320.9,69.8,318.9,70.1,316.8,70.2z"/>
	<path class="st0" d="M372.4,69.8c0.6-3.4,0.9-6.9,1.1-10.3s0.2-7,0.2-10.8c-3.3-7.8-6.3-15.7-9.1-23.7c-2.8-8-5.5-16.2-8-24.5
		c2.4,0.1,5.2,0.3,8.3,0.5c3.1,0.2,5.9,0.5,8.4,0.9c0.9,5.3,1.9,10.3,3,15s1.3,7.4,2.6,12c3-4.4,4.7-6.9,7.2-11.5
		c2.5-4.7,4.9-9.6,7-14.8c2.8,0,7.4,0.1,9.7,0.4c2.3,0.3,4.8,0.6,7.6,1c-3.3,8.1-6.8,16-10.5,23.6s-7.6,15.2-11.6,22.8
		c0.2,1.3,0.3,2.6,0.4,4s0.2,2.8,0.3,4.1c0.1,2,0.1,3.9,0.1,5.8c0,1.9,0,3.7-0.1,5.5c-0.7,0.1-1.4,0.2-2,0.2
		c-0.7,0.1-1.4,0.1-2.1,0.1c-2.1,0.1-4.3,0.1-6.4,0C376.1,70.1,374.2,70,372.4,69.8z"/>
	<path class="st0" d="M484.6,66.2c-2.7-0.5-5-1.3-6.9-2.3c-1.9-1-3.4-2.4-4.7-4c-1.2-1.6-2.2-3.5-2.9-5.7c-0.7-2.2-1.2-4.7-1.6-7.6
		c-0.3-2.1-0.6-4.4-0.8-6.7c-0.2-2.3-0.4-4.5-0.6-6.7s-0.3-4.2-0.4-6.1s-0.1-3.6-0.1-5c0-4,0.8-7.2,2.4-9.7s4.1-4.4,7.3-5.7
		c3.2-1.4,7.3-2.3,12.3-2.7c4.9-0.4,10.7-0.7,17.3-0.7c6.7,0,11.7,1.9,14.9,5.7c3.2,3.8,4.8,9.7,4.8,17.5c0,13.5-6.6,20.2-19.8,20.2
		c-1.7,0-3.5,0-5.4-0.1s-3.7-0.1-5.5-0.2c-1.8-0.1-3.5-0.2-5.1-0.3s-3-0.2-4.3-0.2c0,2.3,0.4,4.2,1.1,5.7c0.8,1.5,2.1,2.2,4,2.2
		c1.7,0,3.9,0,6.5-0.1s5.3-0.2,8.1-0.3c2.8-0.1,5.7-0.3,8.5-0.5c2.8-0.2,5.3-0.4,7.5-0.6c0,2.7-0.1,5.3-0.3,7.9
		c-0.2,2.6-0.5,5.2-1,7.8c-2.7-0.1-5.6-0.1-8.6-0.2c-3-0.1-6-0.2-9.1-0.3c-3.1-0.1-6.1-0.3-9.1-0.6
		C490.2,66.7,487.4,66.5,484.6,66.2z M477.1,36.9c2.2,0,4.6,0,7.2,0s5.1,0,7.6,0s4.8-0.1,6.9-0.2c2.1-0.1,3.9-0.2,5.3-0.3
		c1.2-0.1,2.1-0.5,2.6-1c0.5-0.6,0.8-1.5,0.8-2.9c0-1.3-0.3-2.3-0.8-3s-1.2-1.1-2.1-1.2c-0.9-0.1-2.2-0.2-4.1-0.3s-3.9-0.1-6-0.2
		s-4.3,0-6.5,0s-4.1,0-5.7,0c-1.8,0-3.1,0.6-4,1.8s-1.3,2.9-1.3,5c0,0.3,0,0.7,0,1.1C477.1,36.2,477.1,36.5,477.1,36.9z"/>
	<path class="st0" d="M567.4,69.4c-2.2-2.2-10.5-17.5-11.5-21.1c-1.8,0.1-5.2,0.2-6.6,0.3c-0.4,3.1-1.1,14.8-1.2,18.2
		c-1.9,0.6-4,1-6.6,1.2c-2.5,0.2-4.9,0.3-7.3,0.3c-0.3-6.8-3.9-58.4-3.7-66.2c5.2,0,42.7,0.8,46.3,1c6.6,0.4,11.5,2.3,14.8,5.6
		c3.2,3.3,4.9,8.3,4.9,15c0,3.9-0.3,7.4-1,10.5c-0.6,3.1-1.8,5.8-3.6,8c-1.8,2.2-4.1,3.9-7.2,5.1c-3.1,1.2-7.1,1.8-12,1.8
		c2.4,3.2,5,6.4,7.6,9.6c2.6,3.2,5.4,6.4,8.2,9.7C585.8,69.2,570.8,69.4,567.4,69.4z M543.7,29.4c0,1.2,0.3,6.6,0.4,7.4
		c4.6,0.6,30.5,1.2,31.2,1.3c0.8,0,1.4,0,2.1,0c2.1,0,3.6-0.5,4.3-1.5c0.8-1,1.1-2.2,1.1-3.5c0-1.4-0.4-2.4-1.1-3
		c-0.7-0.6-1.9-0.9-3.5-1C576.8,29,546.8,29.4,543.7,29.4z"/>
	<path class="st0" d="M270.5,67.4c-0.4,0.1-0.8,0.1-1.2,0.1c-0.4,0-0.8,0-1.3,0c-5.2,0-8.6-1.6-10.4-4.9c-0.6,1.2-1.2,2.2-2,3
		s-1.7,1.5-2.9,2.1c-1.2,0.6-2.6,1-4.2,1.2c-1.7,0.3-3.7,0.4-6,0.4c-1.5,0-3.3-0.1-5.5-0.2s-4.5-0.4-6.9-0.8s-4.8-1-7.1-1.7
		c-2.3-0.8-4.3-1.7-5.9-2.9c-4.2-3-6.3-7.5-6.3-13.6c0-5.5,1.6-9.7,4.7-12.7c3.2-3,8-4.5,14.5-4.5c3.2,0,6.7,0.1,10.5,0.2
		c3.8,0.1,7.6,0.4,11.3,0.9c1.9,0.2,3.5,0.8,4.8,1.6s2.4,2.1,3.1,3.7c0.2-1.1,0.3-2.2,0.3-3.3c0-2.8-0.8-4.8-2.4-5.8
		s-4.2-1.6-7.7-1.6c-2.1,0-4.6,0.1-7.5,0.2c-2.9,0.1-6,0.3-9.2,0.4c-3.2,0.2-6.5,0.4-9.7,0.7s-6.2,0.6-8.8,1c-0.1-1.7-0.2-3.4-0.3-5
		c-0.1-1.7-0.1-3.4-0.1-5c0-2.4,0.1-4.7,0.2-7c0.1-2.3,0.4-4.6,0.7-7c2.8-0.2,5.8-0.4,9-0.6c3.2-0.2,6.4-0.3,9.5-0.4
		c3.1-0.1,6-0.2,8.8-0.3s5.1-0.1,6.9-0.1c6.5,0,11.3,1.8,14.4,5.4s4.7,9.3,4.7,17.1c0,4.1,0,8.1-0.1,12.3c-0.1,4.1-0.1,8.2-0.1,12.2
		c0,3.7,0.2,6.8,0.5,9.2C269.1,63.8,269.6,65.8,270.5,67.4z M257.1,52.9c1,0,1.8-0.3,2.3-1c0.5-0.6,0.8-1.7,0.8-3.2
		s-0.2-2.6-0.7-3.4c-0.4-0.8-1.2-1.2-2.3-1.3c-1.7-0.2-3.8-0.3-6.3-0.5c-2.4-0.1-4.9-0.3-7.4-0.4c-2.5-0.1-4.8-0.2-7-0.3
		s-3.9-0.1-5.2-0.1c-1.8,0-2.7,1.8-2.7,5.5c0,2.3,1.2,3.6,3.6,3.7c1.3,0.1,3,0.2,5,0.3s4.1,0.2,6.3,0.3s4.5,0.2,6.8,0.2
		C252.8,52.8,255,52.9,257.1,52.9z"/>
	<path class="st0" d="M415,70.4c-1.1-11.1,0.7-54.8,0.5-66c4.1,0.1,17.9,0,21.9,0.5c-0.9,8-4.1,41.7-4.7,50.3
		c6.2,0.3,27.8-2.5,30.5-3c0.8,2.4,0.2,14.3-0.2,16.7C455.2,69.8,423.1,71.1,415,70.4z"/>
</g>
</svg>
