<?xml version="1.0" encoding="utf-8"?>
<!-- Generator: Adobe Illustrator 20.1.0, SVG Export Plug-In . SVG Version: 6.00 Build 0)  -->
<svg version="1.1" id="Layer_1" xmlns="http://www.w3.org/2000/svg" xmlns:xlink="http://www.w3.org/1999/xlink" x="0px" y="0px"
	 viewBox="0 0 77 28" style="enable-background:new 0 0 77 28;" xml:space="preserve">
<style type="text/css">
	.st0{fill:#FFFFFF;}
</style>
<g>
	<path class="st0" d="M24.4,27.1c-1.4,0.1-2.5-0.1-3.3-0.4c-0.8-0.4-1.5-0.9-1.9-1.7c-0.2,0.4-0.5,0.8-0.7,1.1
		c-0.3,0.3-0.6,0.6-1,0.8c-0.4,0.2-0.9,0.4-1.5,0.5c-0.6,0.1-1.3,0.2-2.2,0.2c-0.1,0-0.6,0-1.5,0c-0.8,0-1.8-0.1-2.9-0.2
		S7.1,27.1,6,26.8c-1.2-0.3-2.2-0.7-3-1.3c-1.6-1.1-2.4-2.8-2.5-4.9c-0.1-2.3,0.4-4,1.5-5.4c1.1-1.3,2.9-2,5.4-2.2
		c0.7,0,1.4-0.1,2.1-0.1c0.8,0,1.6,0,2.4,0.1c0.8,0,1.7,0.1,2.5,0.2c0.8,0.1,1.7,0.2,2.5,0.3c0.8,0.1,1.4,0.3,2,0.7
		c0.6,0.4,1,0.9,1.3,1.5c0-0.3,0.1-0.5,0.1-0.8s0.1-0.5,0-0.8c-0.2-1-0.6-1.8-1.2-2.3c-0.7-0.5-1.7-0.7-3.1-0.7c-1,0-2.1,0-3.3,0.1
		c-1.3,0-2.6,0.1-4,0.2c-1,0.1-2.1,0.1-3.1,0.2s-2,0.2-2.9,0.3c0-0.2,0-0.4,0-0.5c0-0.2,0-0.4,0-0.5C2.6,9.5,2.6,8,2.6,6.6
		s0.2-2.9,0.3-4.3c0.4,0,0.8,0,1.2-0.1c0.4,0,0.8-0.1,1.2-0.1c1-0.1,2-0.1,3-0.1s2-0.1,2.9-0.1c0.9,0,1.8,0,2.6,0s1.5,0,2.2,0
		c2.4,0,4.2,0.6,5.5,1.9s2,3.3,2.1,6c0.1,1,0.1,2.1,0.1,3.2s0,2.2-0.1,3.3c0,1.1,0,2.2-0.1,3.3c0,1.1,0,2.1,0.1,3.1
		C23.6,24.7,23.9,26.2,24.4,27.1z M17.6,21c0.4,0,0.7-0.2,1-0.4c0.2-0.2,0.3-0.7,0.3-1.3c0-0.6-0.1-1.1-0.3-1.4
		c-0.2-0.3-0.5-0.5-0.9-0.5c-1.3-0.2-6.8-0.5-9.6-0.5c-0.8,0-1.1,0.8-1.1,2.4c0,0.4,0.1,0.8,0.4,0.9c0.2,0.2,0.6,0.3,1,0.3
		C11.3,21,16.1,21.1,17.6,21z"/>
	<path class="st0" d="M42.4,26.5c0.1-2.7,0.2-5.3,0.2-8.1c0-2.7,0.1-5.5,0.1-8.3c-1.5-0.1-3.2-0.2-5-0.3S34,9.7,32.2,9.7
		c-0.1,1.3-0.3,2.6-0.4,4.1c-0.1,1.5-0.2,3-0.2,4.6c-0.1,1.6-0.1,3.1-0.1,4.7c0,1.6,0,3.1-0.1,4.6c-1,0-1.9-0.1-2.8-0.2
		s-1.8-0.3-2.7-0.5c-0.2-4.3-0.4-8.7-0.6-13s-0.5-8.6-0.8-13c1.5,0.2,2.7,0.6,3.7,1.1c0.9,0.6,1.6,1.3,1.9,2.2c0.6-1,1.2-1.8,2-2.3
		c0.7-0.5,1.5-0.8,2.4-0.9s1.9-0.2,3.1-0.2c1.2,0,2.4-0.1,3.5-0.1c2.3,0,4,0.6,5.3,1.7c1.2,1.1,1.9,2.9,1.9,5.4c0,1.2,0,2.4,0.1,3.6
		c0,1.2,0,2.4,0,3.6c0,3.8-0.1,7.5-0.2,11.1c-0.9,0.1-1.8,0.2-2.8,0.2S43.3,26.5,42.4,26.5z"/>
	<path class="st0" d="M50.9,2.1c1.4-0.2,3-0.4,4.7-0.6c1.8-0.2,3.5-0.4,5.3-0.6c1.7-0.2,3.3-0.3,4.8-0.4s2.7-0.2,3.6-0.2
		c2.5,0,4.3,0.7,5.5,2.1s1.8,3.5,1.8,6.1c0,1.8-0.1,3.6-0.2,5.5c-0.2,1.9-0.3,3.7-0.5,5.6c-0.4,5.2-2.5,7.8-6.3,7.8
		c-0.7,0-17.4-0.3-18-0.3L50.9,2.1z M68.1,10.1c-2.3,0.1-10.8,0.7-13.1,1.2c-0.2,1.8,0.3,8.6,0.3,10.4c1.3,0.1,11.5,0.2,13,0
		C68.5,19.9,68.6,12.8,68.1,10.1z"/>
</g>
</svg>
