<?xml version="1.0" encoding="utf-8"?>
<!-- Generator: Adobe Illustrator 20.1.0, SVG Export Plug-In . SVG Version: 6.00 Build 0)  -->
<svg version="1.1" id="Layer_1" xmlns="http://www.w3.org/2000/svg" xmlns:xlink="http://www.w3.org/1999/xlink" x="0px" y="0px"
	 viewBox="0 0 269 800" style="enable-background:new 0 0 269 800;" xml:space="preserve">
<style type="text/css">
	.st0{fill:#FFFFFF;}
</style>
<g id="archer_end">
	<path class="st0" d="M116.3,37.9c-3-4-22-51.5,33-34c3.5,0.5,9,3.5,3.5,8.5c4.5,2.5,4.7,11.5,2.3,13.5c-2.3,2,12.3,7.5,1.5,12
		c-0.8,2.5,1.7,6-2.3,8c0,2.5,1,6.5-1,7.5c0,0,15,8.5,22,9.5s14,42.5,12.5,53s11.5,53,9.5,75.5c-0.5,3-2.5,2.5-4,4s3.5,9,0.5,17
		s-5.5,7-9,8.5s-11.5-1-7.5-3.5s4.8-1.7,4.2-13c0-3.3-2.3-0.9-1.7,5s-6.7,6-6.7,1.7s0.7-11.3,3-14.3s-1.7-3.7-1.7-5.7
		s0.3-21.7-4-46.7s-4-31.4-4-33.7c0-2.3-3-2-2.7,2.4c0.3,4.3,2.3,33.3,4.7,42.7c2.3,9.3,4.7,40.3,3,44.7c-1.7,4.3,1,30.7,1,34.3
		c0,3.7,4,42.7,4,53.3s7,46.7,3.3,52c-0.7,2,8.3,8.3,8.3,11s4,7.7-6.3,9.3c-10.3,1.7-17.7-3-17.7-10.3c-1.7-1.3-6.7-0.7-8.3-8
		c-1.7-7.3-2.7-27.3-6.7-50.7c-4-23.3-13.3-70.7-13.3-78.3c0-7.7-2.7-2.7-2.7,1s-2.7,83-2.7,89.3c0,6.3,6.3,36.7,4.3,41.7
		s-1.7,5-2.3,12.7c-0.7,7.7-2.7,12.7-10.7,12.7s-9.8-2-11.1-10c-1.2-8,2.4-7.7,1.4-13.7c-2-3.3-5-1.3-5.7-18.7
		c-0.7-17.3-3-33.7-4-45.3c-1-11.7-4.3-68.7-4.3-74.7c-3.3-2.3-4.3-1.7-4.7-10.7c-0.3-9,1.7-24.3,2.7-30c-1.3-2.3-3-13.7,1-14.7
		c0.3-4,3-24.3,1.3-33s-1.7-6.7-2.7,0.7s0.3,19.7-10.7,20.5s-17-14.2-17-21.8c0-7.7-2.3-32.7-2-34s2.7,0,4.3-1c1.7-1-1.3-4.3,0-4.3
		s1.3-8,0.3-14.3s2.7-8.7,3.3-11c0.7-2.3,3.7-5,3-11.7c0.3-1.7,0-9.3,0-9.3l2.3-0.3V17c0,0,4-3,7.7-0.3c0,3.3-0.3,26.3-0.3,26.3
		h-3.3v14c0,0,1.3,0,3,1.3c2.7-0.7,4.7,0.3,4.7,0.3v2.7c0,0,24.3-8.3,26-16C118.8,37.7,116.3,37.9,116.3,37.9z"/>
	<path class="st0" d="M263.9,438.7c-6.7-5.7-5-1.7-1.8,0.7c6.5,5.7-0.3,5.5-1.2,4.7c-0.8-0.8-5.5-3.8-5.8-3c0,2-2.7,1.7-3.5-0.2
		c-0.8-1.8-12-11.8-13.8-12.2c-4.3,0.8-23.2-3.7-26.5-4.7s-4,1.2-4.7,2.3c-0.7,1.2,0.8,11.5,0.3,12.5s1.5,3.5,1.7,5.5
		c3.5,2.7,5.2,6,5.2,7.7s8.7,19.7,10.3,22c1.7,2.3,7,13,6.7,16c-3.5,13.4-11.3,23.3-18.2,29.8c-6.3,6-11.8,9-12.5,9.2
		c-1.3,0.3-2,5.7-2.7,6.3c-0.7,0.7-3.7,1.3-3,2.7c0.2,0.4-0.3,1.1-1.1,2c-0.7,0.9-1.8,1.9-2.8,2.9c1.6,17.1,1.6,16.4,0.5,19.1
		c-1.7,4.3,1,38.7,1,42.3c0,3.7,4,42.7,4,53.3c0,10.7,7,46.7,3.3,52c-0.7,2,8.3,8.3,8.3,11s4,7.7-6.3,9.3
		c-10.3,1.7-17.7-3-17.7-10.3c-1.7-1.3-6.7-0.7-8.3-8c-1.7-7.3-2.7-27.3-6.7-50.7c-4-23.3-13.3-70.7-13.3-78.3c0-7.7-2.7-2.7-2.7,1
		s-2.7,83-2.7,89.3s6.3,36.7,4.3,41.7s-1.7,5-2.3,12.7c-0.7,7.7-2.7,12.7-10.7,12.7s-9.8-2-11.1-10c-1.2-8,2.4-7.7,1.4-13.7
		c-2-3.3-5-1.3-5.7-18.7c-0.7-17.3-3-33.7-4-45.3c-1-11.7-5.3-82.7-5.3-88.7c-0.1-3.2-0.8,1.1-1.7-10.7c-0.3-4-0.8-5-0.4-9
		c-1.2-0.2-2.6-0.1-3.3-0.1c-1.8,0-6.5,0.2-9.3,3.2c-2.7,2.9-2.5,14.8-2.4,15.6c-0.7-1.5-3.5-3.8-5-6.6s-10.3-16.3-14.2-20.7
		c-3.8-4.3-5.2-15.2-3.2-17.5s0.2-6.5,1.3-9.5c1.2-3,6.3-19.5,6.7-24.3c0.1-1.5,0.7-4.5,1.7-8.1c2.1-8,5.7-19.1,8.2-22.8
		c3.5-5.3,3.3-6.8,2.3-7.3c-0.7-0.3-3.8-1-6.5-2.1c-1.4-0.6-2.7-1.3-3.4-2.2c-1.8-2.5-9.5-6.5-10.5-6.2s-4.7,0.5-7.2-1
		s-10.8-2.2-12.5-2.2s-7.8,2.8-11.3,4.7c-3.5,1.8-4,1.5-7.8,0.7s-3.3,3.3-2.3,5s-0.7,4.7-1.8,4.7c-1.2,0-3,2.5-3,2.5
		S11.1,474.9,9.1,478s-2.2,3.9-6.3,1.2c-4.2-2.7-2.2-5-2.2-5s15.5-20.5,18.2-23.8s-0.3-3.8-0.5-5.2c0.3-2-0.5-4.2-2-5.7
		c-5.2-3.5-5.5-7.5-3.5-9.8s7.5-5.5,7.7-6.8c0-2.8,4.2-3.7,5.8-2.3c1.7,1.3,3.7,0.5,3.7-1.7c4.8-5.3,28.3-7.5,41.5-8.3s17,6,20.5,6
		c1.1,0,2.8,0.2,4.6,0.7c2,0.5,4.3,1.1,6.5,2c2.3,0.9,4.6,1.9,6.5,3c5.3,3.2,5.3,1.2,10,3.3c0.8,0.3,1.6,0.6,2.3,1
		c16.1,6.4,17.4,4.6,18.3,2.4c6.7-26.7,26.5-17.5,30-16c1.7,0.7,2.8,2,3.7,3.1c0.9,1.2,1.5,2.3,2.2,2.4c1.2,0.2,3.2,0.8,5.2-0.8
		s3.8-2,5.2-2c1.3,0,3.7,1,4.2-1.3s0-1,2.8-5.8s8-4.2,15.7-7.5s21.2,3.5,24.5,5.7s7.7,1.5,10.7,2.2s4.5,6.2,6.2,6.2
		c3.5,0,2.5,3.3,4,3.5c4,0.5,6.2,2.8,8.7,4.2s4.8,6.5,4.8,7.7s-0.3,5.8,0.5,7.2C270.2,441.2,266.9,441.7,263.9,438.7z"/>
</g>
</svg>
