<?xml version="1.0" encoding="utf-8"?>
<!-- Generator: Adobe Illustrator 20.1.0, SVG Export Plug-In . SVG Version: 6.00 Build 0)  -->
<svg version="1.1" id="Layer_1" xmlns="http://www.w3.org/2000/svg" xmlns:xlink="http://www.w3.org/1999/xlink" x="0px" y="0px"
	 viewBox="0 0 105 125" style="enable-background:new 0 0 105 125;" xml:space="preserve">
<style type="text/css">
	.st0{fill:#FFFFFF;}
</style>
<path class="st0" d="M94.5,116.3c-9.5-0.1-21.4-0.3-31.8-0.5c-10.3-0.2-20.3-1-29.8-2.3c-5.4-0.7-9.9-2.5-13.5-5.3s-6.6-6.4-9-10.7
	C8,93.1,6.2,88.2,5,82.7c-1.2-5.4-2.1-11.1-2.7-17c-1-10.1-1.2-18.8-0.6-26c0.5-7.2,2.2-13.2,5.1-18.1c2.9-4.8,7.1-8.5,12.7-11.1
	s13-4.3,22.1-5.2c4-0.4,8.3-0.7,12.8-0.8c4.5-0.2,9.4-0.3,14.7-0.3c10.6-0.2,18.6,2.1,24.1,7c5.5,4.8,8.7,12.7,9.7,23.6
	c0.5,5.1,0.4,10.1-0.2,14.9c-0.6,4.9-2,9.2-4.1,13c-2.1,3.8-5.1,7.1-9.1,9.7c-3.9,2.6-9,4.2-15.2,4.8c-3,0.3-6.3,0.4-10,0.4
	c-3.6,0-7.3-0.1-11-0.2s-7.2-0.3-10.6-0.5c-3.4-0.2-6.2-0.4-8.5-0.5c-0.1,0.5-0.1,1.1,0,1.7s0.1,1.2,0.2,1.7
	c0.3,3.1,1.1,5.6,2.4,7.5c1.3,1.9,3.4,2.8,6.3,2.7c3,0,6.7-0.1,11-0.2c4.3-0.2,8.8-0.4,13.5-0.6s9.4-0.5,14.1-0.9
	c4.7-0.3,10.9-0.7,14.7-1.1c-0.1,4.7-0.2,9.5-0.4,14.6C95.8,107,95.3,111.8,94.5,116.3z M23.7,61c11.8,2,38.7,0.1,43.1-0.9
	c2.1-0.5,3.7-0.8,4.9-1.9c1.2-1.1,1.6-2.8,1.4-5.1c-0.2-2.6-0.8-4.4-1.7-5.5c-0.9-1-2.1-1.6-3.7-1.8c-1-0.1-34-0.9-35.4-0.7
	c-3.5,0.3-6,1.7-7.4,4c-1.4,2.4-2,5.5-1.6,9.4c0,0.4,0.1,0.8,0.2,1.1C23.6,60,23.7,60.5,23.7,61z"/>
</svg>
