<?xml version="1.0" encoding="utf-8"?>
<!-- Generator: Adobe Illustrator 20.1.0, SVG Export Plug-In . SVG Version: 6.00 Build 0)  -->
<svg version="1.1" id="Layer_1" xmlns="http://www.w3.org/2000/svg" xmlns:xlink="http://www.w3.org/1999/xlink" x="0px" y="0px"
	 viewBox="0 0 112 125" style="enable-background:new 0 0 112 125;" xml:space="preserve">
<style type="text/css">
	.st0{fill:#FFFFFF;}
</style>
<path class="st0" d="M68.1,122c-1.9-2.9-3.9-6.2-6.1-9.7c-2.1-3.6-4.2-7.2-6.3-11s-4.1-7.5-6-11.2s-3.6-7.1-5.2-10.3
	c-1.7,0.2-3.7,0.3-6.1,0.5c-2.3,0.2-4.7,0.4-7,0.7c-0.5,5.3-0.7,10.4-0.8,15.3c0,4.9,0,10.3,0,16.1c-3.2,1.1-6.9,2-11.2,2.5
	s-8.5,0.9-12.5,1.1c-1-11.8-1.9-23.7-2.8-35.8C3.3,68.1,2.6,55.8,2,43.2c-0.6-12.9-1-26-1.3-39.4c5.1,0.1,10.7,0.1,16.8,0.1
	s12.4,0,18.9,0s13.1,0,19.7,0c6.7,0,13.1,0,19.3,0.1c11.4,0.2,20,3,25.9,8.5c5.8,5.5,9,13.9,9.5,25.4c0.3,6.7,0,12.8-0.9,18.2
	s-2.7,10.1-5.5,14.1c-2.8,3.9-6.9,7-12.1,9.3s-12.1,3.6-20.5,4c4.4,5.3,9,10.6,13.8,15.9s9.7,10.7,14.9,16.2c-5,1.6-10.4,3.1-16,4.3
	C79.3,121.1,73.7,121.8,68.1,122z M20.3,49.9c0.1,2,0.2,4,0.5,6c0.2,2,0.5,3.7,0.7,5.1c8,0.7,16,1.2,24,1.7s16,1,24.2,1.4
	c2.6,0.1,4.6,0.1,5.9,0.1s2.5,0,3.6-0.1c3.7-0.2,6.2-1.1,7.4-2.9c1.2-1.8,1.8-3.9,1.7-6.2c-0.1-2.5-0.8-4.2-2.1-5.1
	c-1.3-0.9-3.3-1.4-6.1-1.5c-2.6,0-6.2,0-10.7,0.1c-4.6,0-9.6,0.1-15,0.2c-5.5,0.1-11.1,0.2-17,0.4C31.4,49.5,25.7,49.7,20.3,49.9z"
	/>
</svg>
