<?xml version="1.0" encoding="utf-8"?>
<!-- Generator: Adobe Illustrator 20.1.0, SVG Export Plug-In . SVG Version: 6.00 Build 0)  -->
<svg version="1.1" id="Layer_1" xmlns="http://www.w3.org/2000/svg" xmlns:xlink="http://www.w3.org/1999/xlink" x="0px" y="0px"
	 viewBox="0 0 105 125" style="enable-background:new 0 0 105 125;" xml:space="preserve">
<style type="text/css">
	.st0{fill:#FFFFFF;}
</style>
<path class="st0" d="M104,115.3c-0.7,0.1-1.4,0.2-2.1,0.2s-1.5,0-2.2,0c-8.9,0-14.9-2.8-17.9-8.4c-1,2-2.2,3.7-3.4,5.2
	c-1.3,1.5-3,2.7-5,3.6s-4.4,1.6-7.3,2.1s-6.3,0.7-10.4,0.7c-2.5,0-5.7-0.1-9.5-0.4s-7.8-0.7-11.9-1.4c-4.2-0.7-8.2-1.7-12.2-3
	s-7.4-2.9-10.2-5C4.7,103.8,1.1,96,1.1,85.5c0-9.4,2.7-16.7,8.2-21.8c5.4-5.1,13.8-7.7,25-7.7c5.5,0,11.5,0.1,18.1,0.3
	c6.5,0.2,13,0.7,19.4,1.5c3.2,0.4,5.9,1.3,8.2,2.7c2.3,1.4,4.1,3.6,5.4,6.5c0.3-1.9,0.5-3.8,0.5-5.7c0-4.9-1.4-8.2-4.2-10
	c-2.8-1.8-7.3-2.7-13.4-2.7c-3.6,0-7.9,0.1-13,0.3s-10.4,0.4-15.9,0.8c-5.5,0.3-11.1,0.7-16.7,1.2S12,52,7.5,52.6
	c-0.2-2.9-0.4-5.8-0.4-8.7C7,40.7,7,37.8,7,34.9c0-4.1,0.1-8.1,0.4-12.1c0.2-3.9,0.6-8,1.1-12.1c4.8-0.4,10-0.8,15.6-1
	c5.5-0.3,11-0.5,16.4-0.7c5.3-0.2,10.4-0.3,15.1-0.5c4.7-0.1,8.7-0.2,11.9-0.2c11.2,0,19.5,3.1,24.8,9.2s8,16,8,29.5
	c0,7-0.1,14.1-0.1,21.2c-0.1,7.1-0.1,14.1-0.1,21c0,6.4,0.3,11.7,0.9,15.8C101.6,109.2,102.6,112.6,104,115.3z M80.8,90.3
	c1.8,0,3.1-0.5,4-1.7c0.9-1.1,1.4-2.9,1.4-5.5s-0.4-4.5-1.1-5.8c-0.8-1.3-2.1-2-4-2.2c-3-0.3-6.6-0.6-10.8-0.8
	c-4.2-0.2-8.4-0.5-12.7-0.7s-8.2-0.4-12-0.5s-6.7-0.2-8.9-0.2c-3.1,0-4.6,3.1-4.6,9.4c0,4,2,6.2,6.1,6.5c2.3,0.2,5.1,0.4,8.6,0.6
	c3.4,0.2,7,0.4,10.9,0.5c3.8,0.2,7.8,0.3,11.8,0.4C73.3,90.2,77.1,90.3,80.8,90.3z"/>
</svg>
