<?xml version="1.0" encoding="utf-8"?>
<!-- Generator: Adobe Illustrator 20.1.0, SVG Export Plug-In . SVG Version: 6.00 Build 0)  -->
<svg version="1.1" id="Layer_1" xmlns="http://www.w3.org/2000/svg" xmlns:xlink="http://www.w3.org/1999/xlink" x="0px" y="0px"
	 viewBox="0 0 110 125" style="enable-background:new 0 0 110 125;" xml:space="preserve">
<style type="text/css">
	.st0{fill:#FFFFFF;}
</style>
<path class="st0" d="M1.4,2.7c5.3-0.3,66.1-0.3,72.5-0.3c12,0,20.9,5.2,26.7,11.6c5.8,6.3,8.6,16.2,8.6,29.6c0,4.7-0.4,9.4-1.2,14.1
	c-0.8,4.7-2.5,8.9-5.2,12.7c-2.7,3.8-6.5,7-11.6,9.5s-12,3.9-20.6,4.2c5.6,5.4,11.1,11.1,16.6,17.1s10.5,11.5,15.3,16.5
	c-2.2,0.2-4.6,0.4-7.2,0.5s-5.2,0.2-7.8,0.2c-4.1,0-8.2-0.1-12.2-0.3c-4.1-0.2-7.8-0.5-11.3-0.9c-3.2-6-6.7-12-10.4-18
	S46,87.4,42,81.7c-1.7,0.2-3.6,0.4-5.6,0.6s-4.1,0.5-6.3,0.9c-0.1,1.9-0.2,3.8-0.2,5.6c-0.1,1.9-0.1,3.7-0.1,5.6
	c0,3.2,0.1,6.4,0.2,9.7c0.2,3.3,0.3,6.5,0.5,9.7c-3.6,0.7-7.4,1.2-11.3,1.6s-7.9,0.6-11.9,0.8L1.4,2.7z M21.4,50.1
	c0.1,2,0.2,3.8,0.5,5.5c0.2,1.7,0.4,3.2,0.7,4.6c9,0.5,16.7,0.9,22.9,1.2c6.3,0.3,11.5,0.6,15.7,0.7c4.2,0.2,7.5,0.4,9.9,0.5
	c2.4,0.2,4.3,0.3,5.6,0.3C78,63,78.9,63,79.4,63s0.9,0,1.2,0c4,0,6.7-0.8,8-2.5s2-3.6,2-5.9c0-2.9-0.7-4.9-2-5.9
	c-1.4-1.1-3.3-1.6-5.8-1.6c-2.4,0-5.9,0.1-10.6,0.2c-4.7,0.2-9.8,0.4-15.6,0.7c-5.7,0.3-11.6,0.6-17.8,1
	C32.6,49.3,26.8,49.7,21.4,50.1z"/>
</svg>
