<?xml version="1.0" encoding="utf-8"?>
<!-- Generator: Adobe Illustrator 20.1.0, SVG Export Plug-In . SVG Version: 6.00 Build 0)  -->
<svg version="1.1" id="Layer_1" xmlns="http://www.w3.org/2000/svg" xmlns:xlink="http://www.w3.org/1999/xlink" x="0px" y="0px"
	 viewBox="0 0 103 125" style="enable-background:new 0 0 103 125;" xml:space="preserve">
<style type="text/css">
	.st0{fill:#FFFFFF;}
</style>
<path class="st0" d="M68.4,117.9c0.2-5.3,0.4-10.5,0.5-15.7c0.2-5.1,0.2-10.4,0.2-15.8c0-2.1,0-4.2,0-6.4c0-2.1-0.1-4.3-0.1-6.5
	c-5.8,0.1-11.6,0.3-17.4,0.6c-5.8,0.3-11.6,0.7-17.2,1.2c-0.8,7.1-1.4,14.2-1.9,21.3s-0.9,14.2-1.3,21.5c-2.9,0-5.8,0-8.7-0.1
	s-5.9-0.3-9-0.7c-1.6-17.7-3.4-35.7-5.4-53.9S3.8,26.1,1.2,6.3C6,5.8,10.9,5.4,15.8,5.2c4.9-0.2,9.8-0.4,14.7-0.4c1.9,0,3.8,0,5.6,0
	s3.7,0.1,5.6,0.1c0.7,8.5,1.4,16.3,2.2,23.2c0.8,7,1.5,13.7,2.2,20.1c5.4,0.4,10.8,0.7,16.2,0.8s10.8,0.1,16.2,0.1
	c0-7.7,0.1-15.3,0.3-22.7c0.2-7.4,0.5-14.6,1-21.5c3.5,0,7.1,0.1,10.7,0.3c3.6,0.2,7.1,0.7,10.7,1.3c-0.6,19-1.5,37.5-2.8,55.5
	s-2.7,35.5-4.4,52.3c-4.2,1-8.5,1.8-12.8,2.3C76.9,117.3,72.6,117.7,68.4,117.9z"/>
</svg>
