<?xml version="1.0" encoding="utf-8"?>
<!-- Generator: Adobe Illustrator 20.1.0, SVG Export Plug-In . SVG Version: 6.00 Build 0)  -->
<svg version="1.1" id="Layer_1" xmlns="http://www.w3.org/2000/svg" xmlns:xlink="http://www.w3.org/1999/xlink" x="0px" y="0px"
	 viewBox="0 0 108 125" style="enable-background:new 0 0 108 125;" xml:space="preserve">
<style type="text/css">
	.st0{fill:#FFFFFF;}
</style>
<path class="st0" d="M84.7,84.4c4.1,2.3,8.8,4.6,12.2,7c3.4,2.4,6.5,4.7,9.5,7c-0.6,2.2-1.4,4.2-2.4,6s-2.4,3.5-4,5
	c-1.7,1.5-4,2.8-6.8,4s-6.3,2.3-10.5,3.3c-3.6,0.9-7.9,1.7-12.8,2.5s-9.7,1.4-14.4,2s-9,1.1-12.8,1.4c-3.9,0.3-6.6,0.5-8.2,0.5
	c-9.1,0-16-2.7-20.7-8.1S6,101.5,4.6,90.7C4.3,87.6,4,84,3.6,80s-0.7-8.1-1-12.5c-0.4-4.3-0.7-8.6-0.9-13C1.4,50.1,1.2,46,1,42.1
	c0-0.5-0.2-2.1-0.2-2.7c0-9.3,2.4-16.8,7.3-22.6C13,10.9,20.4,7.5,30.4,6.5c1.6-0.1,4.5-0.3,8.7-0.7c4.2-0.3,8.7-0.7,13.6-1.1
	c4.9-0.3,9.6-0.6,14.2-0.9c4.6-0.2,8.1-0.4,10.7-0.4c3.8,0,7.3,0.6,10.5,1.6c3.2,1.1,6,2.6,8.4,4.5s4.4,4.1,6,6.5s2.8,4.9,3.5,7.4
	c-2.6,6-5.7,11.4-9.1,16.1c-3.5,4.8-7.1,9-10.8,12.7c-0.8-2.1-1.6-3.8-2.3-5c-0.8-1.2-1.8-2.4-3-3.6c-5.4-0.2-10.6-0.4-15.6-0.5
	s-10-0.2-14.9-0.2c-5.1,0-10.1,0.1-15,0.2c-4.9,0.1-9.9,0.2-15,0.3c-1.1,10.2,1.1,40.3,2.4,48.2c11.8,0.2,46.1,0.7,55.6-0.2
	C79.1,90.4,84.2,87.2,84.7,84.4z"/>
</svg>
