<?xml version="1.0" encoding="utf-8"?>
<!-- Generator: Adobe Illustrator 20.1.0, SVG Export Plug-In . SVG Version: 6.00 Build 0)  -->
<svg version="1.1" id="Layer_1" xmlns="http://www.w3.org/2000/svg" xmlns:xlink="http://www.w3.org/1999/xlink" x="0px" y="0px"
	 viewBox="0 0 423 415" style="enable-background:new 0 0 423 415;" xml:space="preserve">
<style type="text/css">
	.st0{fill:#010101;}
</style>
<path class="st0" d="M148.2,166.1c-2.2-0.7,1.4-4.4,1.4-4.4s9.1,1.5,11.7,2.1c14.5,2.8,16.9-12.1,16.1-16.1
	c-2.3-3.8-1.9-9.1,2.7-9.9c4.6-0.8,3.7-7,2.7-7.8c-1-0.8-1.4-1.4,0.1-2.2c2.3-2.1,0.3-4.6-0.2-6.4c-0.9-5.2-1.5-7.9,0.9-8.7
	c12.1-2.2,9-14.3,7-15.9c-2-1.6-7.3-6.7-8.6-10c-5.5-5-6.8-7.5-6.1-9.8c4.5-3.9,3.9-13.6,2.7-16c-1.2-2.3-6.2-11.7-5.8-13.9
	c0.4-2.2-5.7-12.2-5.7-12.2c1.1-1,11.1-12.1,3.2-19.6c-7.9-7.5-17.3-5.1-19.8-6.1C146,7.1,116.3-6,75.1,2.8c0,0-25.6,4.9-32.3,29.1
	c-2,1.5-28.8,31.5,10.9,90.1c2.5,3.4,9.1,18.5,9.4,21.2c-2.8,0-6.8,2.5-7.3,9.2C56,157.5,58,159,59,162s3,16-8,22.5s-13,15.5-16,20
	s-15.5,16.5-21,30S-7,278,5,338s12.5,60.5,14.5,69.5s198,7,200.5,3s-2-10-3-15s0-16,0-19.5c0.5-5.5,11,1.5,12.5,3s30.5,11.5,34.5,13
	s23.5,6.5,38-10.5s13.5-15.5,22-23.5s43.5-49.5,51.5-68s19.5-34,25-39.5s5.5-7.5,0-16c0-3,6-5,8.5-7.5s10.5-18,5.5-39.5
	c0.5-5.5,2.5-8-0.5-13c0-4.5,9-24.5,9-30s-0.5-11.5-5.5-11.5s-5,5.5-8.5,9c0,0.5,2-20.5,4-28s-1-8-2.5-8c0-1-4-17.5-10.5-3.5
	c-4.5,13-7,23.5-10,26.5s-0.5,23-4,33s-2,16.5-4,22s-5.5,24.5-9,28.5c-3,2-1.7,1.8-4.7,0.2c-1.3,2.7-35.7,54-44,58.3
	c-3.3-1.3,10.3-38.7,11.7-44.3c1.3-5.7,3-27.7-0.7-33c-0.7-3.7,1-3.7,1.3-9.7c0.3-6-3.3-23.3-6.7-27.5c-3.3-4.2-0.3-17.8,2.7-21.8
	s7-20.3,2.7-25c-4.3-4.7-7,1.7-8.7,6c-1.7,4.3-6.7,15.7-8,17.3c-1.3,1.7-7.3,0.7-7-10c0.3-10.7,1.3-22.3,1.7-24.7
	c0.3-2.3-1.7-7.7-6-9c-1-3.7-12.7-14-13.7,3.3c-1,17.3,1.3,76.7,7.7,90.7c1.3,5.7,0.3,5.3-3.3,7c-3.7,1.7-5.7,4-6,19.3
	s-6.7,26.7-13,36c-6.3,9.3-29.7,52.7-30.3,55.7c-0.7,3-11-5.3-27.7-16.7c-16.7-11.3-33.3-19-37-20c-3.7-1-12.3-11.7-17-16
	c-4.7-4.3-23-30.3-24.7-33c-1.7-2.7-4-9.7,8-7.7c6,0,6-7.7,3-14.7c-3-7,2.3-11.3,5.3-14C161.7,176.7,159.6,169.5,148.2,166.1z"/>
</svg>
