<?xml version="1.0" encoding="utf-8"?>
<!-- Generator: Adobe Illustrator 20.1.0, SVG Export Plug-In . SVG Version: 6.00 Build 0)  -->
<svg version="1.1" id="Layer_1" xmlns="http://www.w3.org/2000/svg" xmlns:xlink="http://www.w3.org/1999/xlink" x="0px" y="0px"
	 viewBox="0 0 537 2600" style="enable-background:new 0 0 537 2600;" xml:space="preserve">
<style type="text/css">
	.st0{fill:#010101;}
</style>
<path class="st0" d="M533.7,552.5c-0.4-10.1-9.1-24.3-12-46s-5.1-82.2-6.5-155.4s-14.7-72.3-29.7-88c-17.9-23.2-58-17.9-52.6-25.1
	c26.6-20.5-0.7-33.6-0.7-33.6c5.1,3.9,2.4,8.5,2.7,11.6c-0.7-2.4-7.5-4.6-7.5-4.6c6.3,9.2-3.9,13.1-9.7,5.3
	c-5.8-7.7-1.4-18.8,0-28.5c7.7-22.7,6.3-76.3,6.3-91.8c2.4-54.6-6.8-58.9-9.7-61.4c-2.9-2.4-6.3-4.8-11.6-15
	c-15-25-37.2-20.7-47.8-18.7c-10.6,1.9-12.1,1-13.5,0s-8.7-2.5-18.8-2.4c-25.4,0.2-45.6,28.1-47.5,33c-2.2,5.8-2.3,7.5-6.5,9.8
	c-6.7,3.7-9.1,12.7-9.8,25c-0.7,12.3-1.1,21.6-5.8,44c-4.7,22.5,5.8,65.2,12.1,79s4.5,40.4-18.7,41.3s-8.9-29.7-8.9-29.7
	c-12.7,3.3-12,22.1-12.1,22.1c-5.1-4.7-5.1-12.9-5.1-13c-4.7,12.7,5.5,24,6.3,24.6c-4-0.7-8.5-4-8.8-4.1c10.5,27,37.3,22.8,46,21.7
	c8.7-1.1,6.2,4.3,8,6.5s0.4,5.8-0.7,6.2c-1.1,0.4-8.9,0.2-17.1,6.5c-8.2,6.3-4.3,6.8-8.2,7.2c-3.9,0.5-4.3,2.9-10.1,4.3
	s-9.7,4.8-14.5,11.1c-20.8,19.8-13.5,55.6-14,64.2c-0.5,8.7,6.3,19.8-1.4,36.7c-7.7,16.9-13.5,41.1-15.5,49.8
	c-1.9,8.7-14.5,47.8-14.5,56s-1.5,8.2-7.2,14.5c-20.5,39.4-13,90.8-13.5,111.6s277.5,7.5,278,0.5s-5.8-39.1-7-50.7
	c-1.2-11.6-11.6-28.7-7.5-33.6c4.1-4.8,4.8-16.2,5.8-23.2s7.5-15.7,9.2-10.1s15.5,5.3,24.9,5.6c9.4,0.2,5.1,11.6,3.1,13.5
	c-1.9,1.9-4.8,6.3-3.6,8.9c1.2,2.7,3.4,4.8,1.7,7c-1.7,2.2-1.1,6.3,1.8,8.5s2.9,5.4,3.6,14.9c0.7,9.4,3.6,48.2,4,57.2
	c0.4,9.1,64.5,28.6,67.4,0C539.2,597.1,534.1,562.7,533.7,552.5z M242,508.3c-4.4,3.9-7.3,6.3-5.8,0c9.2-6.8,15-39.2,16-33.5
	C254.6,489.4,246.3,504.4,242,508.3z"/>
<path class="st0" d="M191.5,290.7c-9.7,8.3-9,6.3-12.3,11s-17,9.7-23.7,1.7s-7-3.7-9-6.7s-6.3-5.3-4.3-12.3s-4.3-24.7-18.3-25.3
	c-14-0.7-14,0-17.3,0s-6,5.1-12,0.7c-6,0.3-35,2.3-40,2.6c-5,0.3-9-6.3-10.7-7.7c-1.7-1.3-3.3-4-9-3s-8.3,2-11.3,3s-1.3,11.3-2.7,12
	c-1.3,0.7-21,6.1-21,40.9c0,33.4,36.3,42.4,43,42.4s11-0.1,14-2.2s15.7-9.5,18.3-10.5c2.7-1,9,0.6,11,10.5s19.3,86.2,23,91.9
	c3.7,5.7,21.3,13,56-16c0.9-0.7,0.9-1.7,0.7-3.3c-0.2-1.7-3.8-10.2-2.1-10.3c37.1-2.8,78.2-52.7,80.7-56.1c2.7-3.7,22.7-79,9.7-77
	s-15.7,6.3-34,5C201.8,280.7,191.5,290.7,191.5,290.7z"/>
<path class="st0" d="M533.7,1203.7c-0.4-10.1-9.1-24.3-12-46s-5.1-82.2-6.5-155.4s-14.7-72.3-29.7-88c-17.9-23.2-58-17.9-52.6-25.1
	c26.6-20.5-0.7-33.6-0.7-33.6c5.1,3.9,2.4,8.5,2.7,11.6c-0.7-2.4-7.5-4.6-7.5-4.6c6.3,9.2-3.9,13.1-9.7,5.3
	c-5.8-7.7-1.4-18.8,0-28.5c7.7-22.7,6.3-76.3,6.3-91.8c2.4-54.6-6.8-58.9-9.7-61.4c-2.9-2.4-6.3-4.8-11.6-15
	c-15-25.1-37.2-20.8-47.8-18.8c-10.6,1.9-12.1,1-13.5,0s-8.7-2.5-18.8-2.4c-25.4,0.2-45.6,28.1-47.4,33.1c-2.2,5.8-2.3,7.5-6.5,9.8
	c-6.7,3.7-9.1,12.7-9.8,25c-0.7,12.3-1.1,21.6-5.8,44c-4.7,22.5,5.8,65.2,12.1,79s4.5,40.4-18.7,41.3c-23.2,0.9-8.9-29.7-8.9-29.7
	c-12.7,3.3-12,22.1-12.1,22.1c-5.1-4.7-5.1-12.9-5.1-13c-4.7,12.7,5.5,24,6.3,24.6c-4-0.7-8.5-4-8.8-4.1c10.5,27,37.3,22.8,46,21.7
	c8.7-1.1,6.2,4.3,8,6.5s0.4,5.8-0.7,6.2s-8.9,0.2-17.1,6.5c-8.2,6.3-4.3,6.8-8.2,7.2c-3.9,0.5-4.3,2.9-10.1,4.3
	c-5.8,1.4-9.7,4.8-14.5,11.1c-20.8,19.8-13.5,55.6-14,64.2c-0.5,8.7,6.3,19.8-1.4,36.7s-13.5,41.1-15.5,49.8
	c-1.9,8.7-14.5,47.8-14.5,56s-1.5,8.2-7.2,14.5c-20.5,39.4-13,90.8-13.5,111.6c-0.5,20.8,277.5,7.5,278,0.5s-5.8-39.1-7-50.7
	s-11.6-28.7-7.5-33.6c4.1-4.8,4.8-16.2,5.8-23.2s7.5-15.7,9.2-10.1s15.5,5.3,24.9,5.6c9.4,0.2,5.1,11.6,3.1,13.5
	c-1.9,1.9-4.8,6.3-3.6,8.9c1.2,2.7,3.4,4.8,1.7,7c-1.7,2.2-1.1,6.3,1.8,8.5s2.9,5.4,3.6,14.9c0.7,9.4,3.6,48.2,4,57.2
	c0.4,9.1,64.5,28.6,67.4,0C539.2,1248.3,534.1,1213.8,533.7,1203.7z M242,1159.4c-4.4,3.9-7.3,6.3-5.8,0c9.2-6.8,15-39.2,16-33.5
	C254.6,1140.5,246.3,1155.6,242,1159.4z"/>
<path class="st0" d="M194.5,986.7c-7.2,10.6-7.1,8.4-9.1,13.8c-2,5.4-13.9,13.7-22.4,7.7s-7.7-1.7-10.4-4.1s-7.5-3.5-7.4-10.8
	s-10.6-22.7-24.3-19.7s-13.5,3.6-16.7,4.5s-4.5,6.5-11.4,3.8c-5.7,1.8-33.2,11.3-38,12.9s-10.3-3.8-12.3-4.6c-2-0.9-4.3-3-9.5-0.6
	s-7.5,4.1-10.2,5.8s1.6,11.3,0.5,12.3s-18.7,11.3-9.7,44.9c8.6,32.3,46.1,31.6,52.5,29.9s10.6-2.9,13-5.7c2.3-2.8,12.7-13.2,15-14.9
	c2.3-1.7,8.8-1.7,13.3,7.3s41,78.3,46,82.8s24,7,50-29.9c0.7-1,0.4-1.9-0.2-3.3c-0.6-1.6-6.3-8.8-4.7-9.4
	c35.1-12.3,61.9-71.1,63.4-75.1c1.6-4.2,1.4-82.2-10.6-76.9s-13.5,10.2-31.5,13.6C201.9,974.3,194.5,986.7,194.5,986.7z"/>
<path class="st0" d="M533.7,1853.7c-0.4-10.1-9.1-24.3-12-46s-5.1-82.2-6.5-155.4c-1.4-73.2-14.7-72.3-29.7-88
	c-17.9-23.2-58-17.9-52.6-25.1c26.6-20.5-0.7-33.6-0.7-33.6c5.1,3.9,2.4,8.5,2.7,11.6c-0.7-2.4-7.5-4.6-7.5-4.6
	c6.3,9.2-3.9,13.1-9.7,5.3c-5.8-7.7-1.4-18.8,0-28.5c7.7-22.7,6.3-76.3,6.3-91.8c2.4-54.6-6.8-58.9-9.7-61.4
	c-2.9-2.4-6.3-4.8-11.6-15c-15-25.1-37.2-20.8-47.8-18.8c-10.6,1.9-12.1,1-13.5,0s-8.7-2.5-18.8-2.4c-25.4,0.2-45.6,28.1-47.4,33.1
	c-2.2,5.8-2.3,7.5-6.5,9.8c-6.7,3.7-9.1,12.7-9.8,25c-0.7,12.3-1.1,21.6-5.8,44c-4.7,22.5,5.8,65.2,12.1,79s4.5,40.4-18.7,41.3
	s-8.9-29.7-8.9-29.7c-12.7,3.3-12,22.1-12.1,22.1c-5.1-4.7-5.1-12.9-5.1-13c-4.7,12.7,5.5,24,6.3,24.6c-4-0.7-8.5-4-8.8-4.1
	c10.5,27,37.3,22.8,46,21.7c8.7-1.1,6.2,4.3,8,6.5s0.4,5.8-0.7,6.2c-1.1,0.4-8.9,0.2-17.1,6.5c-8.2,6.3-4.3,6.8-8.2,7.2
	c-3.9,0.5-4.3,2.9-10.1,4.3s-9.7,4.8-14.5,11.1c-20.8,19.8-13.5,55.6-14,64.2c-0.5,8.7,6.3,19.8-1.4,36.7
	c-7.7,16.9-13.5,41.1-15.5,49.8c-1.9,8.7-14.5,47.8-14.5,56s-1.5,8.2-7.2,14.5c-20.5,39.4-13,90.8-13.5,111.6
	c-0.5,20.8,277.5,7.5,278,0.5s-5.8-39.1-7-50.7s-11.6-28.7-7.5-33.6c4.1-4.8,4.8-16.2,5.8-23.2s7.5-15.7,9.2-10.1s15.5,5.3,24.9,5.6
	c9.4,0.2,5.1,11.6,3.1,13.5c-1.9,1.9-4.8,6.3-3.6,8.9c1.2,2.7,3.4,4.8,1.7,7c-1.7,2.2-1.1,6.3,1.8,8.5s2.9,5.4,3.6,14.9
	c0.7,9.4,3.6,48.2,4,57.2c0.4,9.1,64.5,28.6,67.4,0C539.2,1898.3,534.1,1863.8,533.7,1853.7z M242,1809.4c-4.4,3.9-7.3,6.3-5.8,0
	c9.2-6.8,15-39.2,16-33.5C254.6,1790.5,246.3,1805.6,242,1809.4z"/>
<path class="st0" d="M194.7,1657.2c-4.2,12.1-4.6,10-5.2,15.7c-0.6,5.7-9.9,16.9-19.7,13.3s-7.9,0.3-11.1-1.3
	c-3.2-1.6-8.2-1.5-9.9-8.5c-1.8-7.1-16.1-19.2-28.5-12.8s-12.1,7-15,8.7s-2.7,7.4-10,6.6c-5,3.3-29.2,19.5-33.3,22.3
	c-4.2,2.8-11-1-13.1-1.3c-2.1-0.3-4.9-1.8-9.3,1.9c-4.4,3.7-6.2,5.9-8.3,8.3s4.5,10.5,3.7,11.7s-15.1,15.8,2.3,45.9
	c16.7,29,52.7,18.6,58.5,15.3c5.8-3.3,9.5-5.6,11-8.9s8.8-16,10.6-18.2c1.8-2.2,8.1-4,14.8,3.6c6.7,7.5,59.8,65,65.9,68.1
	c6,3.1,25,0.6,40.5-41.9c0.4-1.1-0.1-2-1-3.2c-1-1.3-8.4-6.9-7-7.9c30.7-21,41.4-84.7,41.8-88.9c0.5-4.5-19.9-79.8-30.1-71.5
	c-10.3,8.2-10.4,13.3-26.9,21.3C198.6,1643.3,194.7,1657.2,194.7,1657.2z"/>
<path class="st0" d="M533.7,2503.7c-0.4-10.1-9.1-24.3-12-46s-5.1-82.2-6.5-155.4s-14.7-72.3-29.7-88c-17.9-23.2-58-17.9-52.6-25.1
	c26.6-20.5-0.7-33.6-0.7-33.6c5.1,3.9,2.4,8.5,2.7,11.6c-0.7-2.4-7.5-4.6-7.5-4.6c6.3,9.2-3.9,13.1-9.7,5.3
	c-5.8-7.7-1.4-18.8,0-28.5c7.7-22.7,6.3-76.3,6.3-91.8c2.4-54.6-6.8-58.9-9.7-61.4c-2.9-2.4-6.3-4.8-11.6-15
	c-15-25.1-37.2-20.8-47.8-18.8c-10.6,1.9-12.1,1-13.5,0s-8.7-2.5-18.8-2.4c-25.4,0.2-45.6,28.1-47.4,33.1c-2.2,5.8-2.3,7.5-6.5,9.8
	c-6.7,3.7-9.1,12.7-9.8,25c-0.7,12.3-1.1,21.6-5.8,44c-4.7,22.5,5.8,65.2,12.1,79s4.5,40.4-18.7,41.3c-23.2,0.9-8.9-29.7-8.9-29.7
	c-12.7,3.3-12,22.1-12.1,22.1c-5.1-4.7-5.1-12.9-5.1-13c-4.7,12.7,5.5,24,6.3,24.6c-4-0.7-8.5-4-8.8-4.1c10.5,27,37.3,22.8,46,21.7
	c8.7-1.1,6.2,4.3,8,6.5s0.4,5.8-0.7,6.2s-8.9,0.2-17.1,6.5c-8.2,6.3-4.3,6.8-8.2,7.2c-3.9,0.5-4.3,2.9-10.1,4.3
	c-5.8,1.4-9.7,4.8-14.5,11.1c-20.8,19.8-13.5,55.6-14,64.2c-0.5,8.7,6.3,19.8-1.4,36.7s-13.5,41.1-15.5,49.8
	c-1.9,8.7-14.5,47.8-14.5,56s-1.5,8.2-7.2,14.5c-20.5,39.4-13,90.8-13.5,111.6s277.5,7.5,278,0.5s-5.8-39.1-7-50.7
	c-1.2-11.6-11.6-28.7-7.5-33.6c4.1-4.8,4.8-16.2,5.8-23.2s7.5-15.7,9.2-10.1c1.7,5.6,15.5,5.3,24.9,5.6c9.4,0.2,5.1,11.6,3.1,13.5
	c-1.9,1.9-4.8,6.3-3.6,8.9c1.2,2.7,3.4,4.8,1.7,7c-1.7,2.2-1.1,6.3,1.8,8.5s2.9,5.4,3.6,14.9c0.7,9.4,3.6,48.2,4,57.2
	c0.4,9.1,64.5,28.6,67.4,0C539.2,2548.3,534.1,2513.8,533.7,2503.7z M242,2459.4c-4.4,3.9-7.3,6.3-5.8,0c9.2-6.8,15-39.2,16-33.5
	C254.6,2440.5,246.3,2455.6,242,2459.4z"/>
</svg>
