<?xml version="1.0" encoding="utf-8"?>
<!-- Generator: Adobe Illustrator 20.1.0, SVG Export Plug-In . SVG Version: 6.00 Build 0)  -->
<svg version="1.1" id="Layer_1" xmlns="http://www.w3.org/2000/svg" xmlns:xlink="http://www.w3.org/1999/xlink" x="0px" y="0px"
	 viewBox="0 0 500 120" style="enable-background:new 0 0 500 120;" xml:space="preserve">
<style type="text/css">
	.st0{fill:#FFFFFF;}
</style>
<g>
	<polygon class="st0" points="100.4,105.4 159.1,90.4 165.4,107.1 205.9,82.4 197.6,100.6 222.4,87.6 218.9,100.9 230.9,94.8 
		223.4,115.1 223.1,106.6 212.9,111.6 211.9,102.1 186.6,111.6 190.6,101.6 158.1,117.6 157.9,102.6 	"/>
	<polygon class="st0" points="267.1,94.4 278.4,113.9 276.4,105.4 288.1,108.4 288.1,100 313.6,106.1 308.6,96.4 341.9,109.9 
		341.9,95.6 399.6,94.4 337.9,82.4 334.4,100 291.1,79.9 302.1,96.9 274.6,85.4 280.1,98.1 	"/>
</g>
<g>
	<polygon class="st0" points="47.7,65.4 127.1,50.4 135.6,67.1 190.3,42.4 179.2,60.6 212.6,47.6 207.9,60.9 224.1,54.8 214,75.1 
		213.7,66.6 199.8,71.6 198.4,62.1 164.3,71.6 169.7,61.6 125.8,77.6 125.4,62.6 	"/>
	<polygon class="st0" points="273.2,54.4 288.4,73.9 285.7,65.4 301.6,68.4 301.6,60 336,66.1 329.3,56.4 374.2,69.9 374.2,55.6 
		452.3,54.4 368.8,42.4 364.1,60 305.6,39.9 320.5,56.9 283.3,45.4 290.7,58.1 	"/>
</g>
<g>
	<polygon class="st0" points="0,25.5 98.2,10.5 108.6,27.2 176.3,2.5 162.5,20.8 203.8,7.8 198,21 218,14.9 205.5,35.2 205.1,26.8 
		188,31.8 186.3,22.2 144.1,31.8 150.8,21.8 96.5,37.8 96.1,22.8 	"/>
	<polygon class="st0" points="278.6,14.5 297.4,34 294.1,25.5 313.7,28.5 313.7,20.1 356.3,26.2 348,16.5 403.5,30 403.5,15.8 
		500,14.5 396.8,2.5 391,20.1 318.7,0 337.1,17 291.1,5.5 300.3,18.2 	"/>
</g>
</svg>
