<?xml version="1.0" encoding="utf-8"?>
<!-- Generator: Adobe Illustrator 20.1.0, SVG Export Plug-In . SVG Version: 6.00 Build 0)  -->
<svg version="1.1" id="Layer_1" xmlns="http://www.w3.org/2000/svg" xmlns:xlink="http://www.w3.org/1999/xlink" x="0px" y="0px"
	 viewBox="0 0 550 2200" style="enable-background:new 0 0 550 2200;" xml:space="preserve">
<style type="text/css">
	.st0{fill:#010101;}
	.st1{fill:#431020;}
</style>
<path class="st0" d="M423.2,477.8c-3-3.2-10.5-9.2-11.2-9.8s-4.5,1.5-4.5-4.2c-0.8-4.5-7.8-10-9-11.5s-14.8-13.2-17.5-16
	S367,420,367,420c-3.2-3.2-22.8-26.7-27-32.7c-4.3-6-15-17.2-15-21.2s-10.5-41-15.3-57s-12.3-51-14.3-68.5s-11.3-18.5-10.5-23
	s-0.3-22.2-2-29.7c-1.8-7.5-6.5-14.8-5.8-16.8s3.5-15,3-29.8s-12.3-26.5-14.5-29.7s-18.3-16.2-29-37.5
	c-10.8-21.2-29.3-27.7-32.8-30.2s-12.3-5-15.5-5.2s-4.5-0.2-8.2-1.5s-9.8-3-13,0.2c-3.2,3.3-10,2-11.5,0.5s-3.8-5.5-6.2-5.2
	s-5.5,2.2-12.3-12.2C130.3,6,111.6,0.3,108.9,0.8c-2.8,0.5-7.5-1.2-17.8,2.3c-10.2,3.5-20,26.3-21.2,32.5s-2,5.5-3.7,10.5
	c-1.8,5,3.5,8.8,5.5,8.8s4.5,0,5.2,1.5s3.2,4.8,4.6,7.5c1.3,2.7,4.7,5.7,7,5.7s4.4,0.4,5,2c0.7,2,1.3,12.8,5.3,12.7
	c4-0.1,4.9-2.9,7.8-0.4c3,2.5,5.2,4.1,7.5,3.8c2.3-0.3,4.2-0.1,5.7,1.7c1.5,1.8,6.7,5.6,8.9,1.1c2.2-4.4,3.4-5.1,7.5-4.6
	s11.1-0.1,11.8,8.2s-0.7,29,7.7,41c8.3,12,12,17.3,15.7,21s0.7,3.7-3,7s-21.3,20-24.7,24c-3.3,4-26.7,23-32,26s-8.7,5.7-8.7,9.3
	c0,3.7-0.3,6.3-5.7,6.3c-5.3,0-14.3-0.7-16.7-0.7c-2.3,0-5,2-7.7,4.7s-8,8.5-6,10.2s0.2,3.8-1.2,5.8c-1.5,2-1,6.8,1,7.2
	c2,0.5,2.5,0.5,3,1.8s2.2,3.8,4.8,3.8s3-0.2,3.8,1.2s4,2.2,5.5,2s2.8,2.2,7.2,1.5s6.8-0.8,10-5.8s6.8-8.8,7.8-10.3s0.2-5,2.8-7.2
	s4.5-2.5,4.5-0.2s1.8,3.8,6-0.2s5-7.8,10.5-11.8s25.2-17.2,32.8-20.5s14-8.5,16.5-10.2s4.8-5,6.5,2.5s6,16.8,7.2,20.5
	s1.5,6.5-2.2,9.5s-32.5,30.8-35,33.5s-42.4,41.9-46.8,46.5c-8.2,8.6-16.5,38.6,22.2,58.6s76.7,35.4,82.3,38.2
	c5.5,2.8,8,0.6,13.8,3.9s8.2,2.1,7.2,14.1s-0.8,10.8-1,12.5s2.2,1.8,2,6.8s-3.8,23.5-4.2,27.5s2.2,9.2,6,9.8s7.5,1.8,13.5-8
	c6-9.8,21.2-44.2,22.2-48s1.8-4.2,3.5-4s1.5,1.8,3.8-2.8s3.5-5.5,4.5-7.8s2-2,5.8,2.8s52.2,52,59.8,56.8s10,10.7,12.2,13.2
	c5.5,6,6.3,10.8-3.8,19.6c-1.6,1.4-0.8,3.7-3.7,7.4c-4.2,5.4-12.9,15.9-14.2,17.2c-2.2,2.2-5,9.2-2.8,11.5s5.5,7.8,14.5,2
	s44.5-39.8,47-42.2s2.2-2.8,3.5-1.8s2,1.2,5-1s14-11.2,15.5-13S426.2,481,423.2,477.8z M270.8,386.3c-2.5,0-2-1.2-2-5.8
	s-2.2-5.2-6.5-6.8s-13.5-8.2-21.2-10.8s-19.2-11-25.8-14.2s-26.3-14.5-29.5-16.2c-3.3-1.8-0.5-4.2,2.2-6.8s33.2-25.2,41.5-32.2
	s12.2-1.2,13,1.8s3.2,9.5,3.8,13.5s24.8,69.5,26.2,73.2S273.2,386.3,270.8,386.3z"/>
<path class="st0" d="M205.8,1016c-1.6-6.2-5.5-18.5-7.8-27.8s-10-31.2-13.8-44.8s3-19.5,8-24s3-2.8,8.5-9s24-35.2,31.8-46.5
	s7.5-5,8.5,0.8s13.5,48.5,21.8,71.5s33.5,18.5,48.8,18s35-8.8,52.8-13.5s37-12.5,43.5-15.8s9.5-4.2,13.8-4.2s5.5-1.2,8.8-4
	s6.2-0.8,8.8,2s3.8,3,4.8,1.8s3-0.5,4.8,0.5s7,4.2,15.8,11s13.5,8,18,5.2s2-11.2,0-14.8s-11-17-16.8-24s-15-17.2-16.5-18.8
	s-3.5-3.2-2.5-4.5s-0.2-3.8-1.2-6.5s-5.5-9.5-9.5-15.8s-9.5-0.8-14,1.8s-12.2,10-13,13s-1.2,4.5-2,4.5s-2.2,0.2-6.5,1.8
	s-16,6.5-21.5,6.5s-14.8,1.8-22.8,4.8s-9,2.8-12,2.8s-17.5,4-25,5.5s-5.8-1.8-6-5.5s-5.8-24.2-6.8-29.2s-7.8-31-7.5-41
	s-0.8-16.2-3.2-26S295,780,296,777.5s-1.2-3.8,1-22.8s-1.2-20.8-4.2-23.8s-5.5-8.8-9.5-15.2s-5.2-8.8-3-12.2s-5.8-13.2-8.2-17.8
	s-6.8-13.8-11.8-20.2s7-6,13.2-6.5s7.8,2.2,11.5,10.2s25.8,31.8,31,39.2s6,10.2,5.5,12.5c-0.5,2.2-0.8,5,2,7.8s3,5.5,2.8,7
	s1.2,8.8,1.8,17s6.5,10.8,11.2,16.2s8.2-0.5,8.2-1.2s1.2-3.2,4.5-2.5s5.2-2.5,5.2-3.2s-2-1.8,0.8-2.5s3.2-2.8,3-3.5
	s-1.2-2.2,1.2-2.2s1.8-5.5,0-6.5s-5.8-6.8-7.2-10.2s-8-11.2-10.3-11.8c-2.3-0.5-2.9-2.5-1.7-4.3c1.2-1.8,3-5,0-10
	s-11.8-23.8-14.8-28.5s-9-16.5-16.8-33.2s-17.2-18.8-22.8-19.5s-28.5-7.2-34-9.8s-22.2-7.5-33.8-9.2s-14-1.8-18.4-3.9
	c-3.9-1.9-11.5-6.5-14.7-7.2s-4.4-0.8-8-2.5s-9.3-4.2-12.9-1.4c-3.6,2.8-10.2,0.7-11.5-1s-3-5.9-5.5-6s-5.7,1.5-10.6-13.7
	c-4.8-15.2-22.7-23.3-25.5-23.2s-7.3-2.2-17.9,0s-23.2,23.5-25.2,29.5s-2.7,5.2-5,9.9c-2.4,4.7,2.4,9.1,4.3,9.4c2,0.3,4.5,0.6,5,2.2
	c0.6,1.6,2.6,5.2,3.6,8s3.9,6.2,6.2,6.5c2.3,0.3,4.3,1,4.7,2.6c0.5,2-0.3,12.9,3.7,13.2c4,0.4,5.2-2.3,7.8,0.6
	c2.6,2.9,4.6,4.7,6.9,4.8c2.3,0,4.2,0.4,5.5,2.4s5.9,6.4,8.6,2.3c2.7-4.1,4.1-4.6,8-3.6c4,1,11.1,1.3,10.7,9.7
	c-0.4,8.4-4.6,18-4.6,32.6c0,6.4,0.4,12,0.9,24.8c0.3,6.9,6.2,13.7,2.1,16.6c-4.1,2.8-23.7,17.1-27.5,20.7
	c-3.8,3.5-29.4,25.4-35.1,27.7s-9.3,4.5-9.8,8.2c-0.5,3.6-1.1,6.2-6.4,5.6c-5.3-0.7-14.1-2.5-16.4-2.8c-2.3-0.3-5.2,1.3-8.2,3.7
	c-3,2.3-9,7.4-7.3,9.4c1.8,2-0.2,3.8-2,5.5c-1.7,1.8-1.9,6.6,0.1,7.3c1.9,0.8,2.4,0.8,2.8,2.1c0.3,1.3,1.8,4,4.2,4.3
	c2.5,0.3,3,0.1,3.6,1.7c0.6,1.6,3.7,2.7,5.2,2.7c1.5-0.1,2.4,2.6,7,2.4c4.6-0.2,6.8,0.1,10.7-4.4s7.8-7.8,9-9.2s0.9-4.9,3.7-6.8
	c2.8-1.9,4.8-1.9,4.5,0.3s1.3,3.9,6,0.5s5.9-7,11.9-10.3s27.9-18.2,35.1-22.2c7.5-4.1,15-11.6,17.7-13.1c2.7-1.4,10.9-7,13.7-8.8
	c12.4-7.9,7.2-14.5,7.5-23.5s2.8-5,4.5-2s8.2,5.8,10.2,10.2s9,13.5,13.5,19.2s10.5,14.2,10.2,16s-0.2,3.8,1,13s-2.8,10.2-5,12.5
	s-11,17.2-15.8,29.5s-25.2,42.8-29.2,50s-10.8,16.8-20.2,32.8s-1.2,40.2,1,49s11,44,16.2,56.2c0.5,1.2,10,34.9,10.9,40.9
	c1.2,8,0.3,12.4-12.9,15.3c-2.1,0.4-2.5,2.9-6.8,4.7c-6.3,2.7-19,7.6-20.8,8.2c-3.1,0.9-8.9,5.7-8,8.7c0.9,3.1,1,9.4,11.7,8.8
	c10.7-0.7,58.2-13.2,61.6-14.1c3.4-1,3.3-1.3,3.9,0.2c0.6,1.5,1.1,2.1,4.9,1.6c3.7-0.5,17.7-3,19.9-3.8s2.4-3.8,1.4-8.1
	c-1-4.3-4.7-13.2-5.1-14s-4.7-0.9-1.9-5.9C214.5,1050.3,208.6,1026.2,205.8,1016z"/>
<path class="st0" d="M197.3,1347.1c-9,9.6-39.5,30.1-45.9,35.3c-6.4,5.2-16.2,11.5-31.1,22.7c-2.5,1.9-13,17.3-15.8,22.6
	s-39.5,65.8-44.2,75.2s-8,7.5-8.8,5s-8-10.8-10.8-18.8s-10.5-6.2-12.8-4.8s-4.5,3.5-4.5,5.8s2.8,25.2,3.8,33.5s11.3,20.8,15.8,24
	s5,9.5,5.5,11s3,2,6.5,10s11.5,7,14,6.5s6.5-7.5,10.5-9.5s5-11,5-14s1.5-5,6-5s3-1,5.5-3.5s12-23,19-31s31.5-42,34.5-46
	s17-25.5,24-28.5s4.5-3.5,18.5-12s40-25.5,54-34.5s25.5-16,30.5-7.5s26.5,32.4,28.9,37.2c2.4,4.8,32.5,37.1,49.1,52.3
	c20.6,18.9,35.4,7.4,48.8,3c13.3-4.5,24.5-17,38.9-25.9s29.3-20.8,34.2-25.4c4.9-4.6,7.2-6.3,11-7.4c3.7-1.1,4.5-2.6,6.7-5.8
	c2.1-3.3,5.3-2.3,8.2-0.6c2.9,1.8,4.1,1.7,4.7,0.3c0.6-1.4,2.5-1.2,4.3-0.8c1.8,0.4,7.3,1.9,16.8,5.5s14,3.5,17.3-0.1
	c3.2-3.6-1.2-10.5-3.9-13c-2.7-2.6-14.2-12.1-21.1-16.7c-6.9-4.6-17.8-11.2-19.5-12.2c-1.7-0.9-3.9-1.9-3.4-3.3
	c0.6-1.4-1.2-3.2-2.8-5.4c-1.6-2.2-7.4-6.9-12.5-11.4c-5.2-4.5-8.6,1.9-11.9,5.3s-8.1,12.1-8,14.9s0.1,4.3-0.6,4.5s-1.9,0.8-5.3,3.3
	c-3.4,2.4-12.4,10-17.2,11.4c-4.9,1.5-12.5,5.5-18.8,10.2c-6.3,4.8-7.2,4.8-9.9,5.6c-2.6,0.8-14.4,8.2-20.6,11.5s-8.5-0.6-10.7-3.3
	c-2.2-2.6-29-34.1-33.5-40.1s-20-29-25.5-37s-10.5-12.5-10.5-15.5s1.5-8,2-16.5s-3-17-2-23s-4-14.5-7-16s-12-10-15.5-16.5
	s-17-27-23.5-35s-27.5-19.5-9.5-17.5s35.5-2,48-1.1c8.8,0.6,37.6,16,45.8,20.2s10.1,6.2,10.7,8.4c0.6,2.2,1.7,4.8,5.4,6
	c3.7,1.1,5.2,3.5,5.7,4.9s5.2,7.1,9.5,14.2s10.8,6.5,17.5,9.1c6.8,2.6,7.1-4.3,6.7-5s-0.4-3.5,2.8-4.3c3.2-0.9,3.5-4.7,3.1-5.3
	c-0.4-0.7-2.6-0.6-0.5-2.6c2.1-1.9,1.6-4,1-4.5s-2.2-1.4,0.1-2.6c2.2-1.2-1-5.7-3-5.7c-2-0.1-8.2-3.3-11.2-5.7
	c-3-2.4-12.3-6.2-14.6-5.5c-2.3,0.7-3.7-0.8-3.5-3c0.3-2.2,0.3-5.8-4.7-8.8s-21.5-15.5-26.4-18.3s-15.6-10.5-30.4-21.5
	c-12.6-9.4-36.6-23.3-44.1-22.3s-30.5,1.5-39.6-1s-33.4,2.5-37.9,2.5s-9,7.5-14.8,7.5c-4,0-9.1-4.6-12.9-2
	c-3.8,2.7-10.2,0.3-11.4-1.5c-1.2-1.7-2.8-6.1-5.3-6.2c-2.5-0.2-5.8-3.7-10-19.1s-21.7-24.3-24.5-24.3s-7.2-2.5-17.9-0.8
	s-24.2,22.5-26.5,28.4c-2.3,5.9-2.9,5.1-5.5,9.7s2,9.2,3.9,9.6c2,0.3,4.4,0.8,4.9,2.4s2.4,5.3,3.3,8.2c0.9,2.9,3.6,6.4,5.9,6.8
	s4.3,1.2,4.6,2.8c0.4,2-0.9,12.8,3.1,13.4s5.3-2,7.8,0.9c2.5,3,4.4,4.9,6.7,5c2.3,0.1,4.1,0.6,5.4,2.6c1.2,2.1,5.6,6.7,8.5,2.6
	c2.9-4,4.2-4.4,8.2-3.2c3.9,1.2,6.5,2.3,4.5,14.6s-7.8,36.8-8.3,45.8s-1.2,20-1.2,23.2s1,3.8-3.5,5.2s-31.2,12.5-36,16.8
	s-17,9-19.5,10.8s-9.5,2.8-11.2,1.8s-6.5-0.2-7.5,1.2s-3.5,1.8-6.2,1s-15-1.8-17.5-1.8s-11.8,2.8-16.5,6.5s-5.5,7.2-4.8,8.8
	s2.5,2.2,2.5,4s-0.5,3.8,1.2,5.5s4,2.7,4.2,4s0.5,2.3,2,3s3.5,1.5,4.2,3s4,3.2,7.8,0s8.5-4.6,12-6s9.8-4,11-5.2s3-1.2,4.5-0.5
	s2,0.8,7,0s18.2-4.2,25.2-7s21.5-6.8,27.5-7.2s23-7,26-9s12.5-4,17-14.5s9-23,10-27s0-9,8.2-1s16.8,12,21,17s19.5,29.2,23.2,32.8
	c2,1.9,0.9,5.1-2.9,15.6C209,1341.4,201.5,1342.7,197.3,1347.1z"/>
<path class="st1" d="M204.9,1696.5c-4.8,0-5.5-4.9-0.6-8s13-9.9,13-14.4s1.6-13.2-1.1-14.2s-3.4-0.5-3.5-5.2s-5.9-4-6.6-3.2
	s-6.5-2.5-8.4,0.5c-2,1-3.5-1-8.5,3.5s-10.4,6-8.4,18.2s3,12,3,16.2s-8.1-6-7,6.8s1.8,16.4-2.5,18.9s-10.8,7.9-4,12.1
	c2.1,1.5,2,4.9-2.9,16.4c-5,11.5-6.6,19-6.6,25.6s0.6,9.8-1.9,11.6s-10.1,7.2-6.4,13.8s7.8,13.8,13.9,14.5c0.6,1.4-7.5,9.8-9.6,12
	s-8.8,1.4-11.5,1.5s-10.6,4-11.6,5.2s-7.9-0.8-10.9-0.9s-13.6,2-14.5,11.4s-1.4,12.5-1.4,14.9s-3.2,2-7.2,1.5s-8.5-0.6-12.9,0.4
	c-4.2-1.1-15.1-4-18.6-5.6s-11.3-0.6-15,1.5s-8.2,5-8.2,7.5s0.6,3.4,1.4,3.8s1.1,2.1,0.4,4.2s0.9,4.5,2.1,5.2s1.4,2.2,1.5,3.4
	s1.5,1.5,2.1,1.8s1.8,0.5,1.9,1.2s0.6,3.2,4.2,2.9s8.4-1.5,13.8-2.5s12.8-3.6,13.8-4.2s2.9-0.5,4.4,1s10.5,1.6,13.1,1.1s3,1.5,3,4.7
	s1.2,10.2-4.1,15.1s-6.1,9-6.8,11.8s-7.2,8.2-8.5,8.9s-0.9,3-0.9,4s-2.4,1.1-4.8,1.1s-1.8,1.4-2.6,1.4s-19.1-3.9-23.1-5.2
	s-11-1.4-13.2,1.6s-2.9,9.5,1.4,12.6s19.9,15.1,24.6,17.4s17.9,9.1,21.2,10.2s4.6,5.5,6.2,7.4s7,3.8,7.2,8.6s-0.6,6.5-2.5,9.1
	s-3.2,5.2-5.5,8.4s-11.9,10.6-13.5,13s-3.5,10.2,0.4,12.6s12.4,1.2,18-3.1s12.1-7.5,15.2-11.2s18.9-19.1,20.1-20.2s4.2,0.1,7.8-3.2
	s10.2-9,11.1-10.6s-0.8-3.8-0.8-7.6s0.2-21.9-0.1-24.6s-1.6-4.4-1.4-11.6s0.8-10.2,0.8-12.4s3.4,0.2,7.2,9.5s12.1,24.9,15.1,32.6
	s9.8,22,13.9,24.2s10,7.2,13.5,7.5s7.9-1.6,9-2.2s2-0.4,6.1-0.2c4.1,0.1,9.3-0.8,10.6-1.9s3.5,1.2,7.1,1.6s21.5-2.4,30.6-9.8
	s23.6-16.5,26-26.6s5.6-16.2,8.4-22.2s5.5-14.9,5.1-18.6s-0.5-7.1,1.9-7.5s6.4-8.5,3.8-15.5s-2.5-24.8-3.4-32s-8.2-46.5-13.1-55.4
	s-13.6-21.6-21-26.8s-10.8-5.5-14.4-9.6c-2.1-1.6-9.4-1.1-11-1.2s-3.1-2.1-3.2-5.9s-3.8-4.9-5.4-6.9s-1.8-6.1-1-9.2
	s2.1-21.2-5.8-29.9s-11.2-8.4-13.1-10.4S204.9,1696.5,204.9,1696.5z"/>
</svg>
