<?xml version="1.0" encoding="utf-8"?>
<!-- Generator: Adobe Illustrator 20.1.0, SVG Export Plug-In . SVG Version: 6.00 Build 0)  -->
<svg version="1.1" id="Layer_1" xmlns="http://www.w3.org/2000/svg" xmlns:xlink="http://www.w3.org/1999/xlink" x="0px" y="0px"
	 viewBox="0 0 687 66" style="enable-background:new 0 0 687 66;" xml:space="preserve">
<style type="text/css">
	.st0{fill:#FFFFFF;}
</style>
<g>
	<path class="st0" d="M45.6,45.6c4.3,2.7,7.9,5.5,10.8,8.2c-0.8,2.4-2.2,4.3-4.3,5.6s-5,2.2-8.5,2.7c-1.9,0.3-4,0.5-6.4,0.8
		c-2.4,0.2-4.8,0.5-7.2,0.7s-4.6,0.4-6.7,0.6c-2.1,0.1-3.8,0.2-5,0.2c-5.4,0-9.4-1.5-12.1-4.6C3.6,56.7,2,52,1.6,45.9
		c-0.1-1.7-0.2-3.6-0.3-5.7c-0.1-2.1-0.2-4.3-0.3-6.5s-0.1-4.5-0.2-6.8c0-2.3,0-4.6,0-6.8c0-5.4,1.4-9.8,4.2-13.2s7.1-5.2,12.8-5.5
		c0.7-0.1,1.8-0.1,3.4-0.1s3.4-0.1,5.3-0.1c2-0.1,4-0.1,6.1-0.1s4.1,0,5.9,0c1,0,2,0,2.9,0s1.6,0,2.2,0.1c4.2,0.2,7.5,1.2,9.8,3.1
		c2.3,1.8,3.8,4.2,4.4,7.1c-1.6,3.2-3.2,6.2-5,9.1s-3.5,5.7-5.5,8.4c-0.4-1.1-0.9-2.1-1.4-3.2c-0.5-1-1.1-1.9-1.7-2.6
		c-5.9-0.6-11.6-1-17.1-1.3c-5.6-0.2-11.2-0.4-16.8-0.5c0,5,0.2,9.7,0.5,14.2s0.7,8.9,1.1,13.3c3.4,0.1,6.9,0.2,10.3,0.2
		s6.8,0,10.1,0c1.8,0,3.6,0,5.3,0s3.4,0,5-0.1c0.5-0.5,1.1-1.1,1.5-1.6C44.8,46.8,45.2,46.2,45.6,45.6z"/>
	<path class="st0" d="M96.2,63.4c0.3-3.7,0.7-7.4,1-11.2c0.3-3.7,0.5-7.6,0.7-11.7c-1.4-0.1-2.9-0.1-4.3-0.1c-1.5,0-3,0-4.4,0
		c-1.9,0-3.7,0-5.5,0s-3.6,0.1-5.3,0.1c-0.6,3.9-1.1,7.9-1.4,12.1s-0.7,8.3-1.1,12.2c-1.6,0-3.3-0.1-5.1-0.2
		c-1.8-0.1-3.5-0.4-5.2-0.7c-0.3-9.7-0.8-19.7-1.3-29.9S63,13.3,62.1,2.4c2-0.3,4-0.5,5.9-0.5c1.9-0.1,3.8-0.1,5.8-0.1
		c1.4,0,2.9,0,4.4,0.1S81.3,2,83,2.1c0.1,4.7,0.3,9,0.5,12.9s0.4,7.6,0.6,11.1c3,0.4,5.9,0.7,8.9,0.9s5.9,0.4,8.9,0.6
		c0.3-1.7,0.5-3.7,0.8-5.8c0.2-2.1,0.5-4.3,0.6-6.5c0.2-2.2,0.3-4.5,0.4-6.6c0.1-2.2,0.2-4.2,0.2-6.1c1.9,0.1,4.1,0.2,6.4,0.4
		c2.4,0.2,4.5,0.5,6.4,1c-0.9,10.3-1.9,20.4-3.1,30.1c-1.2,9.8-2.5,19.2-3.9,28.4c-2.4,0.4-4.6,0.7-6.6,0.8
		C100.8,63.4,98.6,63.4,96.2,63.4z"/>
	<path class="st0" d="M120,3.1c2.9-0.2,6.1-0.3,9.5-0.5s7-0.3,10.6-0.4c3.6-0.1,7.3-0.2,11-0.3s7.3-0.1,10.7-0.1
		c6.6,0,11.4,1.7,14.6,5.2c3.1,3.4,4.7,8.8,4.7,16.2c0,2.6-0.2,5.1-0.7,7.7c-0.4,2.5-1.4,4.9-2.8,6.9c-1.4,2.1-3.6,3.8-6.4,5.2
		c-2.8,1.4-6.5,2.1-11.2,2.3c3.1,3,6.1,6.1,9.1,9.3c3,3.3,5.8,6.3,8.3,9c-1.2,0.1-2.5,0.2-3.9,0.2c-1.4,0.1-2.8,0.1-4.3,0.1
		c-2.2,0-4.5-0.1-6.7-0.2s-4.3-0.3-6.2-0.5c-1.8-3.3-3.6-6.5-5.7-9.8c-2-3.3-4.1-6.4-6.3-9.6c-0.9,0.1-1.9,0.2-3,0.3
		s-2.2,0.3-3.4,0.5c-0.1,1-0.1,2.1-0.1,3.1s0,2,0,3.1c0,1.8,0,3.5,0.1,5.3c0.1,1.8,0.2,3.5,0.3,5.3c-2,0.4-4,0.7-6.1,0.9
		c-2.1,0.2-4.3,0.3-6.5,0.5L120,3.1z M133.2,26.7c0.1,1.1,0.1,2.1,0.2,3c0.1,0.9,0.2,1.7,0.4,2.5c4.9,0.3,9.1,0.5,12.5,0.7
		s6.3,0.3,8.6,0.4c2.3,0.1,4.1,0.2,5.4,0.3s2.3,0.1,3,0.2c0.7,0,1.2,0,1.5,0s0.5,0,0.7,0c2.2,0,3.6-0.5,4.3-1.4s1.1-2,1.1-3.2
		c0-1.6-0.4-2.7-1.1-3.2c-0.7-0.6-1.8-0.9-3.2-0.9c-1.3,0-3.2,0-5.8,0.1s-5.4,0.2-8.5,0.4s-6.4,0.3-9.7,0.5
		C139.3,26.3,136.2,26.5,133.2,26.7z"/>
	<path class="st0" d="M189,63.2c0-10.8-0.2-21.4-0.6-31.7c-0.4-10.3-0.9-20.7-1.5-31c5.7,0.1,11.1,0.7,16.3,1.9
		c-0.7,10.2-1.3,20.2-2.1,30c-0.7,9.8-1.5,19.4-2.4,28.8c-1.5,0.5-3,0.9-4.7,1.3S190.8,63.1,189,63.2z"/>
	<path class="st0" d="M260,1c0.7,6.3,0,21-0.6,25.6c-1.6-0.3-28.4-2.3-29.8-2.4c-1.4-0.2-2.5-0.2-3.1-0.2c-1.6,0-2.7,0.4-3.4,1.3
		c-0.7,0.8-1,2.1-1,3.6c0,2.2,0.9,3.3,2.7,3.3c1.3,0,2.7,0,4.4,0s3.4,0,5.2,0s3.6,0,5.3,0s3.3,0,4.7,0c5.2,0,9.1,1.3,11.7,3.8
		c2.5,2.5,3.8,6,3.8,10.6c0,3.2-0.5,6-1.4,8.2s-2.4,4-4.5,5.4s-4.7,2.4-8,3s-7.3,0.9-12,0.9c-2.6,0-5.9-0.1-9.8-0.3
		c-3.9-0.2-8.8-0.5-14.6-0.8c-1-3.3-0.5-11.6,0.1-14.2c1.5,0.2,29,1.5,30.4,1.6s2.4,0.2,3.2,0.2c1,0,1.8-0.3,2.5-1s1-1.8,1-3.5
		c0-1.1-0.3-2-1-2.7s-1.8-1.2-3.3-1.3c-2.3-0.2-4.8-0.3-7.6-0.5s-5.6-0.3-8.5-0.5c-5.9-0.4-10.2-1.9-13.2-4.5
		c-2.9-2.6-4.4-6.6-4.4-12c0-7.2,1.6-12.8,4.8-16.6c3.2-3.9,7.8-5.8,13.6-5.8L260,1z"/>
	<path class="st0" d="M289.2,2.6c2.8-0.3,5.9-0.7,9.1-1c3.3-0.3,6.5-0.6,9.6-0.8c3.2-0.2,6.1-0.4,8.9-0.5s5.1-0.2,7.1-0.2
		c3.2,0,6,0.6,8.2,1.8c2.3,1.2,4.1,2.9,5.5,5.2c1,1.8,1.9,3.9,2.5,6.6c0.7,2.6,1,6.2,1,10.8c0,2.4-0.1,4.5-0.2,6.2s-0.4,3.2-0.7,4.6
		s-0.7,2.4-1.2,3.4c-0.5,0.9-1,1.8-1.7,2.5c-1.3,1.4-2.7,2.6-4.4,3.6c-1.7,1-3.9,1.4-6.6,1.4c-1.8,0-3.6,0-5.4-0.1
		c-1.9-0.1-3.7-0.2-5.5-0.3s-3.6-0.2-5.3-0.4c-1.7-0.1-3.3-0.3-4.8-0.5c-0.3,2.7-0.6,5.5-0.9,8.4c-0.2,2.9-0.4,5.8-0.5,8.8
		c-2.5,0.4-4.9,0.7-7.5,0.8c-2.5,0.2-5,0.3-7.5,0.4V2.6H289.2z M296.7,25.2c-0.1,1.1-0.2,2.2-0.4,3.3c-0.1,1.1-0.2,2.3-0.3,3.4
		c2,0.1,4.3,0.2,6.7,0.4s4.9,0.3,7.3,0.4c2.4,0.1,4.7,0.2,6.8,0.3c2.1,0.1,3.7,0.1,4.9,0.1c1.1,0,2-0.4,2.8-1.2s1.2-2,1.2-3.5
		c0-1.6-0.4-2.7-1.1-3.4s-1.8-1-3.3-1c-1.4,0-3.3,0-5.6,0.1s-4.7,0.2-7.1,0.3s-4.7,0.3-6.9,0.4C299.6,25,297.9,25.1,296.7,25.2z"/>
	<path class="st0" d="M400.2,61.7c-3.2,0.2-5.8-0.1-7.7-0.9c-1.9-0.8-3.5-2.2-4.5-4c-0.5,1-1,1.9-1.7,2.6c-0.6,0.7-1.4,1.3-2.4,1.8
		s-2.2,0.9-3.6,1.1c-1.4,0.3-3.1,0.5-5.1,0.6c-0.3,0-1.5,0.1-3.4,0.1c-2,0-4.3-0.1-6.9-0.3c-2.6-0.2-5.3-0.7-8.1-1.3
		c-2.8-0.7-5.1-1.7-7-3c-3.7-2.6-5.7-6.4-6.1-11.3c-0.4-5.3,0.7-9.5,3.3-12.6c2.6-3.1,6.8-4.9,12.6-5.3c1.5-0.1,3.2-0.2,5-0.2
		s3.7,0,5.6,0.1c2,0.1,3.9,0.2,5.9,0.4s3.9,0.3,5.9,0.5c1.8,0.2,3.3,0.7,4.6,1.6c1.3,0.8,2.3,2,3,3.6c0.1-0.6,0.1-1.2,0.2-1.8
		s0.1-1.2,0.1-1.8c-0.2-2.5-1.1-4.3-2.7-5.4c-1.6-1.1-4.1-1.6-7.3-1.5c-2.2,0.1-4.8,0.1-7.8,0.3c-2.9,0.1-6,0.3-9.3,0.5
		c-2.5,0.2-4.9,0.4-7.2,0.6c-2.4,0.2-4.6,0.5-6.8,0.8c0-0.4-0.1-0.9-0.1-1.3c-0.1-0.4-0.1-0.8-0.1-1.3c-0.2-3.4-0.3-6.8-0.3-10.1
		c0.1-3.4,0.3-6.7,0.6-10c0.9-0.1,1.8-0.1,2.7-0.2c0.9-0.1,1.8-0.2,2.7-0.2c2.3-0.2,4.6-0.3,7-0.4c2.3-0.1,4.6-0.2,6.8-0.3
		c2.2-0.1,4.2-0.1,6.1-0.1s3.6-0.1,5-0.1c5.6-0.1,10,1.4,13,4.3c3,3,4.7,7.7,5.2,14.1c0.2,2.5,0.3,5,0.3,7.6s0,5.2,0,7.8
		s0,5.2,0,7.7s0.1,5,0.2,7.3C398.3,56.1,399,59.5,400.2,61.7z M384.1,47.6c1-0.1,1.7-0.4,2.3-0.9c0.5-0.6,0.8-1.5,0.7-3
		s-0.4-2.5-0.8-3.3s-1.1-1.2-2.1-1.2c-1.7-0.1-13.6-0.9-15.9-0.9c-2.4,0-5.1,0-6.3,0.1c-1.9,0.1-2.7,2-2.4,5.7
		c0.1,1,0.4,1.8,0.9,2.2s1.3,0.7,2.4,0.8c1.2,0.1,3,0.3,5.2,0.4C372.7,47.7,378.7,48,384.1,47.6z"/>
	<path class="st0" d="M402.8,3.1c2.9-0.2,6.1-0.3,9.5-0.5s7-0.3,10.6-0.4c3.6-0.1,7.3-0.2,11-0.3s7.3-0.1,10.7-0.1
		c6.6,0,11.4,1.7,14.6,5.2s4.7,8.8,4.7,16.2c0,2.6-0.2,5.1-0.7,7.7c-0.4,2.5-1.4,4.9-2.8,6.9c-1.4,2.1-3.6,3.8-6.4,5.2
		s-6.5,2.1-11.2,2.3c3.1,3,6.1,6.1,9.1,9.3c3,3.3,5.8,6.3,8.3,9c-1.2,0.1-2.5,0.2-3.9,0.2c-1.4,0.1-2.8,0.1-4.3,0.1
		c-2.2,0-4.5-0.1-6.7-0.2s-4.3-0.3-6.2-0.5c-1.8-3.3-3.6-6.5-5.7-9.8c-2-3.3-4.1-6.4-6.3-9.6c-0.9,0.1-1.9,0.2-3,0.3
		s-2.2,0.3-3.4,0.5c-0.1,1-0.1,2.1-0.1,3.1s0,2,0,3.1c0,1.8,0,3.5,0.1,5.3c0.1,1.8,0.2,3.5,0.3,5.3c-2,0.4-4,0.7-6.2,0.9
		c-2.1,0.2-4.3,0.3-6.5,0.5L402.8,3.1z M416,26.7c0.1,1.1,0.1,2.1,0.2,3s0.2,1.7,0.4,2.5c4.9,0.3,9.1,0.5,12.5,0.7s6.3,0.3,8.6,0.4
		c2.3,0.1,4.1,0.2,5.4,0.3s2.3,0.1,3,0.2c0.7,0,1.2,0,1.5,0s0.5,0,0.7,0c2.2,0,3.6-0.5,4.3-1.4c0.7-0.9,1.1-2,1.1-3.2
		c0-1.6-0.4-2.7-1.1-3.2c-0.7-0.6-1.8-0.9-3.2-0.9c-1.3,0-3.2,0-5.8,0.1c-2.5,0.1-5.4,0.2-8.5,0.4s-6.4,0.3-9.7,0.5
		C422.1,26.3,418.9,26.5,416,26.7z"/>
	<path class="st0" d="M510.2,62.2c0.3-6.2,0.6-12.5,0.9-18.7c0.3-6.3,0.5-12.7,0.6-19.3c-1.4-0.1-2.7-0.1-4.1-0.1s-2.8,0-4.2,0
		c-2.8,0-5.5,0-8.3,0.1c-2.7,0.1-5.4,0.1-8.1,0.2c-0.8,6-1.4,12.2-1.8,18.8s-0.8,13.3-1,20.3c-2.2-0.2-4.4-0.4-6.6-0.7
		c-2.2-0.3-4.3-0.8-6.4-1.4c-0.3-10.2-0.5-20.3-0.8-30.3c-0.2-10-0.6-20.1-1-30.3c7.1,1,11.2,3.7,12.5,8.1c1.4-2.4,3-4.2,4.7-5.3
		s3.6-1.7,5.7-1.8c2.5-0.1,5.1-0.2,7.8-0.2c2.8,0,5.5,0,8.1,0c5.3,0,9.4,1.4,12.2,4.2s4.3,7.1,4.3,12.8c0,7.3-0.1,14.5-0.3,21.8
		s-0.5,14.4-1,21.4c-2.1,0.2-4.3,0.3-6.6,0.3C514.6,62.2,512.4,62.2,510.2,62.2z"/>
	<path class="st0" d="M578.9,62.6c-5.2-0.1-10.6-0.2-16.2-0.3c-5.6-0.1-11-0.6-16.2-1.3c-2.9-0.4-5.4-1.3-7.4-2.9
		c-2-1.5-3.6-3.5-4.9-5.8c-1.3-2.3-2.3-5-2.9-8c-0.7-3-1.1-6-1.4-9.3c-0.5-5.5-0.6-10.2-0.3-14.1s1.2-7.2,2.8-9.8s3.9-4.6,6.9-6
		c3.1-1.4,7.1-2.4,12-2.8c2.2-0.2,4.5-0.4,7-0.4c2.5-0.1,5.1-0.1,8-0.1c5.8-0.1,10.1,1.2,13.1,3.8s4.7,6.9,5.3,12.8
		c0.3,2.8,0.2,5.5-0.1,8.1c-0.3,2.6-1.1,5-2.2,7.1c-1.1,2.1-2.8,3.8-4.9,5.2c-2.1,1.4-4.9,2.3-8.3,2.6c-1.6,0.2-3.4,0.2-5.4,0.2
		s-4,0-6-0.1s-3.9-0.2-5.8-0.3c-1.8-0.1-3.4-0.2-4.6-0.3c0,0.3,0,0.6,0,0.9c0,0.3,0.1,0.6,0.1,0.9c0.2,1.7,0.6,3,1.3,4.1
		c0.7,1,1.8,1.5,3.4,1.5c1.6,0,3.6,0,6-0.1c2.3-0.1,4.8-0.2,7.3-0.3c2.6-0.1,5.1-0.3,7.7-0.5c2.5-0.2,4.8-0.4,6.9-0.6
		c0,2.5-0.1,5.2-0.2,7.9C579.6,57.5,579.3,60.1,578.9,62.6z M541.6,32.5c2.1,0,21.5-0.4,22.8-0.5c1.1-0.1,2-0.5,2.7-1
		c0.6-0.6,0.9-1.5,0.8-2.7c-0.1-1.4-0.4-2.4-0.9-3s-1.1-0.9-2-1c-0.6-0.1-17.8-0.5-18.6-0.4c-1.9,0.2-3.3,0.9-4,2.2
		c-0.8,1.3-1.1,3-0.9,5.1c0,0.2,0.1,0.4,0.1,0.6C541.5,32,541.5,32.2,541.6,32.5z"/>
	<path class="st0" d="M589,65c-1.1-10.7,0.7-52.6,0.5-63.4c3.9,0.1,17.2,0,21,0.5c-0.9,7.7-3.9,40-4.5,48.3c6,0.3,26.7-2.4,29.3-2.9
		c0.8,2.3,0.2,13.7-0.2,16C627.7,64.4,596.8,65.7,589,65z"/>
	<path class="st0" d="M640,65c-1.1-10.7,0.7-52.6,0.5-63.4c3.9,0.1,17.2,0,21,0.5c-0.9,7.7-3.9,40-4.5,48.3c6,0.3,26.7-2.4,29.3-2.9
		c0.8,2.3,0.2,13.7-0.2,16C678.7,64.4,647.8,65.7,640,65z"/>
</g>
</svg>
