<svg xmlns="http://www.w3.org/2000/svg" viewBox="0 0 27.04 23.84"><defs><style>.cls-1{fill:#fff;}</style></defs><title>cp-flash</title><g id="Layer_2" data-name="Layer 2"><g id="cp_phone" data-name="cp phone"><path class="cls-1" d="M5.33,23.17A1,1,0,0,1,4.81,23C2.25,21.49-.3,16.51,0,11.12a12.53,12.53,0,0,1,7.9-11,1,1,0,0,1,.81,1.83A10.46,10.46,0,0,0,2,11.25c-.27,4.42,1.79,8.85,3.82,10.06a1,1,0,0,1-.51,1.86Z"/><path class="cls-1" d="M20,23.84A1,1,0,0,1,19.41,22c3.88-2.78,5.77-6.08,5.62-9.81a12.92,12.92,0,0,0-5.51-9.68,1,1,0,1,1,1-1.72A14.91,14.91,0,0,1,27,12.13c.13,3.06-.89,7.53-6.45,11.52A1,1,0,0,1,20,23.84Z"/></g></g></svg>