<?xml version="1.0" encoding="utf-8"?>
<!-- Generator: Adobe Illustrator 20.1.0, SVG Export Plug-In . SVG Version: 6.00 Build 0)  -->
<svg version="1.1" id="Layer_1" xmlns="http://www.w3.org/2000/svg" xmlns:xlink="http://www.w3.org/1999/xlink" x="0px" y="0px"
	 viewBox="0 0 434 700" style="enable-background:new 0 0 434 700;" xml:space="preserve">
<style type="text/css">
	.st0{fill:#10111F;}
</style>
<path class="st0" d="M402.5,282.5c-0.9-7-6.1-15.9-9.9-25.2c-3.8-9.3-31.8-38.3-40.5-47.3s-13.9-8.5-17.6-5.8
	c-3.8,2.7-26.7,5.7-30.2,6.5c-3.5,0.7-6.7,1.2-8.1-1.5c-14-32.7-17.1-34.5-19.7-37.3c0.8-10.1,2.1-21.3,4.1-25.4
	c8.1-3.8,9-8.1,11.4-28.6s0.4-18.9-1.8-22.5c9.3-32.5,9-45.6-2.3-60.8C276.5,19.4,262.4,21,262.4,21s-0.9-14.3-27.6-19.6
	c-1.7-1.3-69-9.2-94.4,33.8c-0.5,4-4.1,7.2-7.5,13.7c-1.8,6.3,1.1,12.2,4.9,17c-0.2,4.7-3.1,20.1-2.9,21.2c0.2,1.1-9.1,2.6-13.5,6.1
	c-0.7,3-2,7,0.1,7.3s4.9,0.6,5.3,4.5c0.5,1.7,1,1.5,1.8,1.6c0,1.8,3.9,20.9,9.1,23c0.5,5.6,1.2,40.9,20.1,63.4
	c1.5,2.2,6.4,7.3,7.1,10.6c0.8,3.2-2.8,9.7-3.7,11.8c-0.8,2.2-9.9,4-13.2,5s-5.3,6-10.8,7.3c-5.6,1.3-19,1.8-19.7,8
	c-1.9,2.2-12.4,1.6-22.8,5.6c-24.6,9.5-49.1,32-49.1,36.7s-0.7,8.7-4.7,8.7s-5.7,0.7-5.4,3c0.3,2.4,0.3,8.7-3.4,10.1
	c-3.7,1.3-29.3,25.5-32.6,32.3c-3.4,6.7,409.6,16.1,407.6-5.7C405.3,304.5,403.3,288.6,402.5,282.5z M139.4,112
	c-1.2,10.1-1.6,13.9-1.6,13.9s-7-13.3-6.4-19.2c1.2,0.3,1.4-3.7,1.4-3.7C135.1,103.3,140.6,102,139.4,112z"/>
<path class="st0" d="M428.9,619c-2.1-9.7-24.4-42.9-31.3-53.2s-12.1-10.7-16.2-8.7s-27,1-30.6,1.1s-6.8,0-7.7-2.9
	c-8-34.3-9.7-33.6-11.8-36.9c0,0-0.5-6.8,0-8.5s4.8-2,7.5-4s35-36,38-51.7s1-34.3-0.7-38c0.3-3.3,3.7-12,3.3-15.3
	c-0.3-3.3-5.7-13.7-12-17c-6.3-4-20.3-30.7-51-33s-47-2.7-82.7,8.7c-9,6.7-5,19.7-4.3,22s0.8,3.3-1.5,6c-2.2,2.7-9.5,12.3-10.9,15.3
	c-1.3,3-0.7,5.7-3.3,8c-2.7,2.3-7.3,11-9.3,14c-2.3,0.3-9.7-3.7-10.3,13.3c0.3,6.3,0.3,8.7-3,10.8c-3.3,2.2-23.3,11.5-12.3,25.8
	c9.3,6.3,13.3,9.3,9,15c-2.7,4.7-3,6.4-3,7.7c0,1.3-0.3,4.3-0.7,5.3c-0.3,1,1,2.3,1.7,3.3s0.3,3.3,0.7,6c0.3,2.7,2.7,7,0,9.7
	s-6,16.7-0.3,20.7s14.7,7.7,6.7,8.3c-8,0.7-16.9,0.7-17.3,2.3c-0.4,1.7-3.7,2-3.7,2c-3.9-0.9-10.4-0.2-13.8,0
	c-17.2,0.8-52.4,19.1-53.2,23.7c-0.8,4.6-2.2,8.3-6.1,7.7c-7.6-1.1-6.7,6.7-6.8,9c-0.1,2.4-20.2,7.6-24,8.3
	c-3.8,0.7-56.8,28.5-67.4,63.9c-9.9,32.8,430.6,25.3,430.8,11.1c0.3-21.8,2.3-26.1,2.6-32.2l0.2-1.4
	C434.6,638.3,431,628.7,428.9,619z M199.7,440.1c-1.1,4.1-3,5-3.4,4s-0.2-8,0.8-10.5c1.5-3.9,2.9-3.2,3.2-2.2
	C200.7,432.4,200.8,436,199.7,440.1z"/>
</svg>
