<?xml version="1.0" encoding="utf-8"?>
<!-- Generator: Adobe Illustrator 20.1.0, SVG Export Plug-In . SVG Version: 6.00 Build 0)  -->
<svg version="1.1" id="Layer_1" xmlns="http://www.w3.org/2000/svg" xmlns:xlink="http://www.w3.org/1999/xlink" x="0px" y="0px"
	 viewBox="0 0 158 251" style="enable-background:new 0 0 158 251;" xml:space="preserve">
<style type="text/css">
	.st0{fill:#10111F;}
</style>
<path class="st0" d="M0.3,250.1c5-12.6,22.5-44.8,23.9-47.4c1.3-2.7,5.6-6,3-9.6c-1.7-3.6,2.3-7.6,3-11.6s7.6-31.2,8-34.2
	c0.3-3,2.7-1.7,4-1.7s5.6-3,1.7-9.9c-4-7-3.6-39.1-1.3-45.1C44.7,84.6,51.7,75,53,74s6.3-4.6,8.3-13.4s8-13.8,9.6-13.8
	c1.7,0,7.6-0.3,7.3-7c-0.3-6.6,5.3-3.6,9.9-9.9s9-9.6,10.9-13.9c2-4.3,9.9-10.6,15.3-7.3c3.6,2.3,5.3,0,8-4.3s8.3-5.6,13.3-2
	s19.2,12.3,19.2,12.3s5.3,0.3,0,16.6c-5.3,16.2-9.9,29.3-9.9,29.3s-0.7,1.2,2.3,1.5s11.3,8.3,2,15.3S138.9,88,138.9,90
	s-6,4.6-9.3,9.6s-18.2,27.9-19.6,32.5c-1.3,4.6-8.6,26.5-8.3,31.5c0.3,5,5.3,6.5,1,12.3c-2,2.7-2.7,10.3-3.6,15.3c-1,5,0.3,3-1,8.6
	s-4,9.9-7.3,13.6c-3.3,3.6-4.3,18.2-4.3,22.9C85.1,255.4,0.3,250.1,0.3,250.1z"/>
</svg>
