<?xml version="1.0" encoding="utf-8"?>
<!-- Generator: Adobe Illustrator 20.1.0, SVG Export Plug-In . SVG Version: 6.00 Build 0)  -->
<svg version="1.1" id="Layer_1" xmlns="http://www.w3.org/2000/svg" xmlns:xlink="http://www.w3.org/1999/xlink" x="0px" y="0px"
	 viewBox="0 0 502 46" style="enable-background:new 0 0 502 46;" xml:space="preserve">
<style type="text/css">
	.st0{fill:#FFFFFF;}
</style>
<g>
	<path class="st0" d="M26.3,43.3c0.1-2,0.1-3.9,0.2-5.9c0.1-1.9,0.1-3.9,0.1-5.9c0-0.8,0-1.6,0-2.4c0-0.8,0-1.6-0.1-2.4
		c-2.2,0-4.3,0.1-6.5,0.2c-2.2,0.1-4.3,0.3-6.4,0.4c-0.3,2.7-0.5,5.3-0.7,8s-0.3,5.3-0.5,8c-1.1,0-2.2,0-3.2,0
		c-1.1,0-2.2-0.1-3.4-0.3c-0.6-6.6-1.3-13.3-2-20.1C3,16.1,2.1,9,1.2,1.6C3,1.4,4.8,1.3,6.6,1.2c1.8-0.1,3.7-0.1,5.5-0.1
		c0.7,0,1.4,0,2.1,0c0.7,0,1.4,0,2.1,0.1c0.3,3.2,0.5,6.1,0.8,8.7s0.6,5.1,0.8,7.5c2,0.1,4,0.2,6,0.3c2,0,4,0.1,6,0.1
		c0-2.9,0-5.7,0.1-8.5s0.2-5.5,0.4-8c1.3,0,2.6,0,4,0.1c1.3,0.1,2.7,0.2,4,0.5c-0.2,7.1-0.6,14-1,20.7c-0.5,6.7-1,13.2-1.7,19.5
		c-1.6,0.4-3.2,0.7-4.8,0.9C29.4,43.1,27.8,43.2,26.3,43.3z"/>
	<path class="st0" d="M40.2,36.1c1.8,0,3.4,0,4.9,0.1s3.2,0.1,5,0.2c-0.1,1.3-0.2,2.5-0.4,3.7s-0.4,2.3-0.7,3.4
		c-1.6,0-3.1-0.1-4.5-0.1c-1.5,0-3.1-0.1-4.9-0.3L40.2,36.1z"/>
	<path class="st0" d="M68.5,44c-0.2-2.4-0.3-4.9-0.3-7.5c0-0.6,0-1.2,0-1.8s0-1.2,0.1-1.8c3.4,0.3,6.7,0.5,10,0.6s6.5,0.2,9.8,0.2
		c-0.2-5.5-0.5-10.9-0.9-16.4S86.3,6.4,85.6,0.8c2.3,0,4.5,0.1,6.7,0.3c2.1,0.2,4.2,0.4,6.3,0.8c-0.2,2.2-0.4,4.6-0.6,7
		s-0.4,4.8-0.6,7.1c-0.2,2.4-0.4,4.6-0.6,6.9c-0.2,2.2-0.4,4.3-0.5,6.2c0,0.3-0.1,0.9-0.1,1.6c-0.1,0.7-0.1,1.5-0.3,2.4
		c-0.1,0.8-0.2,1.6-0.4,2.4c-0.1,0.7-0.3,1.3-0.4,1.7c-0.8,1.9-1.9,3.3-3.4,4.4c-1.4,1.1-3.2,1.7-5.3,1.8c-2.8,0.1-5.7,0.3-8.8,0.5
		S71.6,44,68.5,44z"/>
	<path class="st0" d="M129.9,43.7c-1.4,0-2.8,0-4.4-0.1c-1.5-0.1-3-0.1-4.5-0.3c-1.5-0.1-2.9-0.2-4.2-0.4c-1.3-0.1-2.5-0.3-3.4-0.4
		c-2.3-0.3-4.3-1-6-2s-3-2.5-4-4.6c-0.7-1.7-1.2-3.4-1.4-5.2s-0.3-3.7-0.3-5.9c0-1.6,0-3.2,0.1-5s0.1-3.6,0.2-5.4
		c0-1.7,0.3-3.3,0.7-4.9c0.4-1.6,1.1-3.1,2-4.3c0.9-1.3,2-2.3,3.4-3.1c1.4-0.8,3-1.2,4.9-1.2c3,0,6,0.1,9.1,0.3
		c3.1,0.2,6.1,0.5,9.2,0.8c7.1,0.8,10.6,4.7,10.6,11.7c0,0.6,0,1.4-0.1,2.5s-0.2,2.4-0.4,3.9c-0.1,1.5-0.3,3.2-0.5,5.2
		c-0.2,1.9-0.4,4-0.6,6.2c-0.4,4.1-1.4,7.2-3.1,9.3C135.5,42.7,133.1,43.7,129.9,43.7z M128.7,17.1c-4.2-0.2-17.9-0.3-18.1,1.2
		c-0.5,3.3-1,12-1,16c2.2,0.8,16.5,1.5,19.2,0.7C129.7,31.3,129.1,20.3,128.7,17.1z"/>
	<path class="st0" d="M173.9,43.3c0.1-4.3,0.3-8.6,0.3-12.9c0.1-4.3,0.1-8.8,0.1-13.2c-2.4-0.2-5.1-0.4-8-0.5s-5.9-0.2-8.8-0.2
		c-0.2,2-0.4,4.2-0.6,6.6c-0.2,2.4-0.3,4.8-0.4,7.3c-0.1,2.5-0.2,5-0.2,7.6c0,2.5-0.1,5-0.1,7.4c-1.6-0.1-3.1-0.2-4.5-0.4
		s-2.9-0.5-4.4-0.9c-0.3-6.9-0.6-13.9-1-20.8s-0.8-13.8-1.2-20.8c2.4,0.3,4.4,0.9,5.9,1.8c1.5,0.9,2.5,2.1,3,3.5
		c0.9-1.6,2-2.9,3.1-3.6c1.2-0.8,2.4-1.2,3.9-1.4c1.4-0.1,3.1-0.3,5-0.3c2-0.1,3.9-0.1,5.7-0.1c3.6,0,6.4,0.9,8.4,2.7s3,4.7,3.1,8.6
		c0,1.9,0.1,3.8,0.1,5.7c0,1.9,0,3.8,0,5.7c0,6-0.1,12-0.3,17.8c-1.5,0.2-3,0.3-4.5,0.4C176.9,43.3,175.4,43.3,173.9,43.3z"/>
	<path class="st0" d="M201.9,43.1c0.1-6.7,0.3-15.4,0.6-22.1S202.3,8.6,203,1.8c6.7,0,25.6,0.7,28.8,0.9c3.1,0.3,5.3,1.2,6.7,2.7
		s2.1,3.8,2.1,6.7s-0.4,5.3-1.3,7.2c-0.9,1.9-2.1,3.3-3.7,4.1c1.3,0.7,2.3,1.6,3.1,2.7s1.1,2.7,1.1,4.7c0,1.6-0.2,3.2-0.7,4.7
		s-1.2,2.9-2.1,4c-1,1.2-2.1,2.1-3.6,2.8c-1.4,0.7-3.1,1.1-5,1.1C223.8,43.4,206.2,43.8,201.9,43.1z M229.8,28.1
		c-3.4-0.2-16.5-0.2-20-0.4c0,1,0.1,4.5,0.2,5.1c0.8,0.1,19.1,0.1,19.3,0.1c0.6,0,1.1-0.2,1.5-0.7c0.4-0.4,0.6-1,0.6-1.8
		c0-0.6-0.1-1.1-0.3-1.5C230.8,28.4,230.4,28.2,229.8,28.1z M210.1,16.9c-0.1,0.5-0.4,4.2-0.5,5.3c2.6,0.3,13.2,0.3,15.8,0.3
		c2.4,0,3.6-0.9,3.6-2.8c0-0.7-0.2-1.3-0.5-1.9c-0.4-0.6-1.1-0.9-2.1-1C225.3,16.8,211.5,16.9,210.1,16.9z"/>
	<path class="st0" d="M256.5,43.3c-1.8-0.3-3.2-0.7-4.5-1.4c-1.2-0.7-2.3-1.5-3.1-2.6s-1.5-2.3-2-3.8c-0.5-1.4-0.9-3.1-1.2-4.8
		c-0.3-1.5-0.5-3-0.7-4.6c-0.2-1.6-0.4-3.1-0.6-4.6c-0.2-1.5-0.3-2.8-0.4-4.1c-0.1-1.2-0.1-2.3-0.1-3.2c0-2.5,0.5-4.5,1.5-6
		s2.6-2.7,4.6-3.6c2.1-0.9,4.6-1.5,7.7-2c3.1-0.4,6.7-0.7,10.9-0.9c4.3,0,7.6,1.1,9.9,3.4s3.4,5.9,3.4,11.1c0,2.6-0.3,4.7-1,6.5
		s-1.6,3.2-2.8,4.2c-1.2,1.1-2.7,1.8-4.4,2.3s-3.7,0.7-5.9,0.7c-1.8,0-3.3,0-4.5,0c-1.3,0-2.4,0-3.3,0s-1.7,0-2.3-0.1
		c-0.6,0-1.1,0-1.5,0c0.1,1.7,0.5,3,1.2,4c0.7,0.9,1.9,1.4,3.6,1.4c0.9,0,2-0.1,3.5-0.2c1.5-0.1,3-0.3,4.7-0.4
		c1.7-0.2,3.4-0.4,5.1-0.6s3.3-0.4,4.7-0.6c0.3,1.6,0.5,3.2,0.6,4.8s0.2,3.2,0.2,5c-1,0.1-2.2,0.2-3.6,0.3s-3.2,0.2-5.5,0.2
		c-2.4,0-4.8,0-7.3-0.1C260.9,43.6,258.6,43.5,256.5,43.3z M253,23.9c1.4,0,3-0.1,4.7-0.2s3.4-0.2,5-0.3c1.6-0.1,3.1-0.2,4.6-0.3
		c1.4-0.1,2.6-0.2,3.4-0.3c0.9-0.1,1.4-0.4,1.7-0.9c0.3-0.5,0.4-1.1,0.4-2c0-1.2-0.3-2-0.9-2.3s-1.4-0.4-2.5-0.4c-0.8,0-1.8,0-3,0.1
		s-2.4,0.1-3.6,0.1c-1.2,0.1-2.4,0.1-3.6,0.2s-2.2,0.1-3.1,0.1c-1.1,0-1.9,0.5-2.4,1.3s-0.8,1.8-0.8,3.1c0,0.3,0,0.6,0,1
		C252.9,23.3,252.9,23.6,253,23.9z"/>
	<path class="st0" d="M312.6,42.7c0.2-4.3,0.4-8.5,0.6-12.8s0.3-8.7,0.4-13.2c-0.9,0-1.9-0.1-2.8-0.1s-1.9,0-2.9,0
		c-1.9,0-3.8,0-5.7,0.1c-1.9,0-3.7,0.1-5.5,0.2c-0.6,4.1-1,8.3-1.3,12.8s-0.5,9.1-0.7,13.9c-1.5-0.1-3-0.3-4.5-0.5s-2.9-0.5-4.4-0.9
		c-0.2-6.9-0.4-13.8-0.5-20.7s-0.4-13.7-0.7-20.7c4.8,0.7,7.7,2.5,8.6,5.5c1-1.6,2-2.8,3.2-3.6s2.5-1.2,3.9-1.3
		c1.7-0.1,3.5-0.1,5.3-0.1c1.9,0,3.7,0,5.5,0c3.6,0,6.4,1,8.3,2.9s2.9,4.8,2.9,8.8c0,5-0.1,9.9-0.2,14.9c-0.2,5-0.4,9.8-0.7,14.6
		c-1.5,0.1-2.9,0.2-4.5,0.2C315.6,42.7,314.1,42.7,312.6,42.7z"/>
	<path class="st0" d="M325.4,44.3c-0.1-1.7-0.2-3.5-0.2-5.4c0-1,0-2,0.1-3.1c0-1.1,0.1-2.1,0.2-3.1c3.4,0.4,6.7,0.7,9.9,0.9
		c3.3,0.2,4.5,0.4,7.8,0.5c0-2.7-1.2-29.4-1.5-32.1c0.9-0.1,12.9,0.3,13.9,0.3c-0.2,2.7-2.2,31.8-2.4,32.8c-0.2,1-0.6,2-0.9,3
		c-0.7,2-1.9,3.5-3.4,4.5s-3.4,1.4-5.5,1.5s-4.3,0.1-6.5,0.2c-2.3,0.1-4.5,0.1-6.9,0.1c-0.7,0-1.5,0-2.3,0
		C326.9,44.4,326.1,44.4,325.4,44.3z"/>
	<path class="st0" d="M398,42.2c-0.4,0.1-0.9,0.1-1.3,0.2c-0.4,0-0.9,0.1-1.2,0.1c-2.8,0-4.7-0.9-5.9-2.7c-0.4,0.9-0.8,1.6-1.4,2.2
		c-0.6,0.6-1.3,1.2-2.2,1.6c-0.9,0.4-2.1,0.7-3.5,0.9s-3.2,0.3-5.2,0.3c-2.6,0-5-0.1-7.3-0.4c-2.2-0.3-4.1-0.9-5.8-1.8
		c-1.6-0.9-2.9-2.1-3.8-3.7c-0.9-1.6-1.4-3.7-1.4-6.3c0-3.2,1-5.7,2.9-7.5s4.9-2.9,8.8-3.2c1.4-0.1,2.9-0.1,4.4-0.2
		c1.6-0.1,3.2-0.1,4.9-0.1c1.1,0,2.1,0,3.1,0s1.9,0.1,2.8,0.3c0.9,0.2,1.6,0.5,2.3,1c0.7,0.4,1.3,1.1,1.7,1.9
		c0.1-0.3,0.1-0.7,0.1-1.1s0-0.7,0-1c0-1.7-0.5-3-1.5-3.8s-2.5-1.2-4.4-1.2c-1.2,0-2.8,0.1-4.7,0.2c-1.9,0.1-4,0.3-6.2,0.6
		c-2.2,0.2-4.4,0.5-6.7,0.9c-2.2,0.4-4.2,0.7-6,1.1c-0.3-1.9-0.5-3.7-0.6-5.6s-0.2-3.8-0.2-5.7c0-1.4,0.1-2.8,0.2-4.2
		c1.6-0.3,3.4-0.6,5.5-0.9c2-0.3,4.1-0.5,6.2-0.8c2.1-0.2,4.2-0.4,6.2-0.5s3.8-0.2,5.3-0.2c3.6,0,6.5,1.2,8.5,3.6
		c2.1,2.4,3.2,6,3.5,10.8c0.1,2.6,0.3,5.2,0.4,7.9s0.3,5.2,0.4,7.8c0.1,2.4,0.4,4.3,0.7,5.9C397,40,397.4,41.3,398,42.2z
		 M386.4,33.8c0.7-0.1,1.2-0.3,1.5-0.8s0.4-1.2,0.4-2.1c0-1.4-0.3-2.3-1-2.7s-1.5-0.6-2.5-0.6c-3.8,0-6.9,0-9.4,0.1
		s-4.2,0.1-5.2,0.2c-1,0.1-1.7,0.4-2.1,0.9c-0.3,0.5-0.5,1.2-0.5,2.1c0,1.3,0.3,2.2,0.9,2.6c0.6,0.4,1.7,0.6,3.2,0.6s2.9,0,4.2,0
		c1.3,0,2.5,0,3.7-0.1c1.2,0,2.3-0.1,3.4-0.1C384.2,34,385.3,33.9,386.4,33.8z"/>
	<path class="st0" d="M445.1,43.7c-2.1,0-4.1-0.1-6-0.2c-2-0.1-4-0.2-6-0.4c0.1-2.4,0.1-4.7,0.2-7s0.1-4.7,0.1-7.1
		c0-2.3,0-4.6-0.1-6.8c-0.1-2.3-0.2-4.6-0.4-6.9c-1.6,0-3.3,0.1-4.8,0.2s-3.2,0.3-4.8,0.6c-0.4,4.4-0.7,8.9-0.8,13.4
		c-0.1,4.5-0.2,9.1-0.3,13.7c-1.1,0-2.3,0-3.4-0.1s-2.3-0.1-3.3-0.2c-0.1-3-0.2-6-0.3-9c-0.1-3-0.1-6-0.1-9.1c0-1.6,0-3.3,0.1-4.9
		s0.1-3.3,0.2-5c-1.6,0-3.1,0.1-4.5,0.2s-3,0.3-4.6,0.6c0,1,0.1,2,0.1,3s0,2,0,3c0,3.6-0.1,7.1-0.2,10.5s-0.3,6.8-0.5,10.2
		c-0.8,0.2-1.6,0.3-2.4,0.4s-1.7,0.2-2.5,0.3c-0.2-7.1-0.4-14-0.7-20.9c-0.3-6.9-0.6-13.7-1.1-20.5c4.3,0.1,7.2,1.7,8.6,4.8
		c0.4-1.6,1.2-2.9,2.4-3.9c1.2-1,3-1.6,5.1-1.7c1.1,0,2.4-0.1,4-0.1s3.3-0.1,5.2-0.1c1.8,0,3.7,0,5.5-0.1c1.9,0,3.6,0,5.2,0
		c3.5,0,6.2,1.1,8,3.2s2.8,5.3,2.8,9.5c0,5.1,0,10.2-0.1,15.4C445.5,33.9,445.3,38.9,445.1,43.7z"/>
	<path class="st0" d="M449.2,43.1c0.2-3.8,0.3-7.6,0.4-11.3s0.1-7.3,0.1-10.9c0-3.4,0-6.8-0.1-10.1c0-3.3-0.1-6.7-0.1-10.2
		c1.9,0,3.8,0,5.7,0.1c1.8,0.1,3.6,0.4,5.3,0.9c-0.4,3.4-0.8,7-1.2,10.6c-0.4,3.6-0.9,7.2-1.3,10.8s-0.9,7.2-1.4,10.6
		c-0.5,3.5-1,6.8-1.4,9.9c-1,0-2.1-0.1-3.2-0.2C451.1,43.4,450.1,43.3,449.2,43.1z"/>
	<path class="st0" d="M491.1,43.3c0.1-4.3,0.3-8.6,0.3-12.9c0.1-4.3,0.1-8.8,0.1-13.2c-2.4-0.2-5.1-0.4-8-0.5s-5.9-0.2-8.8-0.2
		c-0.2,2-0.4,4.2-0.6,6.6s-0.3,4.8-0.4,7.3s-0.2,5-0.2,7.6c0,2.5-0.1,5-0.1,7.4c-1.6-0.1-3.1-0.2-4.5-0.4s-2.9-0.5-4.4-0.9
		c-0.3-6.9-0.6-13.9-1-20.8s-0.8-13.8-1.2-20.8c2.4,0.3,4.4,0.9,5.9,1.8c1.5,0.9,2.5,2.1,3,3.5c0.9-1.6,2-2.9,3.1-3.6
		c1.2-0.8,2.4-1.2,3.9-1.4c1.4-0.1,3.1-0.3,5-0.3c2-0.1,3.9-0.1,5.7-0.1c3.6,0,6.4,0.9,8.4,2.7s3,4.7,3.1,8.6c0,1.9,0.1,3.8,0.1,5.7
		c0,1.9,0,3.8,0,5.7c0,6-0.1,12-0.3,17.8c-1.5,0.2-3,0.3-4.5,0.4C494.1,43.3,492.6,43.3,491.1,43.3z"/>
</g>
</svg>
