<?xml version="1.0" encoding="utf-8"?>
<!-- Generator: Adobe Illustrator 20.1.0, SVG Export Plug-In . SVG Version: 6.00 Build 0)  -->
<svg version="1.1" id="Layer_1" xmlns="http://www.w3.org/2000/svg" xmlns:xlink="http://www.w3.org/1999/xlink" x="0px" y="0px"
	 viewBox="0 0 246 520" style="enable-background:new 0 0 246 520;" xml:space="preserve">
<style type="text/css">
	.st0{fill:#F446FF;}
	.st1{fill:#2A1550;}
</style>
<g>
	<path class="st0" d="M160.8,51.1l-32.9,36.2l20.2-4.2l-30.5,43.7h7.5l-4.7,11.8l10.3-2.4l-10.3,28.2l11.7-5.2l-17.4,36.2l14.6,0.9
		l-2.8,61.3c-20.1-27.7-52.3-54.3-71.5-76.5C35.9,158.8,25.8,145.2,9.7,117C-6.4,88.9-5.4,40,56,9.4c61.4-30.7,70.4,58.9,70.4,58.9
		s16-88.8,65.4-62.3l-44.7,43.7L160.8,51.1z"/>
	<path class="st1" d="M177.7,45l-33.8,33.8l30.1-6.1l-44.1,45.1h6.1l-5.6,11.5l12.7-3.5l-11.7,26.8l16-6.6l-23.9,41.8l17.3,5.6
		l-14.1,64.1l2.8-61.3l-14.6-0.9l17.4-36.2l-11.7,5.2l10.3-28.2l-10.3,2.4l4.7-11.8h-7.5L148.1,83l-20.2,4.2L160.8,51l-13.6-1.4
		l44.7-43.7c1.6,0.9,3.3,1.9,5,3c2.7,1.8,5.3,3.6,7.7,5.4l-38.2,26.8L177.7,45z"/>
</g>
<path class="st0" d="M229.8,387.6c-27.2,40.8-56.9,69.9-56.9,69.9s-40.5,45.8-46.8,59.9l2.8-61.2l-14.6-0.9l17.4-36.2l-11.7,5.2
	l10.3-28.2l-10.3,2.4l4.7-11.8h-7.5l30.5-43.7l-20.2,4.2l32.9-36.2l-13.6-1.4l44.7-43.7c1.6,0.9,3.3,1.9,5,3
	c2.7,1.8,5.3,3.6,7.7,5.4C250.6,308.8,255.6,348.9,229.8,387.6z"/>
</svg>
