<?xml version="1.0" encoding="utf-8"?>
<!-- Generator: Adobe Illustrator 20.1.0, SVG Export Plug-In . SVG Version: 6.00 Build 0)  -->
<svg version="1.1" id="Layer_1" xmlns="http://www.w3.org/2000/svg" xmlns:xlink="http://www.w3.org/1999/xlink" x="0px" y="0px"
	 viewBox="0 0 396 1000" style="enable-background:new 0 0 396 1000;" xml:space="preserve">
<style type="text/css">
	.st0{fill:#010101;}
</style>
<path class="st0" d="M309.4,496.7c-7-29-31-48-25.5-47.5s89,9,103.5-12c14.5-37,6.5-63.5,5-73c-12-60.5-50.5-86-52-95.5
	c-9-43-23.5-45-30.5-59c-38.5-44.5-114.5-21-118-19.5s-4.5-8.5-4.5-10s10-17-3-21c-3.5-2.5-4.5-17.5-6-21c3.5-3.5,17-18,12-41
	c1-6.5,9.5-49-3.5-68.5c-12-12.5-20-21-39.5-25.5s-34-1-39,0s-40,13-44.5,14s-15,4-13.5,12c-2.5,5-9.5,3.5-9,12.5s-1,30.5-4.5,38.5
	s-4,18.5,0,24.5s4,9.5,2,13.5s0.5,14.5,2.5,19s5.5,15,5.5,22.5s10,26,11.5,33.5s9,8,13.5,8s-2,7-2.5,11s-1.5,9.5,5.5,12.5
	s5.5,5,1,9.5s-1,7,0,10s-4.5,7.5-10,12c-5.5,4.5-10,10.5-12,12.5s-22.5,7.7-29.5,14.5c-8.5,8.3-19.5,23-14,52.5
	c3.5,14.5-1.5,21-1.3,30.5c0.3,9.5-4.7,17.5-3.7,22.5s-12.3,26-0.1,61s14.1,39,16.6,42S243.4,504.2,309.4,496.7z"/>
<path class="st0" d="M223,973.8c6-30.7,13.3-66.7,13.3-69.3s14.7-6.7,26.7-19.3s22-24.7,26.7-34.7s2-19.3-22.7-28.7
	c-24.7-9.3-26-20-32-28s-14-16.7-23.3-24c-9.3-7.3-17.3-18.7-17.3-19.3c0-0.7-12-5.3-20.7-7.3c-8.7-2-16.7-4.7-24-14.7
	c-7.3-10-11.3-18-12.7-30c-1.3-12-2-47.3-3.3-56.7c2-9.3,10.7-23.3-4-36c-5.3-4.7-6.7-14-6-19.3c-3.3-5.3-12.7-22-22-18
	s-31.3,9.3-43.3,13.3s-32,15.3-39.3,29.3s-12.7,22.7-16.7,26s-2.7,11.3,3.3,18s8,13.3,25.3,2.7s19.3-8.7,28-16.7s9.3-9.3,9.3,4.7
	s5.3,23.3,7.3,30.7s4,21.3,2.7,32.7c-1.3,11.3,4,14.7,6.7,19.3c2.7,4.7,5.3,15.3,12.7,22s12.7,10,15.3,16.7s2,6-2,8s0,7.3-2.7,10.7
	c-2.7,3.3-7.3,12-4,20c3.3,8,2,14,4,26.7s5.3,27.3,6,34.7c0.7,7.3,2.7,20.7,6,27.3c3.3,6.7,8.7,22,13.3,26.7
	c4.7,4.7,10.7,3.3,15.3,3.3c4.7,0,6-0.7,8.7-2.7c2.7-2,0.7-6,0-7.3c-0.7-1.3-1.8-4-1.8-6s-2.8-10.8-6.8-15.8s-5-6.7-6.2-7.2
	c-1.2-0.5-1.2-7.5-2-14.3c-0.8-6.8-6.5-31.8-6-41c0.5-9.2-0.3-16.2-0.3-20.8c0-4.7,6.2-8.2,6.5,2.2c0.3,10.3,3.5,20,7.3,26.7
	c3.8,6.7,9.7,21.8,14.8,27.8s9.3,10,13.3,12.8c4,2.8,2.5,9.8,2.5,14.3s3.8,4.5,1,8.7c-2.8,4.2,0.7,8.5,2,10.3c1.3,1.8,2,5.2-0.2,7.8
	c-2.2,2.7-1.8,44.8-1,50.2C181.6,975.5,223,973.8,223,973.8z"/>
</svg>
