<?xml version="1.0" encoding="utf-8"?>
<!-- Generator: Adobe Illustrator 20.1.0, SVG Export Plug-In . SVG Version: 6.00 Build 0)  -->
<svg version="1.1" id="Layer_1" xmlns="http://www.w3.org/2000/svg" xmlns:xlink="http://www.w3.org/1999/xlink" x="0px" y="0px"
	 viewBox="0 0 1027 569" style="enable-background:new 0 0 1027 569;" xml:space="preserve">
<style type="text/css">
	.st0{fill:#010101;}
</style>
<path class="st0" d="M969.5,336.5c-8-42-59.5-96-62-100c-3-13-7-11-11.5-10.5c0-4.5,5-28,8.5-34c54-101.5,3.5-148.5,0-150.5
	c-15-38-55.5-40-55.5-40c-68-7-118.5,21.5-125,26c-4,2-24,3.5-35.5,17S698,70.5,700,72c0,0-6.5,17-5.5,20.5s-5.5,19.5-7,23.5
	s-2.5,20,5.5,25.5c1.5,3.5,3,7.5-5,16.5c-1.5,5.5-7.5,14.5-10.5,17.5s-9,25,11,26.5c4,1,6.5,3.5,6,12c-0.5,3-3,9,1,12
	c2.5,1,2,2,0.5,3.5s-2,10,5.5,10.5s9,9,6,15.5c-0.5,6.5,7.5,30,30.5,23c4-1.5,18.5-5.5,18.5-5.5s2.5,3.1,3,6.8
	c0.5,3.7,0,5.2-8.5,5.2s-85,0.5-109,5.5c-5.5-0.5-81.5-1.5-126.5,8c-6-3.5-9.5-8.5-29-8.5s-94,1.5-102.5-2c-7-1-12.5,4-15,4
	s-74-9.5-89-10c-10.6-0.3-40.5-7-54.3-7.6c0,0-2.6,5-3.2,6.1c-3.5-11.8-26-23.2-37.5-39.5c3.5-2,0-10-4.5-18
	c-2.5-4.5,3.5-22-19-24.5c-4-1-6-4.5-10.5-4.5s-7.5-0.5-8,4.5c-4,0-132-0.5-132-0.5s-2.5,2.5-4.5,5.5s-6,2-6,17.5
	c0,1.5,0.5,3.5,4.5,5c1.5,2,2.5,4,6.5,6.5s9,3,11.5,6.5s6,4.5,11.5,6s7.8,0.2,17.5,7.5s0.9,16.1,11.3,24.1
	c4.1,3.1,11.9,4.8,19.7,5.4c6,0.4,12.1-0.7,16.5,2.6c2.8,2.1-0.2,6.9,2.7,9.6c3,2.8,3.3,5.5,3.7,8.8c0.9,7.8,2.5,8,4.9,11.5
	c3.5,4.8,2.1,6.7,5,11.2c5.2,8.1,10.7,7.4,24.3,6.6c29,13.2,49.7,12.8,57.2,17.8c-3.8,11.9,4.2,12,7.4,16
	c-0.1,9.4,2.9,17.4,6.4,21.9c12.1,5.7,38,8.4,41,9c13.5,2.5,59.5,10,69,10s93,17.5,112,20s50.5,5,62,3s41,3.5,62,6.5s58,6.5,68,10
	s18,2.5,25.5,2.5s21,2.5,25,3.5s18.5,0.5,27.5,0s26,0.6,26,0.6s-10.3,44.4-16.5,66.4c-27.5,97,312,19.5,313.5,17
	S977.5,378.5,969.5,336.5z M102.5,269.2c-0.8,1.9-0.8,1.5-2,2.5s-10.2,2.5-15.2,2.5c-23-0.5-18-15.5-18-15.5
	c0.3-1.5,13.9-1.4,15.4-0.8c-11.5-0.3-8,7.4-7.1,8.2c1.1,1.1,3.7,1.8,4.7,2c-0.1,0.7-0.7,1-2.2,1.2c-2.8,0.3-2,3.5,2,2.8
	s3.4-0.2,6-1.5C89.9,271.2,100.4,269.9,102.5,269.2z"/>
</svg>
