<?xml version="1.0" encoding="utf-8"?>
<!-- Generator: Adobe Illustrator 20.1.0, SVG Export Plug-In . SVG Version: 6.00 Build 0)  -->
<svg version="1.1" id="Layer_1" xmlns="http://www.w3.org/2000/svg" xmlns:xlink="http://www.w3.org/1999/xlink" x="0px" y="0px"
	 viewBox="0 0 332 165" style="enable-background:new 0 0 332 165;" xml:space="preserve">
<style type="text/css">
	.st0{fill:#FFFFFF;}
</style>
<g>
	<path class="st0" d="M1.4,65.2C1.2,62.1,1,58.9,1,55.5c0-0.8,0-1.5,0-2.3c0-0.8,0-1.6,0.1-2.4c4.4,0.4,8.7,0.7,12.9,0.8
		c4.2,0.2,8.4,0.3,12.6,0.3c-0.2-7-0.6-14-1.2-21c-0.5-7-1.2-14.1-2-21.2c3,0,5.8,0.2,8.6,0.4c2.8,0.2,5.5,0.5,8.1,1
		c-0.2,2.9-0.5,5.9-0.8,9c-0.3,3.1-0.5,6.2-0.8,9.2c-0.2,3-0.5,6-0.7,8.8c-0.2,2.9-0.5,5.5-0.6,8c0,0.4-0.1,1.1-0.2,2.1
		c-0.1,1-0.2,2-0.3,3c-0.1,1.1-0.3,2.1-0.5,3c-0.2,1-0.4,1.7-0.6,2.2c-1.1,2.4-2.5,4.3-4.3,5.7c-1.8,1.4-4.1,2.1-6.8,2.3
		c-3.6,0.2-7.3,0.4-11.3,0.6S5.3,65.2,1.4,65.2z"/>
	<path class="st0" d="M87.7,63.9c-4.5,0-9.3-0.1-14.2-0.2s-9.7-0.4-14.2-1c-2.6-0.3-4.7-1.1-6.5-2.5c-1.7-1.3-3.2-3-4.3-5.1
		s-2-4.4-2.6-7c-0.6-2.6-1-5.3-1.3-8.1c-0.5-4.8-0.6-9-0.4-12.4c0.2-3.4,1-6.3,2.4-8.6c1.4-2.3,3.4-4.1,6-5.4
		c2.7-1.3,6.2-2.1,10.5-2.5c1.9-0.2,3.9-0.3,6.1-0.4c2.2-0.1,4.5-0.2,7-0.2c5.1-0.1,8.9,1,11.5,3.3c2.6,2.3,4.2,6,4.7,11.2
		c0.2,2.4,0.2,4.8,0,7.1c-0.3,2.3-0.9,4.4-1.9,6.2c-1,1.8-2.4,3.4-4.3,4.6c-1.9,1.3-4.3,2-7.3,2.3c-1.4,0.1-3,0.2-4.8,0.2
		c-1.7,0-3.5,0-5.3,0c-1.8,0-3.4-0.1-5.1-0.2c-1.6-0.1-3-0.2-4.1-0.2c0,0.2,0,0.5,0,0.8c0,0.3,0.1,0.5,0.1,0.8
		c0.1,1.5,0.5,2.7,1.2,3.6c0.6,0.9,1.6,1.3,3,1.3c1.4,0,3.2,0,5.2-0.1c2-0.1,4.2-0.2,6.4-0.3c2.3-0.1,4.5-0.3,6.7-0.5
		c2.2-0.2,4.2-0.4,6.1-0.5c0,2.2-0.1,4.5-0.2,7C88.3,59.5,88.1,61.7,87.7,63.9z M54.7,37.7c1.8,0,3.9-0.1,6.3-0.1
		c2.4,0,4.7-0.1,7-0.1c2.3,0,4.5-0.1,6.5-0.1c2-0.1,3.5-0.1,4.6-0.3c1-0.1,1.8-0.4,2.3-0.9c0.6-0.5,0.8-1.3,0.7-2.4
		c-0.1-1.2-0.4-2.1-0.8-2.6c-0.4-0.5-1-0.8-1.8-0.8c-0.5,0-1.3-0.1-2.3-0.1c-1,0-2.2-0.1-3.5-0.1c-1.3,0-2.7-0.1-4.2-0.1
		c-1.5,0-2.9-0.1-4.3,0c-1.4,0-2.6,0-3.8,0.1c-1.1,0-2,0.1-2.7,0.1c-1.7,0.2-2.8,0.8-3.5,1.9c-0.7,1.1-0.9,2.6-0.7,4.5
		c0,0.2,0,0.4,0.1,0.5C54.7,37.3,54.7,37.5,54.7,37.7z"/>
	<path class="st0" d="M198.4,63.7c0.2-4.9,0.4-9.8,0.5-14.5c0.1-4.7,0.1-9.4,0.1-14c0-4.4,0-8.7-0.1-13c0-4.3-0.1-8.7-0.1-13.1
		c2.5,0,4.9,0.1,7.3,0.2c2.4,0.1,4.7,0.5,6.9,1.2c-0.5,4.4-1,9-1.5,13.6c-0.6,4.7-1.1,9.3-1.7,13.9c-0.6,4.6-1.2,9.2-1.8,13.7
		c-0.6,4.5-1.2,8.7-1.8,12.8c-1.3,0-2.7-0.1-4.1-0.2C200.7,64.1,199.5,64,198.4,63.7z"/>
	<path class="st0" d="M256.8,48.1c2,1.1,3.8,2.2,5.4,3.3c1.6,1.1,3.1,2.2,4.5,3.3c-0.3,1.1-0.7,2-1.2,2.9c-0.5,0.9-1.1,1.7-1.9,2.4
		c-0.8,0.7-1.9,1.4-3.2,1.9c-1.3,0.6-3,1.1-5,1.6c-1.7,0.4-3.8,0.8-6.1,1.2c-2.4,0.4-4.7,0.7-6.9,1c-2.3,0.3-4.3,0.5-6.2,0.7
		c-1.8,0.2-3.2,0.3-3.9,0.3c-4.4,0-7.7-1.3-9.9-3.9c-2.3-2.6-3.7-6.5-4.4-11.7c-0.2-1.5-0.4-3.2-0.5-5.1c-0.2-1.9-0.3-3.9-0.5-6
		c-0.2-2.1-0.3-4.2-0.4-6.3c-0.1-2.1-0.2-4.1-0.3-6c0-0.2,0-0.5,0-0.6c0-0.2,0-0.4,0-0.6c0-4.5,1.2-8.1,3.5-10.9
		c2.3-2.8,5.9-4.4,10.7-4.9c0.8,0,2.2-0.2,4.2-0.3c2-0.2,4.2-0.3,6.6-0.5c2.4-0.2,4.6-0.3,6.8-0.4c2.2-0.1,3.9-0.2,5.1-0.2
		c1.8,0,3.5,0.3,5,0.8c1.5,0.5,2.9,1.2,4,2.2c1.2,0.9,2.1,1.9,2.9,3.1c0.8,1.2,1.3,2.3,1.7,3.5c-1.2,2.9-2.7,5.5-4.4,7.7
		c-1.7,2.3-3.4,4.3-5.2,6.1c-0.4-1-0.8-1.8-1.1-2.4c-0.4-0.6-0.8-1.2-1.4-1.8c-2.6-0.1-5.1-0.2-7.5-0.3c-2.4-0.1-4.8-0.1-7.1-0.1
		c-2.4,0-4.8,0-7.2,0.1c-2.4,0-4.8,0.1-7.2,0.1c0.2,4.4,0.8,14.2,2.6,23.1c7.9,0.9,21.6,0.9,26.2,0.5c0.4-0.4,0.8-1,1.3-1.8
		S256.4,48.6,256.8,48.1z"/>
	<path class="st0" d="M320.3,64c-0.3,0-0.7,0.1-1,0.1c-0.3,0-0.7,0-1.1,0c-4.3,0-7.1-1.3-8.6-4c-0.5,1-1,1.8-1.7,2.5
		c-0.6,0.7-1.4,1.3-2.4,1.7s-2.1,0.8-3.5,1c-1.4,0.2-3,0.3-5,0.3c-1.2,0-2.7-0.1-4.5-0.2c-1.8-0.1-3.7-0.3-5.7-0.7
		c-2-0.3-3.9-0.8-5.9-1.4c-1.9-0.6-3.6-1.4-4.9-2.4c-3.5-2.4-5.2-6.2-5.2-11.2c0-4.5,1.3-8,3.9-10.5c2.6-2.5,6.6-3.7,12-3.7
		c2.6,0,5.5,0,8.7,0.1c3.1,0.1,6.3,0.3,9.3,0.7c1.5,0.2,2.9,0.6,4,1.3c1.1,0.7,2,1.7,2.6,3.1c0.1-0.9,0.2-1.8,0.2-2.7
		c0-2.4-0.7-4-2-4.8c-1.3-0.9-3.5-1.3-6.4-1.3c-1.7,0-3.8,0-6.2,0.1c-2.4,0.1-5,0.2-7.6,0.4s-5.3,0.3-8,0.6
		c-2.7,0.2-5.1,0.5-7.3,0.8c-0.1-1.4-0.2-2.8-0.2-4.2c0-1.4-0.1-2.8-0.1-4.2c0-2,0.1-3.9,0.2-5.8c0.1-1.9,0.3-3.8,0.5-5.8
		c2.3-0.2,4.8-0.4,7.5-0.5c2.7-0.1,5.3-0.3,7.9-0.4c2.6-0.1,5-0.2,7.3-0.2c2.3,0,4.2-0.1,5.7-0.1c5.4,0,9.3,1.5,11.9,4.4
		c2.6,3,3.9,7.7,3.9,14.1c0,3.4,0,6.7-0.1,10.2c0,3.4-0.1,6.8-0.1,10.1c0,3.1,0.1,5.6,0.4,7.6C319.1,61.1,319.6,62.7,320.3,64z
		 M309.1,52c0.9,0,1.5-0.3,1.9-0.8c0.4-0.5,0.6-1.4,0.6-2.7c0-1.2-0.2-2.2-0.5-2.8c-0.4-0.6-1-1-1.9-1.1c-1.4-0.1-3.2-0.3-5.2-0.4
		c-2-0.1-4-0.2-6.1-0.3c-2-0.1-4-0.2-5.8-0.3c-1.8-0.1-3.2-0.1-4.3-0.1c-1.5,0-2.2,1.5-2.2,4.5c0,1.9,1,3,3,3.1
		c1.1,0.1,2.5,0.2,4.1,0.3c1.6,0.1,3.4,0.2,5.2,0.3c1.8,0.1,3.7,0.1,5.7,0.2C305.5,52,307.4,52,309.1,52z"/>
	<path class="st0" d="M58.4,100.4c1.4,5.6,2.7,11.3,3.8,17.1c1.1,5.8,2.2,11.7,3.1,17.7c3.3-11.3,5.8-22.2,7.6-32.7
		c1.9-0.4,3.8-0.7,5.7-0.9c1.9-0.2,3.9-0.3,5.9-0.4c-2.2,9.7-4.6,19-7.3,27.7c-2.6,8.7-5.5,17.3-8.5,25.6c-2.1-0.1-4.2-0.4-6.2-0.8
		c-2-0.4-4.1-0.9-6.3-1.5c-1-4.4-2.1-8.7-3.2-13c-1.1-4.3-2.4-8.4-3.8-12.5c-2,3.8-4,7.9-6,12.2c-2,4.4-3.9,9-5.8,13.8
		c-0.7,0-1.5,0-2.4,0c-0.9,0-1.8-0.1-2.7-0.1c-0.9,0-1.9-0.1-2.8-0.2c-0.9-0.1-1.8-0.2-2.6-0.4c-4-8.6-7.9-17.3-11.5-26.1
		c-3.6-8.8-7.2-17.7-10.8-26.7l19.4,0.9c1.1,6.1,2.4,11.9,3.8,17.4c1.4,5.5,3,10.9,4.7,16.3c1.1-5.5,2.1-11.1,3-16.7
		c0.9-5.6,1.7-11.5,2.4-17.6L58.4,100.4z"/>
	<path class="st0" d="M137.3,151.8c-2.8,0.3-5.1,0.1-6.8-0.6c-1.7-0.7-3.1-1.8-4-3.4c-0.4,0.9-0.9,1.7-1.4,2.3
		c-0.5,0.7-1.2,1.2-2.1,1.6c-0.9,0.4-1.9,0.8-3.1,1.1c-1.2,0.3-2.7,0.5-4.5,0.6c-0.3,0-1.3,0.1-3,0.1c-1.7,0.1-3.7,0-6-0.1
		c-2.3-0.1-4.7-0.5-7.1-1c-2.4-0.5-4.5-1.4-6.2-2.5c-3.3-2.2-5.1-5.5-5.5-9.8c-0.4-4.6,0.5-8.3,2.7-11.1c2.2-2.8,5.9-4.4,10.9-4.9
		c1.3-0.1,2.8-0.2,4.4-0.3c1.6-0.1,3.2-0.1,5,0c1.7,0,3.4,0.1,5.2,0.2c1.7,0.1,3.5,0.2,5.2,0.3c1.6,0.1,2.9,0.6,4.1,1.3
		c1.2,0.7,2.1,1.7,2.7,3.1c0-0.5,0.1-1.1,0.2-1.6c0.1-0.5,0.1-1.1,0-1.6c-0.2-2.2-1-3.8-2.5-4.7c-1.5-0.9-3.6-1.3-6.4-1.2
		c-2,0.1-4.2,0.2-6.8,0.4c-2.6,0.2-5.3,0.4-8.1,0.6c-2.2,0.2-4.3,0.4-6.3,0.7c-2.1,0.2-4.1,0.5-6,0.8c0-0.4-0.1-0.8-0.1-1.1
		c-0.1-0.4-0.1-0.7-0.1-1.1c-0.3-3-0.4-5.9-0.4-8.9c0-3,0.1-5.9,0.4-8.8c0.8-0.1,1.6-0.2,2.4-0.3c0.8-0.1,1.6-0.2,2.4-0.3
		c2-0.2,4-0.4,6.1-0.5c2.1-0.1,4-0.3,5.9-0.4c1.9-0.1,3.7-0.2,5.3-0.2c1.7-0.1,3.1-0.1,4.4-0.2c4.9-0.2,8.8,1,11.5,3.6
		c2.7,2.5,4.3,6.6,4.8,12.3c0.2,2.2,0.3,4.4,0.4,6.7c0,2.3,0.1,4.6,0.1,6.9c0,2.3,0.1,4.5,0.1,6.8c0,2.2,0.2,4.4,0.3,6.4
		C135.5,147,136.2,150,137.3,151.8z M122.9,139.8c0.9-0.1,1.5-0.4,2-0.9c0.5-0.5,0.6-1.4,0.5-2.6s-0.4-2.2-0.7-2.9
		c-0.4-0.7-1-0.9-1.9-1c-2.9-0.4-9.3-0.6-14.3-0.4c-2.1,0.1-3.6,0-4.7,0.1c-1.6,0.2-2.3,1.8-2,5c0.1,0.9,0.4,1.5,0.8,1.9
		c0.5,0.4,1.2,0.5,2.2,0.6C109.7,140.5,121.4,139.9,122.9,139.8z"/>
	<path class="st0" d="M193.1,153.9c-0.4-6-0.7-11.9-0.8-17.8c-0.2-5.9-0.3-11.8-0.4-17.7c-2.3,0.1-4.5,0.2-6.8,0.4
		c-2.3,0.2-4.5,0.4-6.5,0.8c-1.2-6-1.9-12.5-2.2-19.7c7.4-0.7,14.9-1.1,22.3-1.3c7.4-0.2,14.8-0.3,22.3-0.3
		c-0.2,3.9-0.4,7.6-0.7,11.1c-0.3,3.5-0.7,6.8-1.4,9.9c-1.2-0.1-2.4-0.2-3.6-0.3c-1.2-0.1-2.4-0.1-3.6-0.1c-2.7,0-5.2,0.2-7.6,0.7
		c-0.4,5.1-0.7,10.5-0.9,15.9c-0.1,5.5-0.2,11.2-0.2,17c-1.6,0.3-3.3,0.6-4.9,0.8S194.8,153.8,193.1,153.9z"/>
	<path class="st0" d="M269.3,152.8c-4.5,0.1-9.3,0.2-14.2,0.2c-4.9,0-9.7-0.2-14.2-0.7c-2.6-0.3-4.8-1-6.5-2.3c-1.8-1.3-3.2-3-4.4-5
		s-2.1-4.3-2.8-6.9c-0.7-2.6-1.2-5.3-1.5-8.1c-0.6-4.8-0.8-8.9-0.7-12.4c0.1-3.5,0.9-6.4,2.2-8.7c1.3-2.3,3.3-4.2,5.9-5.5
		c2.6-1.3,6.1-2.3,10.5-2.8c1.9-0.2,3.9-0.4,6.1-0.6c2.2-0.2,4.5-0.3,7-0.3c5-0.3,8.9,0.7,11.6,3c2.7,2.2,4.3,5.9,5,11.1
		c0.3,2.4,0.4,4.8,0.1,7.1c-0.2,2.3-0.8,4.4-1.7,6.3c-1,1.9-2.3,3.4-4.2,4.7c-1.8,1.3-4.2,2.1-7.2,2.5c-1.4,0.2-3,0.3-4.7,0.3
		c-1.7,0.1-3.5,0.1-5.2,0.1c-1.8,0-3.4,0-5.1-0.1c-1.6-0.1-3-0.1-4.1-0.1c0,0.2,0,0.5,0,0.8c0,0.3,0.1,0.5,0.1,0.8
		c0.2,1.5,0.6,2.7,1.2,3.5c0.6,0.9,1.7,1.3,3.1,1.2c1.4,0,3.2-0.1,5.2-0.3c2-0.1,4.2-0.3,6.4-0.5c2.2-0.2,4.5-0.4,6.7-0.6
		c2.2-0.2,4.2-0.5,6-0.7c0,2.2,0,4.5,0,7C269.7,148.4,269.6,150.7,269.3,152.8z M235.6,127.5c1.8-0.1,3.9-0.2,6.3-0.2
		c2.4-0.1,4.7-0.2,7-0.3s4.5-0.2,6.5-0.3c2-0.1,3.5-0.2,4.6-0.4c1-0.1,1.8-0.5,2.3-1c0.5-0.5,0.7-1.3,0.6-2.4
		c-0.2-1.2-0.4-2.1-0.9-2.6c-0.4-0.5-1-0.7-1.8-0.8c-0.5,0-1.3-0.1-2.3-0.1c-1,0-2.2,0-3.5,0c-1.3,0-2.7,0-4.2,0
		c-1.5,0-2.9,0-4.3,0.1c-1.4,0.1-2.6,0.1-3.8,0.1c-1.1,0-2,0.1-2.7,0.2c-1.7,0.2-2.8,0.9-3.5,2c-0.7,1.1-0.9,2.6-0.6,4.5
		c0,0.2,0.1,0.4,0.1,0.5C235.6,127,235.6,127.2,235.6,127.5z"/>
	<path class="st0" d="M278.2,98.9c2.5-0.1,31.7-0.2,34.7-0.2c5.8,0,10,2.5,12.8,5.5c2.8,3,4.1,7.8,4.1,14.2c0,2.3-0.2,4.5-0.6,6.7
		c-0.4,2.2-1.2,4.3-2.5,6.1c-1.3,1.8-3.1,3.3-5.6,4.5c-2.4,1.2-5.7,1.9-9.9,2c2.7,2.6,5.3,5.3,8,8.2c2.6,2.9,5.1,5.5,7.3,7.9
		c-1.1,0.1-2.2,0.2-3.5,0.2s-2.5,0.1-3.7,0.1c-2,0-3.9,0-5.9-0.1c-1.9-0.1-3.8-0.2-5.4-0.4c-1.5-2.9-3.2-5.7-5-8.6
		c-1.8-2.9-3.6-5.7-5.5-8.4c-0.8,0.1-1.7,0.2-2.7,0.3c-1,0.1-2,0.2-3,0.4c0,0.9-0.1,1.8-0.1,2.7c0,0.9,0,1.8,0,2.7
		c0,1.5,0,3.1,0.1,4.6c0.1,1.6,0.2,3.1,0.3,4.6c-1.7,0.3-3.5,0.6-5.4,0.8c-1.9,0.2-3.8,0.3-5.7,0.4L278.2,98.9z M287.8,121.6
		c0,1,0.1,1.8,0.2,2.6c0.1,0.8,0.2,1.5,0.4,2.2c4.3,0.2,8,0.4,11,0.6c3,0.1,5.5,0.3,7.5,0.4c2,0.1,3.6,0.2,4.8,0.3s2,0.1,2.7,0.1
		c0.6,0,1.1,0,1.3,0c0.2,0,0.4,0,0.6,0c1.9,0,3.2-0.4,3.8-1.2c0.6-0.8,0.9-1.7,0.9-2.8c0-1.4-0.3-2.3-1-2.8s-1.6-0.8-2.8-0.8
		c-1.2,0-2.8,0-5.1,0.1c-2.2,0.1-4.7,0.2-7.5,0.3c-2.7,0.1-5.6,0.3-8.5,0.5C293.1,121.2,290.4,121.4,287.8,121.6z"/>
	<path class="st0" d="M151.1,65.7c-0.2-2.5-0.4-4.9-0.5-7.2c-0.1-2.3-0.1-4.6-0.1-7.1c1.2,0.1,2.7,0.2,4.5,0.3
		c1.7,0.1,3.6,0.2,5.6,0.3c2,0.1,4,0.2,6,0.3c2,0.1,4,0.2,5.8,0.2c1.8,0,3.5,0.1,4.9,0.1c1.5,0,2.6,0.1,3.4,0.1
		c1.1,0,1.9-0.3,2.4-0.8c0.5-0.6,0.8-1.6,0.8-3.1c0-1.2-0.3-2.1-1-2.8c-0.6-0.7-1.7-1-3.1-1c-2,0-4.4,0-7.2,0.1
		c-2.8,0.1-5.5,0.1-8.1,0.1c-5.6,0-9.7-1.2-12.4-3.7c-2.7-2.5-4-6.4-4-11.8c0-5.7,1.3-10.1,3.8-13.2c2.5-3.1,6.3-4.9,11.1-5.4
		c4.8-0.5,9.8-1,14.9-1.3c5.2-0.3,10.3-0.6,15.4-0.6c0.9,4.8,0.8,19.4,0,23.1c-2-0.2-6.7-0.4-9.2-0.6c-2.5-0.2-4.9-0.4-7.3-0.6
		c-2.4-0.2-4.6-0.3-6.6-0.4c-2-0.1-3.6-0.1-4.8-0.1c-2.9,0-4.4,1.3-4.4,3.8c0,2.3,0.8,3.4,2.4,3.4c1.1,0,2.3,0,3.7-0.1
		c1.4-0.1,2.9-0.2,4.5-0.3c1.5-0.1,3.1-0.2,4.7-0.3c1.6-0.1,3.1-0.1,4.5-0.1c4.2,0,7.5,0.9,9.9,2.7c2.4,1.8,3.6,4.7,3.6,8.6
		c0,1.6-0.1,3.2-0.3,4.8c-0.2,1.6-0.6,3.1-1.3,4.4c-0.7,1.4-1.7,2.6-3.1,3.6c-1.4,1-3.2,1.8-5.5,2.3c-1.5,0.3-3.1,0.6-4.7,0.9
		c-1.6,0.3-3.7,0.5-6.1,0.7c-2.4,0.2-5.4,0.3-8.9,0.5C160.8,65.4,156.4,65.6,151.1,65.7z"/>
	<path class="st0" d="M100.1,65.7c-0.2-2.5-0.4-4.9-0.5-7.2c-0.1-2.3-0.1-4.6-0.1-7.1c1.2,0.1,2.7,0.2,4.5,0.3
		c1.7,0.1,3.6,0.2,5.6,0.3c2,0.1,4,0.2,6,0.3c2,0.1,4,0.2,5.8,0.2c1.8,0,3.5,0.1,4.9,0.1c1.5,0,2.6,0.1,3.4,0.1
		c1.1,0,1.9-0.3,2.4-0.8c0.5-0.6,0.8-1.6,0.8-3.1c0-1.2-0.3-2.1-1-2.8c-0.6-0.7-1.7-1-3.1-1c-2,0-4.4,0-7.2,0.1
		c-2.8,0.1-5.5,0.1-8.1,0.1c-5.6,0-9.7-1.2-12.4-3.7c-2.7-2.5-4-6.4-4-11.8c0-5.7,1.3-10.1,3.8-13.2c2.5-3.1,6.3-4.9,11.1-5.4
		c4.8-0.5,9.8-1,14.9-1.3c5.2-0.3,10.3-0.6,15.4-0.6c0.9,4.8,0.8,19.4,0,23.1c-2-0.2-6.7-0.4-9.2-0.6c-2.5-0.2-4.9-0.4-7.3-0.6
		c-2.4-0.2-4.6-0.3-6.6-0.4c-2-0.1-3.6-0.1-4.8-0.1c-2.9,0-4.4,1.3-4.4,3.8c0,2.3,0.8,3.4,2.4,3.4c1.1,0,2.3,0,3.7-0.1
		c1.4-0.1,2.9-0.2,4.5-0.3c1.5-0.1,3.1-0.2,4.7-0.3c1.6-0.1,3.1-0.1,4.5-0.1c4.2,0,7.5,0.9,9.9,2.7c2.4,1.8,3.6,4.7,3.6,8.6
		c0,1.6-0.1,3.2-0.3,4.8c-0.2,1.6-0.6,3.1-1.3,4.4c-0.7,1.4-1.7,2.6-3.1,3.6c-1.4,1-3.2,1.8-5.5,2.3c-1.5,0.3-3.1,0.6-4.7,0.9
		c-1.6,0.3-3.7,0.5-6.1,0.7c-2.4,0.2-5.4,0.3-8.9,0.5C109.8,65.4,105.4,65.6,100.1,65.7z"/>
	<path class="st0" d="M140.9,154.3c-1-9.3,0.6-45.9,0.4-55.3c3.4,0.1,15,0,18.3,0.4c-0.8,6.7-3.4,34.9-3.9,42.1
		c5.2,0.3,23.3-2.1,25.6-2.5c0.7,2,0.2,12-0.2,14C174.6,153.8,147.7,154.9,140.9,154.3z"/>
</g>
</svg>
