<?xml version="1.0" encoding="utf-8"?>
<!-- Generator: Adobe Illustrator 20.1.0, SVG Export Plug-In . SVG Version: 6.00 Build 0)  -->
<svg version="1.1" id="Layer_1" xmlns="http://www.w3.org/2000/svg" xmlns:xlink="http://www.w3.org/1999/xlink" x="0px" y="0px"
	 viewBox="0 0 147 221" style="enable-background:new 0 0 147 221;" xml:space="preserve">
<path d="M119.5,212.3c-10.3-2.4-20.2-3.7-29.3-4.1L84,220.7L82.8,208c-6,0-11.7,0.3-16.9,0.8l-0.6,11.9l-6.7-11
	C42.1,212,32,216,32,216v-21.2V187l29.7-22l-61.3,1.3l1-41.3l60-57.7C61.3,67.3,63,0,72,0s13,67.3,13,67.3l59,52l2.3,46.7l-57.7-1.7
	l30.7,19.7v9.7L119.5,212.3z"/>
</svg>
