<?xml version="1.0" encoding="utf-8"?>
<!-- Generator: Adobe Illustrator 20.1.0, SVG Export Plug-In . SVG Version: 6.00 Build 0)  -->
<svg version="1.1" id="Layer_1" xmlns="http://www.w3.org/2000/svg" xmlns:xlink="http://www.w3.org/1999/xlink" x="0px" y="0px"
	 viewBox="0 0 250 500" style="enable-background:new 0 0 250 500;" xml:space="preserve">
<style type="text/css">
	.st0{fill:#010101;}
</style>
<path class="st0" d="M49-0.3h158c0,0,3.7,21,1,29.7c1.8,9,16.7,38,1.2,70.7c-2.1,4.5,13.8-10.7,2.5,32.7c-1.3,5.3-7.3,20.7-7.3,25.3
	c0,4.7-8.7,3.3-8.7,3.3s-4,16.7-7.3,28c-3.3,11.3-9.3,57,11.3,61.7s32.7,3.8,50.7,10.7v238.7H0.3V272c0,0,25.4-14.7,39.3-16.2
	c18.3-2,40-11.2,44.7-23.8c4.7-12.7,2.7-38.7,0-40.7c-2.7-2-12.3-12.3-12.7-34c-4.7,0.7-9.3,4-10-5.3c-0.4-6-8.7-28.7-10.7-34.7
	s-2.7-15.3,1.3-18.7c4-3.3-1-18.7-1-21.3c0-2.7-4.3-16-2.3-30s-2.3-12.7-3.7-14.7S41,11,49-0.3z"/>
</svg>
