<?xml version="1.0" encoding="utf-8"?>
<!-- Generator: Adobe Illustrator 20.1.0, SVG Export Plug-In . SVG Version: 6.00 Build 0)  -->
<svg version="1.1" id="Layer_1" xmlns="http://www.w3.org/2000/svg" xmlns:xlink="http://www.w3.org/1999/xlink" x="0px" y="0px"
	 viewBox="0 0 475 60" style="enable-background:new 0 0 475 60;" xml:space="preserve">
<style type="text/css">
	.st0{fill:#FFFFFF;}
</style>
<g>
	<path class="st0" d="M1.4,56.8c-0.3-3-0.4-6.1-0.4-9.4c0-0.7,0-1.5,0-2.2s0-1.5,0.1-2.3c4.2,0.4,8.4,0.6,12.5,0.8s8.2,0.2,12.2,0.2
		c-0.2-6.8-0.6-13.6-1.1-20.4s-1.2-13.7-2-20.6c2.9,0,5.7,0.2,8.4,0.4s5.3,0.5,7.9,0.9c-0.2,2.8-0.5,5.7-0.7,8.7
		c-0.3,3-0.5,6-0.7,8.9s-0.5,5.8-0.7,8.6s-0.4,5.4-0.6,7.7c0,0.4-0.1,1.1-0.2,2C36,41,35.9,42,35.8,43s-0.3,2-0.5,2.9
		s-0.4,1.6-0.6,2.1c-1,2.3-2.4,4.2-4.2,5.5s-4,2.1-6.6,2.2c-3.5,0.2-7.1,0.4-11,0.6C9,56.7,5.2,56.8,1.4,56.8z"/>
	<path class="st0" d="M78.7,41.7c0.4-2.8,0.3-31,0.4-34.1c1.7-0.2,3.5-0.4,5.3-0.5S89,7,90.8,7c-0.3,2.8-2.6,38.6-3,40.6
		c-0.5,2-1.1,3.6-1.9,5c-0.8,1.3-1.8,2.3-3,3s-2.8,1-4.8,1.1c-0.7,0-1.6,0.1-2.6,0.1s-2.2,0.1-3.4,0.1c-1.3,0-2.6,0-4,0.1
		c-1.4,0-2.8,0-4.3,0c-3.7,0-6.7-0.3-9-0.8c-2.3-0.6-4-1.5-5.2-2.9s-2.1-3-2.7-5.1c-0.6-2-1-4.4-1.3-7c-0.6-6-1.1-12.1-1.7-18.2
		c-0.5-6-1-12-1.3-18c2-0.1,3.9-0.2,5.7-0.2C50.1,4.7,52,4.7,54,4.7c0.9,0,1.8,0,2.7,0s1.8,0,2.7,0.1c0,7.1,0.1,13.8,0.2,20
		C59.8,31,60,36.1,60.3,42c1.2,0.1,2.4,0.2,3.7,0.2c1.2,0.1,2.5,0.1,3.7,0.1c2,0,3.9-0.1,5.7-0.2C75.4,42.1,77.1,41.9,78.7,41.7z"/>
	<path class="st0" d="M96.2,4.9c6.5-0.8,29.1-1.8,32.6-1.9c1.7-0.1,3.1-0.2,4.1-0.2c3.2,0,5.7,0.5,7.6,1.5c1.9,1,3.4,2.3,4.4,3.9
		s1.7,3.4,2,5.4s0.5,4,0.5,5.9c0,2.6,0,4.9,0,7c0,2-0.1,3.9-0.1,5.6c0,1.7-0.1,3.2-0.1,4.6c0,1.4-0.1,2.8-0.1,4.1
		c-0.1,4.1-0.8,7.4-2,9.9s-3,3.3-5.4,4.4c-1.2,0.6-2.8,1-4.9,1.3c-2,0.3-4.6,0.5-7.8,0.7c-3.5-0.1-24.8-0.1-31-0.9L96.2,4.9z
		 M130.7,44c0.9-3.2-0.6-19.2-1.2-22c-5.8,0-20.2-0.1-24.8,1.1c-0.5,5.7-0.5,17.7,0,21.6C107.7,44.7,124.7,45.7,130.7,44z"/>
	<path class="st0" d="M160.7,56.8c0-2.9,0.1-5.9,0.2-8.8c0.1-2.9,0.3-5.7,0.6-8.5c-2.7-6.3-5.2-12.6-7.6-19
		c-2.4-6.4-4.7-13-6.8-19.7c2,0.1,4,0.2,6,0.4s4,0.4,6.1,0.7c0.7,4.2,1.6,8.3,2.6,12.1s1.9,7.6,3,11.3c2.4-3.5,4.6-7.2,6.6-11
		s3.8-7.8,5.5-11.9c2.3,0,4.6,0.1,6.8,0.3c2.3,0.2,4.5,0.4,6.8,0.7c-2.7,6.5-5.4,12.9-8.3,19.1c-2.9,6.2-5.9,12.3-9.2,18.4
		c0,2.5,0,5,0.1,7.5s0.3,4.9,0.5,7.4c-2.1,0.4-4.2,0.6-6.3,0.8C165,56.5,162.9,56.7,160.7,56.8z"/>
	<path class="st0" d="M250.8,56.5c-0.5-1.4-1.1-2.8-1.6-4.4c-0.6-1.6-1.2-2.9-1.9-4.1c0,2-0.4,3.6-1.3,4.7c-0.9,1.1-2,1.9-3.5,2.4
		s-3.3,0.9-5.3,0.9c-2.1,0.1-4.3,0.1-6.7,0.1s-4.5-0.2-6.4-0.7s-3.5-1.3-4.9-2.4c-1.4-1.1-2.4-2.5-3.3-4.3c-0.8-1.8-1.3-4-1.6-6.6
		c-0.2-1.6-0.4-3.5-0.6-5.7c-0.2-2.2-0.4-4.4-0.5-6.7s-0.3-4.5-0.4-6.6c-0.1-2.1-0.1-4-0.1-5.5c0-2.1,0.2-3.9,0.7-5.5
		c0.4-1.5,1.2-2.8,2.2-3.9c1-1,2.3-1.9,3.9-2.5c1.6-0.6,3.5-1.1,5.7-1.4c0.9-0.1,2.3-0.2,4.1-0.4s3.7-0.3,5.8-0.5
		c2.1-0.1,4.1-0.3,6-0.4c2-0.1,3.6-0.2,4.8-0.2c2.1,0,4,0.2,5.6,0.7s2.9,1.1,4,2s2,2,2.7,3.3s1.3,2.7,1.8,4.3
		c-1.8,2.5-3.7,4.9-5.6,7.1c-2,2.2-4.1,4.2-6.3,5.9c-0.2-0.7-0.5-1.4-0.8-2s-0.6-1.2-1-1.7c-4.2,0.2-8.2,0.5-12.3,0.8
		c-4,0.3-8.3,0.6-12.7,1c0.2,3.2,0.4,6,0.6,8.3c0.2,2.3,0.3,4.3,0.5,5.9c0.1,1.6,0.3,2.8,0.4,3.7c0.1,0.9,0.2,1.5,0.3,1.9
		c1,0,2.3,0,4-0.1c1.7,0,3.5-0.1,5.5-0.2c2-0.1,4-0.2,6.1-0.3s3.9-0.2,5.5-0.3c1.7-0.1,3-0.5,3.8-1.3s1.2-2.2,1.2-4.3
		c-0.7,0-1.4-0.1-2.1-0.1c-0.8,0-1.6,0-2.3,0c-1.9,0-3.8,0-5.8,0.1s-3.8,0.2-5.4,0.4c-0.2-1.6-0.4-3.2-0.6-4.7
		c-0.1-1.5-0.2-3.1-0.2-4.5c2.1-0.2,4.2-0.4,6.5-0.5c2.3-0.2,4.6-0.3,7-0.5c2.3-0.1,4.7-0.2,7-0.3s4.5-0.2,6.5-0.2
		c0,1.4,0.1,2.9,0.1,4.4s0,3.1,0,4.7c0,3.3,0,6.7-0.1,10.1c-0.1,3.4-0.3,6.8-0.5,10.1c-0.6,0.1-1.1,0.2-1.7,0.2s-1.1,0.1-1.6,0.1
		c-0.8,0-1.6,0-2.4-0.1C252.5,56.6,251.7,56.6,250.8,56.5z"/>
	<path class="st0" d="M262.9,3.4c2.4,0,5.1,0,7.9-0.1c2.8,0,5.8-0.1,8.8-0.1s6.1,0,9.2-0.1c3.1,0,6.1,0,9,0c5.7,0,9.9,1.4,12.7,4.3
		c2.8,2.8,4.1,7.3,4.1,13.3c0,3.2-0.3,6-0.9,8.4s-1.6,4.4-3,6s-3.3,2.8-5.7,3.7c-2.4,0.9-5.3,1.3-8.8,1.4c2.1,2.4,4.3,4.9,6.5,7.3
		c2.2,2.5,4.6,4.9,7,7.5c-1.3,0-2.6,0.1-4.1,0.1s-3,0.1-4.4,0.1c-1.5,0-3,0.1-4.4,0.1s-2.8,0-4.1,0c-3.6-5.4-6.8-11-9.7-16.7
		c-0.8,0.1-1.7,0.2-2.6,0.2c-1,0.1-1.9,0.2-3,0.3c-0.1,1.4-0.2,2.9-0.2,4.4s-0.1,3-0.1,4.5c0,1.1,0,2.1,0,3.2s0,2.1,0.1,3.2
		c-1.7,0.2-3.4,0.4-5.2,0.5c-1.8,0.1-3.7,0.2-5.5,0.3L262.9,3.4z M297.2,31c1,0.1,1.8,0.2,2.3,0.2c0.6,0,1.1,0,1.5,0
		c1,0,1.8-0.1,2.4-0.3s1.1-0.5,1.4-0.9c0.4-0.4,0.6-0.8,0.7-1.3s0.2-1,0.2-1.6c0-1.1-0.3-1.9-1-2.4c-0.7-0.5-1.6-0.7-2.8-0.7
		s-3.1,0-5.5,0.1c-2.5,0-5.2,0.1-8.2,0.2s-6,0.2-9.1,0.3c-3.1,0.1-5.9,0.2-8.4,0.4c0,0.9,0.1,1.8,0.2,2.5s0.2,1.4,0.4,2.1L297.2,31z
		"/>
	<path class="st0" d="M387.4,54.9c-2.2-0.3-4.1-0.9-5.6-1.8s-2.8-1.9-3.9-3.3s-1.9-2.9-2.5-4.7s-1.1-3.8-1.5-6.1
		c-0.3-1.9-0.6-3.8-0.9-5.7c-0.3-2-0.5-3.9-0.7-5.7s-0.4-3.5-0.5-5.1s-0.2-2.9-0.2-4c0-3.1,0.6-5.6,1.9-7.5s3.2-3.4,5.8-4.5
		c2.6-1.1,5.8-1.9,9.7-2.5c3.9-0.5,8.4-0.9,13.6-1.1c5.4,0,9.5,1.4,12.3,4.2s4.3,7.4,4.3,13.8c0,3.2-0.4,5.9-1.2,8.1
		c-0.8,2.2-2,4-3.5,5.3s-3.4,2.3-5.5,2.8c-2.2,0.6-4.6,0.8-7.4,0.8c-2.2,0-4.1,0-5.7,0s-3,0-4.1,0c-1.2,0-2.1,0-2.9-0.1
		c-0.8,0-1.4,0-1.9,0c0.1,2.1,0.6,3.8,1.5,5s2.4,1.8,4.5,1.8c1.1,0,2.5-0.1,4.3-0.2c1.8-0.1,3.8-0.3,5.9-0.5s4.2-0.4,6.4-0.7
		c2.2-0.3,4.1-0.5,5.9-0.7c0.3,2,0.6,4,0.7,5.9c0.2,2,0.2,4,0.2,6.2c-1.3,0.1-2.8,0.3-4.5,0.4s-4,0.2-6.8,0.2c-3,0-6.1,0-9.1-0.1
		C392.9,55.2,390.1,55.1,387.4,54.9z M383,30.6c1.8,0,3.7-0.1,5.8-0.2c2.1-0.1,4.2-0.2,6.2-0.4c2-0.1,3.9-0.3,5.7-0.4
		c1.8-0.1,3.2-0.3,4.3-0.4s1.8-0.5,2.1-1.1c0.3-0.6,0.5-1.4,0.5-2.5c0-1.5-0.4-2.5-1.1-2.9s-1.8-0.6-3.2-0.6c-1,0-2.3,0-3.7,0.1
		c-1.5,0-3,0.1-4.5,0.2s-3,0.1-4.5,0.2s-2.7,0.1-3.8,0.2c-1.4,0-2.4,0.6-3,1.6c-0.7,1-1,2.3-1,3.9c0,0.4,0,0.8,0,1.2
		C382.9,29.9,382.9,30.3,383,30.6z"/>
	<path class="st0" d="M422.7,3.4c2.4,0,5.1,0,7.9-0.1c2.8,0,5.8-0.1,8.8-0.1s6.1,0,9.2-0.1c3.1,0,6.1,0,9,0c5.7,0,9.9,1.4,12.7,4.3
		c2.8,2.8,4.1,7.3,4.1,13.3c0,3.2-0.3,6-0.9,8.4s-1.6,4.4-3,6s-3.3,2.8-5.7,3.7c-2.4,0.9-5.3,1.3-8.8,1.4c2.1,2.4,4.3,4.9,6.5,7.3
		c2.2,2.5,4.6,4.9,7,7.5c-1.3,0-2.6,0.1-4.1,0.1s-3,0.1-4.4,0.1c-1.5,0-3,0.1-4.4,0.1s-2.8,0-4.1,0c-3.6-5.4-6.8-11-9.7-16.7
		c-0.8,0.1-1.7,0.2-2.6,0.2c-1,0.1-1.9,0.2-3,0.3c-0.1,1.4-0.2,2.9-0.2,4.4s-0.1,3-0.1,4.5c0,1.1,0,2.1,0,3.2s0,2.1,0.1,3.2
		c-1.7,0.2-3.4,0.4-5.2,0.5c-1.8,0.1-3.7,0.2-5.5,0.3L422.7,3.4z M456.9,31c1,0.1,1.8,0.2,2.3,0.2c0.6,0,1.1,0,1.5,0
		c1,0,1.8-0.1,2.4-0.3s1.1-0.5,1.4-0.9c0.4-0.4,0.6-0.8,0.7-1.3s0.2-1,0.2-1.6c0-1.1-0.3-1.9-1-2.4c-0.7-0.5-1.6-0.7-2.8-0.7
		c-1.2,0-3.1,0-5.5,0.1c-2.5,0-5.2,0.1-8.2,0.2s-6,0.2-9.1,0.3c-3.1,0.1-5.9,0.2-8.4,0.4c0,0.9,0.1,1.8,0.2,2.5s0.2,1.4,0.4,2.1
		L456.9,31z"/>
	<path class="st0" d="M335.4,54.9c-2.2-0.3-4.1-0.9-5.6-1.8s-2.8-1.9-3.9-3.3s-1.9-2.9-2.5-4.7s-1.1-3.8-1.5-6.1
		c-0.3-1.9-0.6-3.8-0.9-5.7c-0.3-2-0.5-3.9-0.7-5.7s-0.4-3.5-0.5-5.1s-0.2-2.9-0.2-4c0-3.1,0.6-5.6,1.9-7.5s3.2-3.4,5.8-4.5
		c2.6-1.1,5.8-1.9,9.7-2.5c3.9-0.5,8.4-0.9,13.6-1.1c5.4,0,9.5,1.4,12.3,4.2s4.3,7.4,4.3,13.8c0,3.2-0.4,5.9-1.2,8.1
		c-0.8,2.2-2,4-3.5,5.3s-3.4,2.3-5.5,2.8c-2.2,0.6-4.6,0.8-7.4,0.8c-2.2,0-4.1,0-5.7,0s-3,0-4.1,0c-1.2,0-2.1,0-2.9-0.1
		c-0.8,0-1.4,0-1.9,0c0.1,2.1,0.6,3.8,1.5,5s2.4,1.8,4.5,1.8c1.1,0,2.5-0.1,4.3-0.2c1.8-0.1,3.8-0.3,5.9-0.5s4.2-0.4,6.4-0.7
		c2.2-0.3,4.1-0.5,5.9-0.7c0.3,2,0.6,4,0.7,5.9c0.2,2,0.2,4,0.2,6.2c-1.3,0.1-2.8,0.3-4.5,0.4s-4,0.2-6.8,0.2c-3,0-6.1,0-9.1-0.1
		C340.9,55.2,338.1,55.1,335.4,54.9z M331,30.6c1.8,0,3.7-0.1,5.8-0.2c2.1-0.1,4.2-0.2,6.2-0.4c2-0.1,3.9-0.3,5.7-0.4
		c1.8-0.1,3.2-0.3,4.3-0.4s1.8-0.5,2.1-1.1c0.3-0.6,0.5-1.4,0.5-2.5c0-1.5-0.4-2.5-1.1-2.9s-1.8-0.6-3.2-0.6c-1,0-2.3,0-3.7,0.1
		c-1.5,0-3,0.1-4.5,0.2s-3,0.1-4.5,0.2s-2.7,0.1-3.8,0.2c-1.4,0-2.4,0.6-3,1.6c-0.7,1-1,2.3-1,3.9c0,0.4,0,0.8,0,1.2
		C330.9,29.9,330.9,30.3,331,30.6z"/>
</g>
</svg>
