<?xml version="1.0" encoding="utf-8"?>
<!-- Generator: Adobe Illustrator 20.1.0, SVG Export Plug-In . SVG Version: 6.00 Build 0)  -->
<svg version="1.1" id="Layer_1" xmlns="http://www.w3.org/2000/svg" xmlns:xlink="http://www.w3.org/1999/xlink" x="0px" y="0px"
	 viewBox="0 0 136 219" style="enable-background:new 0 0 136 219;" xml:space="preserve">
<style type="text/css">
	.st0{fill:#431020;}
	.st1{opacity:0.3;fill:#431020;}
	.st2{opacity:0.5;fill:#431020;}
	.st3{opacity:0.7;fill:#431020;}
</style>
<g>
	<path class="st0" d="M133,73.2c-1-1.5-0.7-3.2-0.8-8.6c-0.1-3.8,2.8-1.8,2.5-8.4c-0.1-2.3-0.3-5-0.5-6.1c-0.6-2.4-2.2-0.9-2.7-3.7
		c-0.4-2.1-0.3-6.7-0.7-9c-0.3-2.1,2.8-3.6,2.6-6.7c-0.2-1.9-0.1-5.6-0.8-8.1c-0.4-1.5-1.8-1.9-3.1-2.9c-0.7-0.5-1.5-0.6-2.3-2.9
		c-0.4-1.4-0.8-3.5-1.1-7c-0.8-9.7-1.5-9.4-5.4-9.4c-5.9,0.1-63.6,0.6-87.6,13c-2.9,1.5-3.5,2.5-3.2,4.1c0.8,4.4,3.1,12.9,3.2,14.9
		c0.1,2.5,1.7,5.5-2.3,9.2c-4,3.8-4.7,13-4.7,15.4s-0.6,4.6-5.6,8.6s-8.2,5-9,14.8s-4.9,51-6.2,58.8s-8.4,73-3.4,77.4
		c5.4,2.8,42.4,0.8,42.4,0.8c-0.2-11,2.8-48.2,2.5-51.8s3.8-4,5.5-5.2s5.8-2.8,6.8-11.8s2.5-6.5,5.5-7.5s13.5-4.2,17.8-5.8
		S93.5,130,97,130s12.2-2,13-7.2s0.5-7.4-0.6-8s-2.9-2,1.8-2.4s20.6-6.1,22.5-9.1c0.5-3.2-0.6-14.2-0.8-15.5s2.4-1.5,2.4-4.8
		S136,74.5,133,73.2z M117.3,104.5c-1,0.2-4.1,1.1-6.1,1.8c-1.4,0.5-1.9-0.2-2-1.7c0-0.9-0.4-4.7-0.4-5.7c0-0.8,0.4-1.8,1-2.1
		c1.2-0.5,4.8-1.7,6.5-2.1c1.5-0.4,1.8,0.4,1.8,1.5c0,0.9,0.2,4.1,0.2,6.3C118.4,103.6,118.3,104.2,117.3,104.5z M120.6,23.9
		c0,1.7-0.7,1.8-2,2.4c-0.2,0-0.4,0.1-0.6,0.1c-8.1,1.8-18.5,3.6-28.9,5.1c-3.8,0.6-7.5,1.1-11.2,1.6c-11.3,1.5-21.6,2.8-27.6,3.4
		c-2.8,0.3-4.6,0.5-5.3,0.6c-3.6,0.4-3.7-0.1-4.4-1.9c-0.8-1.8-4.1-12.2-4.9-14.6c-0.8-2.7-0.5-3.1,1-3.9
		c26.1-9.7,83-12.2,83.2-10.5C120.2,8.4,120.7,20.1,120.6,23.9z M128.1,99.6c0,1.1,0,1.2-0.6,1.5c-0.4,0.2-1.3,0.5-1.8,0.6
		c-0.8,0.3-1.2,0.2-1.2-0.7c0-1-0.2-7-0.2-8c0-0.7,0.1-1,0.7-1.2c0.3-0.1,2.1-0.5,2.3-0.6c0.6-0.1,0.8,0,0.8,1
		C128.1,93.8,128.1,97.8,128.1,99.6z"/>
	<path class="st1" d="M36.8,16.7c-1.5,0.8-1.8,1.2-1,3.9c0.8,2.5,4.2,12.8,4.9,14.6c0.8,1.8,0.8,2.2,4.4,1.9
		c0.6-0.1,2.5-0.3,5.3-0.6c0-5.7,0.3-14.3,0.4-17.1c0.1-3.6,5.4-5.6,7.9-5.7c0,0,14.3-1.8,20.9-2.4c6.6-0.6,8.9,1.6,9,6.1
		c1.2-0.3,2.5-0.5,3.9-0.5c5.5,0.1,15.6,2.6,18.9,3.6c2.4,0.7,5.6,2.3,6.7,5.8c0.2,0,0.4-0.1,0.6-0.1c1.3-0.5,2-0.6,2-2.4
		c0.1-3.8-0.4-15.5-0.7-17.8C119.8,4.5,62.9,7,36.8,16.7z"/>
	<path class="st2" d="M88.6,17.5c-0.2-4.5-2.4-6.7-9-6.1c-6.6,0.6-20.9,2.4-20.9,2.4c-2.5,0.1-7.8,2-7.9,5.7
		c-0.1,2.8-0.4,11.4-0.4,17.1c6-0.7,16.3-1.9,27.6-3.4c2-6.9,3.1-9.5,3.1-9.5C82,20.7,84.9,18.4,88.6,17.5z"/>
	<path class="st3" d="M111.3,20.6c-3.2-1-13.4-3.5-18.9-3.6c-1.4,0-2.7,0.1-3.9,0.5v0c0.1,3.4,0.4,8.5,0.6,14
		c10.4-1.5,20.7-3.3,28.9-5.1C116.9,22.9,113.7,21.3,111.3,20.6z"/>
	<path class="st3" d="M88.6,17.5c-3.7,0.9-6.6,3.3-7.5,6.1c0,0-1.1,2.6-3.1,9.5c3.7-0.5,7.4-1,11.2-1.6C89,26,88.7,20.9,88.6,17.5
		L88.6,17.5z"/>
	<path class="st1" d="M116.4,94.7c-1.8,0.5-5.3,1.6-6.5,2.1c-0.6,0.3-1,1.3-1,2.1c0,0.9,0.4,4.8,0.4,5.7c0.1,1.5,0.6,2.1,2,1.7
		c2-0.7,5.1-1.5,6.1-1.8s1.1-0.9,1.1-2c0-2.2-0.2-5.4-0.2-6.3C118.1,95.1,117.9,94.3,116.4,94.7z"/>
	<path class="st1" d="M127.3,91.3c-0.2,0-2,0.5-2.3,0.6c-0.6,0.2-0.8,0.5-0.7,1.2c0,1,0.2,7,0.2,8c0,0.9,0.4,1,1.2,0.7
		c0.5-0.2,1.3-0.5,1.8-0.6c0.7-0.2,0.6-0.4,0.6-1.5c0-1.9,0-5.9,0-7.4C128.1,91.3,128,91.1,127.3,91.3z"/>
</g>
</svg>
