<?xml version="1.0" encoding="utf-8"?>
<!-- Generator: Adobe Illustrator 20.1.0, SVG Export Plug-In . SVG Version: 6.00 Build 0)  -->
<svg version="1.1" id="Layer_1" xmlns="http://www.w3.org/2000/svg" xmlns:xlink="http://www.w3.org/1999/xlink" x="0px" y="0px"
	 viewBox="0 0 367 408" style="enable-background:new 0 0 367 408;" xml:space="preserve">
<style type="text/css">
	.st0{fill:#431020;}
</style>
<path class="st0" d="M352.5,384.3c-6.8-11.3-5.5-14.3-18-62.7c-12.5-48.3-49.9-57.4-54.8-59.4c-4.9-2-20.8-7.8-25.2-9
	s-13.4-3.4-14.8-5.2c-1-0.4,0.1-0.9-11.4-5.1c-11.5-4.3-7.9-4.1-3.1-5.8c4.8-1.6,1.5,1.4,2.8,1.8c3.1-0.6,13.2-7.6,17.4-10.5
	c4.6-5,3.9-1.1,4.5,0.7c0.6,1.9,4.4,4.5,4.7,3.5c0.4-1-1-5.5,1-9.2c2-3.8,5.4-7.9,5.8-6.8c0.4,1.1-3,8.1-2.9,9.3
	c18.9-14.5,16.8-30.5,17.6-40c0.9-9.5-4.9-31.8-8.1-41.5c-3.2-9.8-3.5-18.1-3.1-30c0.4-11.9-11.6-37.4-14.6-45.5
	c-3-8.1-15.2-24.5-20.9-27.6c-5.6-3.1-8.5-7.5-14.9-15.2c-6.4-7.8-25-16-35.6-21.8c-10.6-5.8-21.5-3.1-24.3-1.2
	c-2.7,1.9-8.1,6.4-10.2,5.8c-2.1-0.6-8.8-0.9-14.9-0.6c-6.1,0.3-15.9,10.6-20.5,18.1c-4.6,7.5-20.9,34.4-25.6,44.8
	C78.6,81.4,67.5,96.4,62,102.2c-5.5,5.9-15.4,18-20.8,27.8c-6.2,13.6-3.1,46.5-2.9,51.2c0.2,4.8,0.7,12.4,2.9,15.9
	c2.1,3.5,7.5,15.3,12.4,21.3c4.9,6,8.6,4.9,9.9,6.6s5.4,5.4,7.5,5.6c2.1,0.3,8-0.3,8.7,1c0.7,1.3,1.3,2.7,0,3
	c-1.3,0.3-10,6-14.3,9.7c-4.3,3.7-9.7,5.7-14,7.3C47,253.3,15.5,265,2.5,270.5c0,0-4.5,105.8,1.8,133c40.2,6.5,354.5,4.5,362.5,2
	C361.2,399,359.3,395.7,352.5,384.3z M95.9,230c-2.9,2.9-5.4-3-5.1-5.6c0.2-2.9,2.1-0.6,5.1,1.6S97.1,229,95.9,230z M209.9,229.6
	c-2.3,2.3-3.5,0.5-4.8-0.9c-0.8-0.8-0.9-4.1,0.6-2.8c1.5,1.4,1.8,1.2,4.1-0.6C212.2,223.5,212.1,227.4,209.9,229.6z"/>
</svg>
