<?xml version="1.0" encoding="utf-8"?>
<!-- Generator: Adobe Illustrator 20.1.0, SVG Export Plug-In . SVG Version: 6.00 Build 0)  -->
<svg version="1.1" id="Layer_1" xmlns="http://www.w3.org/2000/svg" xmlns:xlink="http://www.w3.org/1999/xlink" x="0px" y="0px"
	 viewBox="0 0 436 601" style="enable-background:new 0 0 436 601;" xml:space="preserve">
<path d="M162.7,594.3c0,0,9.3,12.7,21.3,2c0,0,8.7-85.3,12.3-112.7c1.3-2,26.3-31.3,8-88.7c0.3-3.3,0.7-9.7-3-13.3
	c0.3-2,1-4,4.3-8.3C209,369,432,50.7,434.7,18.7c2.7-32-156-15.3-166,0s-26,52-31.3,70c-5.3,18-49.3,147.3-56,163.3
	c-6.7,16-19.3,59.3-46.7,91.3c-6.7,8-7,10.7-26.3,22.3c-1.7,2.3,2.3,8.3,2.7,9c0.3,0.7,3,3.7-5.3,8c-1.7,2.3-0.7,3.3,2.7,15.7
	c0.7,3-18.3,33.3-26.3,48c-8,14.7-28.3,57.3-30.7,62.3c-1.3,0-2-1.3-3.7-2.3s-1.7,6-1.7,7s-2.7-0.3-3.7-0.7s-3,2.7-3,5.3
	c-0.7,2-13,8-21.7,10S-1,527.3-1,537.3s0,16,0,21.7s2.7,10.7,7.3,15s41.3,34.3,97,24c5.3-1.3,10-0.7,20.3-25.7s30.7-58.3,32-60.3
	c1.3-2,4-7.7,6.7,15.7C165,551,162.7,594.3,162.7,594.3z"/>
</svg>
