<?xml version="1.0" encoding="utf-8"?>
<!-- Generator: Adobe Illustrator 20.1.0, SVG Export Plug-In . SVG Version: 6.00 Build 0)  -->
<svg version="1.1" id="Layer_1" xmlns="http://www.w3.org/2000/svg" xmlns:xlink="http://www.w3.org/1999/xlink" x="0px" y="0px"
	 viewBox="0 0 321 579" style="enable-background:new 0 0 321 579;" xml:space="preserve">
<path d="M275.5,308.7c0,0-27-123.5-27-132.5s-4-92.5-84.5-145.5S0.5,10.7,0.5,10.7c4.5,18,83.5,105,91,117s44.5,73.5,52.5,87.5
	s16,29,21.5,37.5c5.5,8.5,18,36,22.5,44s17,53,16.5,66.5c-1.5,1.3-5.7,3.3-1.4,8.3c3.2,4.1,6.7,8.6,1,17.2
	c-5.7,8.6-40.1,102-42.1,108.2c-2,0-7.5-1.5-4.8,4.2c1,2.5-0.8,2.5-4.2,2.2c-2.8,0.2-3.2,1.5-3,5.8c-0.8,2.5-16.5,12.3-22.5,15.5
	c-6,3.2-12.2,6.8-15,7.2s-2.5,4.5-2.5,8.2s0.8,25,13.8,29.8s39.2,15,76.2,2.2s36.5-9,46.2-37.2c9.8-28.3,24.8-65.3,26-68
	s2.2-2.2,5.2,7s11.8,36.8,11.8,75c0-0.2,14.2,7.2,22-4.5c0.2,0,0-117.5,0-117.5s34-58.2-28.2-106.2C284,319.7,292,310.2,275.5,308.7
	z"/>
</svg>
