<svg xmlns="http://www.w3.org/2000/svg" viewBox="0 0 30.78 35.11"><title>num-6</title><g id="Layer_2" data-name="Layer 2"><g id="clock_screen" data-name="clock screen"><path d="M28.58,13.4l-2.77-.17q-1.36-.07-3-.12T19.2,13l-4.86,0q-1.41,0-2.58.07a8.28,8.28,0,0,0-2,.35,2.82,2.82,0,0,0-1.34.85,2.35,2.35,0,0,0-.47,1.55A4.45,4.45,0,0,0,8,16.92a16.44,16.44,0,0,1,2-.61A15.65,15.65,0,0,1,12.31,16q1.36-.12,3.45-.17t5.33,0q4.84,0,7.26,2.14A7.7,7.7,0,0,1,30.78,24q0,5.55-2.82,8.34t-8,2.8q-.66,0-1.83,0t-2.51-.14l-2.7-.19-2.44-.19q-4.79-.38-7.33-2.7t-2.77-7Q.24,21.76.12,18.47T0,11.94Q0,6.11,3.22,3.06T12.64,0Q16.78,0,21,.07T29,.28c0,.47,0,.94,0,1.41s0,.94,0,1.41q0,2.73-.14,5.31T28.58,13.4ZM21.95,26.32a2,2,0,0,0,1.79-2.16,2.47,2.47,0,0,0-.66-1.86,3.05,3.05,0,0,0-2.16-.63l-3.43,0-3.52,0-3.38,0q-1.65,0-3,.07A2.13,2.13,0,0,0,5.36,24.3a2.26,2.26,0,0,0,.33,1.32,1.85,1.85,0,0,0,1,.68,6.77,6.77,0,0,0,1.76.24l2.51,0h3.22q1.71,0,3.27,0l2.75-.07A11.92,11.92,0,0,0,21.95,26.32Z"/></g></g></svg>