<svg xmlns="http://www.w3.org/2000/svg" viewBox="0 0 29.38 35.3"><title>num-5</title><g id="Layer_2" data-name="Layer 2"><g id="clock_screen" data-name="clock screen"><path d="M2.54,34.26q-.33-1.6-.56-3.41t-.33-4.21q2.07.1,4.14.09H9.92q6.63,0,13.4-.28,2.54-.14,2.54-2.12a1.93,1.93,0,0,0-2.16-2.21q-5.41,0-11.23.16t-11.28.45q-.47-5.22-.71-11T0,0Q7.14,0,14.15.33t14,.94q.28,3.24.38,6.32t.09,6.18q-2.73-.19-5.43-.26t-5.43-.07q-2.82,0-5.69.09t-5.73.24q-.14.8-.26,1.88t-.21,2.07l3.06-.09,3.38-.07,3.53,0h3.43A19.74,19.74,0,0,1,24,18a8.15,8.15,0,0,1,3.13,1.43,5.31,5.31,0,0,1,1.69,2.33A9,9,0,0,1,29.38,25a13.74,13.74,0,0,1-.61,4.21,8.91,8.91,0,0,1-1.83,3.27,8.12,8.12,0,0,1-3.13,2.12,12.07,12.07,0,0,1-4.44.75Q15.23,35.3,11,35T2.54,34.26Z"/></g></g></svg>