<svg xmlns="http://www.w3.org/2000/svg" viewBox="0 0 51.66 35.86"><title>num-12</title><g id="Layer_2" data-name="Layer 2"><g id="clock_screen" data-name="clock screen"><path d="M49.78,35.58q-1.27.09-2.75.14l-3,.07-3,0-2.63,0q-4.42,0-8.72-.16l-8.86-.35q.14-3.29.35-5.8t.49-4.35a19.61,19.61,0,0,1,.68-3.06,6.82,6.82,0,0,1,1-2,7.42,7.42,0,0,1,3.29-2.54,12.73,12.73,0,0,1,4.84-.85q1.6,0,3.5.14t3.74.33l3.41.33q1.57.14,2.51.14a2.14,2.14,0,0,0,1.65-.56,3.11,3.11,0,0,0,.52-2.07q0-2.07-1.83-2.12-1.5-.09-3-.09H39q-3.67,0-7.4.14l-7.26.28q-.19-1.5-.26-3.06T24,7.1q0-1.83.09-3.64T24.35,0q2.4,0,4.49,0l4,.12q1.95.07,3.88.21t4,.33q5.45.52,8.18,2.8t2.73,7.07A19.45,19.45,0,0,1,51,16.12a10.57,10.57,0,0,1-1.81,3.64,6.6,6.6,0,0,1-2.61,2,8.11,8.11,0,0,1-3.13.61q-1.46,0-3.34-.12L36.36,22l-3.48-.28q-1.62-.14-2.51-.19-3.39,0-3.62,4.84,3.57.19,7,.28t6.84.09q2.35,0,4.39-.07l4.54-.16q.19,1.36.3,2.82t.12,3.1Q49.92,34,49.78,35.58Z"/><path d="M6.3,35.66q.23-4.42.4-8.84T6.86,18q0-1.36,0-2.77t-.07-2.77a6.74,6.74,0,0,0-1.57.87q-.73.54-1.48,1.15-1-1.74-2-3.81A41.9,41.9,0,0,1,0,6.2Q1.36,4.5,2.77,3a39.82,39.82,0,0,1,3-2.89,72.74,72.74,0,0,1,9.35,1C15,7,14.86,12.75,14.69,18.44s-.46,11.26-.87,16.71A40.19,40.19,0,0,1,6.3,35.66Z"/></g></g></svg>