<svg xmlns="http://www.w3.org/2000/svg" viewBox="0 0 29.85 35.72"><title>num-2</title><g id="Layer_2" data-name="Layer 2"><g id="clock_screen" data-name="clock screen"><path d="M0,35.72Q0,32.43.09,30T.42,25.8A19.43,19.43,0,0,1,1,22.89a7.7,7.7,0,0,1,.87-2q2.44-3.76,8.84-3.76,1.55,0,3.41,0l3.62.12,3.27.12q1.5,0,2.4,0A2.1,2.1,0,0,0,25,17a2.56,2.56,0,0,0,.52-1.83A2.66,2.66,0,0,0,25,13.32a2,2,0,0,0-1.53-.54q-5,0-9.89.38T3.67,14q-.52-3.34-.85-6.74t-.38-7l4-.16q2-.07,4-.07t3.95,0q2,0,4,.14Q24.16.47,27,3.1T29.8,11a18.65,18.65,0,0,1-.63,5.24,9.75,9.75,0,0,1-1.72,3.45,6.06,6.06,0,0,1-2.58,1.88,9,9,0,0,1-3.2.56q-1.46,0-3.29,0L14.76,22q-1.79,0-3.31-.07T9,21.9a2.82,2.82,0,0,0-2.58,1.39A7.13,7.13,0,0,0,5.59,27q6.11,0,12.13-.19T29.85,26q-.33,2.59-.78,4.72t-1,3.92q-7.14.8-14.1.92T0,35.72Z"/></g></g></svg>