<svg xmlns="http://www.w3.org/2000/svg" viewBox="0 0 31.21 35.3"><title>num-8</title><g id="Layer_2" data-name="Layer 2"><g id="clock_screen" data-name="clock screen"><path d="M31.21,26.93a10.84,10.84,0,0,1-.89,3.67A6.84,6.84,0,0,1,28.46,33a7.83,7.83,0,0,1-2.68,1.41,12.68,12.68,0,0,1-3.41.52l-2.7.12-2.87.12-2.8.07-2.49,0q-5.5,0-8.23-1.76A6.19,6.19,0,0,1,.56,27.92a8.22,8.22,0,0,1,1.22-4.79A8.58,8.58,0,0,1,5.45,20.3Q0,18.24,0,11.51A12.51,12.51,0,0,1,.85,6.67,9.25,9.25,0,0,1,3.22,3.29,10.38,10.38,0,0,1,6.79,1.22,19.39,19.39,0,0,1,11.23.28Q13.35.09,15.77,0t4.82,0q5.31,0,7.94,2.89t2.63,9a10.77,10.77,0,0,1-.94,4.75A7.9,7.9,0,0,1,26.93,20Q31.21,21.15,31.21,26.93ZM21.81,24a1.83,1.83,0,0,0-1.93-2q-1.83-.09-4.35-.17t-5.1-.07q-3.34,0-3.34,2.68,0,2.16,2.35,2.16h2.61l2.73,0,2.51,0q1.17,0,2-.07Q21.81,26.32,21.81,24Zm4-8.55a2.85,2.85,0,0,0-.54-2,2,2,0,0,0-1.53-.59q-1,0-2.58.07t-3.24.19l-3.34.26q-1.65.14-2.77.28A2.07,2.07,0,0,0,9.68,16q0,1.46,1.74,1.65.89.14,2.19.23t2.75.17q1.46.07,3,.09l3,0A8.57,8.57,0,0,0,23.64,18a3.19,3.19,0,0,0,1.1-.38,2,2,0,0,0,.78-.8A3,3,0,0,0,25.8,15.46Z"/></g></g></svg>