<svg xmlns="http://www.w3.org/2000/svg" viewBox="0 0 25.19 35.72"><title>num-4</title><g id="Layer_2" data-name="Layer 2"><g id="clock_screen" data-name="clock screen"><path d="M0,24.67Q3.57,18,7.36,11.91T15.13,0l7.52.8q.28,6.3.28,12.5,0,5-.28,10.15l1.08-.09a8.78,8.78,0,0,0,1-.14,35,35,0,0,1,.31,3.67q.07,2,.12,4.37a19.4,19.4,0,0,1-2.4.14q-.09,1-.14,2t-.14,1.93a27.6,27.6,0,0,1-3.78.33q-2,0-4.72,0,.38-2.26.56-4.61Q7.8,31.77.61,32ZM19.6,13.58A71.12,71.12,0,0,0,9.68,24.11q.52,0,1,0h1q1.79,0,3.57-.17t3.76-.4q.33-2.54.47-5T19.6,13.58Z"/></g></g></svg>