<svg xmlns="http://www.w3.org/2000/svg" viewBox="0 0 53.77 36.33"><title>num-10</title><g id="Layer_2" data-name="Layer 2"><g id="clock_screen" data-name="clock screen"><path d="M6.3,36.33q.23-4.42.4-8.84t.16-8.84q0-1.36,0-2.77t-.07-2.77A6.74,6.74,0,0,0,5.19,14q-.73.54-1.48,1.15-1-1.74-2-3.81A41.9,41.9,0,0,1,0,6.86Q1.36,5.17,2.77,3.64a39.82,39.82,0,0,1,3-2.89,80.56,80.56,0,0,1,9.35,0c-.09,5.92-.23,12.67-.4,18.35s-.46,11.26-.87,16.71A40.19,40.19,0,0,1,6.3,36.33Z"/><path d="M51.65,26.56a15.59,15.59,0,0,1-1.46,4.51,7.87,7.87,0,0,1-2.33,2.73,8.13,8.13,0,0,1-3.24,1.34,22.42,22.42,0,0,1-4.16.35q-3.9,0-6.63-.09L29,35.2a7.65,7.65,0,0,1-5.92-3Q21,29.42,21,24q0-4.37.09-7.54t.4-5.5a23.31,23.31,0,0,1,.85-4,14.33,14.33,0,0,1,1.43-3.15,7.08,7.08,0,0,1,3.17-3A11,11,0,0,1,31.4,0q1.83,0,3.88.14t4,.33q2,.19,3.74.4t3.08.4q4.18.61,5.92,2.89t1.74,6.7a38.67,38.67,0,0,1-.21,3.88q-.21,2.09-.54,4.18T52.33,23Q52,25,51.65,26.56Zm-5.5-12.88c-4.75-.81-11.42-.56-16.1-.06-.83,3.25-.66,11.42,0,13.58a67.49,67.49,0,0,0,15.5.17C46.25,25.2,46.48,17.74,46.15,13.68Z"/></g></g></svg>