<svg xmlns="http://www.w3.org/2000/svg" viewBox="0 0 27.54 36.19"><title>num-3</title><g id="Layer_2" data-name="Layer 2"><g id="clock_screen" data-name="clock screen"><path d="M1.32,36.19a84.41,84.41,0,0,1-.71-9.12l3.88,0L8.81,27l4.3-.12,3.9-.14,3.05-.12q1.27,0,1.79-.09a2.58,2.58,0,0,0,1.69-.59A2.39,2.39,0,0,0,24,24.25a1.56,1.56,0,0,0-.49-1.32,3.36,3.36,0,0,0-1.57-.52q-1.65-.23-3.52-.33T14.76,22q-2.68,0-5.36.14A18.45,18.45,0,0,1,9,18v-.59a5.55,5.55,0,0,1,0-.68q1.83-.85,3.69-1.76a28.48,28.48,0,0,0,3.5-2c-.5,0-1,0-1.53,0H13.11q-3.34,0-6.6.26T0,13.82q0-3.52.17-7T.61,0Q7.38.19,14,.61T27.35,1.83q0,2.59-.17,4.77t-.45,4.11a47.06,47.06,0,0,1-4.82,2.66Q19.5,14.52,17,15.56l.92-.07.87,0a14.43,14.43,0,0,1,3.64.42,7,7,0,0,1,2.75,1.36,6.09,6.09,0,0,1,1.74,2.47,10,10,0,0,1,.61,3.69A17.32,17.32,0,0,1,26.77,29a8.36,8.36,0,0,1-2.23,3.55,8.84,8.84,0,0,1-2.8,1.72,19.59,19.59,0,0,1-4.25,1q-2.63.38-6.56.56T1.32,36.19Z"/></g></g></svg>