<svg xmlns="http://www.w3.org/2000/svg" viewBox="0 0 31.25 35.49"><title>num-9</title><g id="Layer_2" data-name="Layer 2"><g id="clock_screen" data-name="clock screen"><path d="M3.2,34.4A33.59,33.59,0,0,1,2.89,31q-.07-1.79-.07-3.85,2,.19,4.61.35t5.05.28l4.44.19q2,.07,2.77.07Q23,28,23,24.06v-.47a2.44,2.44,0,0,0,0-.47,8.52,8.52,0,0,1-1.27.73,6.49,6.49,0,0,1-1.5.47,18.37,18.37,0,0,1-2,.26q-1.1.1-2.56.09t-3.1-.09q-1.6-.09-3.29-.33Q0,22.84,0,11.61,0,6.2,2.82,3.41T11,.24Q13.35.09,16.07,0t5.41,0q9.77,0,9.78,11.56,0,2.91-.12,5.78t-.26,5.78a18.26,18.26,0,0,1-.94,5.15,10.78,10.78,0,0,1-2.3,3.88,10,10,0,0,1-3.76,2.47,14.73,14.73,0,0,1-5.31.87q-1.51,0-3.43-.09t-4-.23Q9.07,35,7,34.83T3.2,34.4Zm17-14.66A3.2,3.2,0,0,0,22.42,19a3.26,3.26,0,0,0,.85-2.54,2.54,2.54,0,0,0-.85-2.07,3.58,3.58,0,0,0-2.07-.8l-2.14-.12-2.77-.12-2.75-.07-2.16,0a4.67,4.67,0,0,0-2.91.8,3.12,3.12,0,0,0-1,2.63,2.52,2.52,0,0,0,.49,1.67,2.88,2.88,0,0,0,1.72.82,7.28,7.28,0,0,0,1.25.14l2,.12q1.13.07,2.37.12l2.37.09,2,.07Z"/></g></g></svg>