<svg xmlns="http://www.w3.org/2000/svg" viewBox="0 0 34.09 35.59"><title>num-11</title><g id="Layer_2" data-name="Layer 2"><g id="clock_screen" data-name="clock screen"><path d="M6.3,35.59q.23-4.42.4-8.84t.16-8.84q0-1.36,0-2.77t-.07-2.77a6.74,6.74,0,0,0-1.57.87q-.73.54-1.48,1.15-1-1.74-2-3.81A41.9,41.9,0,0,1,0,6.12Q1.36,4.43,2.77,2.9A39.82,39.82,0,0,1,5.73,0a72.74,72.74,0,0,1,9.35,1c-.09,5.92-.23,11.67-.4,17.35s-.46,11.26-.87,16.71A40.19,40.19,0,0,1,6.3,35.59Z"/><path d="M25.3,35.59q.23-4.42.4-8.84t.16-8.84q0-1.36,0-2.77t-.07-2.77a6.74,6.74,0,0,0-1.57.87q-.73.54-1.48,1.15-1-1.74-2-3.81A41.9,41.9,0,0,1,19,6.12q1.36-1.69,2.77-3.22a39.82,39.82,0,0,1,3-2.89,72.74,72.74,0,0,1,9.35,1c-.09,5.92-.23,11.67-.4,17.35s-.46,11.26-.87,16.71A40.19,40.19,0,0,1,25.3,35.59Z"/></g></g></svg>