<?xml version="1.0" encoding="utf-8"?>
<!-- Generator: Adobe Illustrator 20.1.0, SVG Export Plug-In . SVG Version: 6.00 Build 0)  -->
<svg version="1.1" id="Layer_1" xmlns="http://www.w3.org/2000/svg" xmlns:xlink="http://www.w3.org/1999/xlink" x="0px" y="0px"
	 viewBox="0 0 160 500" style="enable-background:new 0 0 160 500;" xml:space="preserve">
<style type="text/css">
	.st0{opacity:0.7;fill:#431020;}
</style>
<path class="st0" d="M122.2,437.2c0.3,0.6,0.4,1.6,0.8,1.8c6.3,2.3,7.1,9.5,11.6,13.6c2.2,2,4.1,6.5,4.6,10.8
	c0.5,3.7,1.8,7.5,2.6,11.3c0.2,1.1,0,2.1,1.7,2.4c6.3,1,2.2,4.3,1.5,7c-0.3,0.9-1.3,1.1-1.4,0.9c-2.3-4.5-9.7,0-11-6.2
	c-0.1-0.3-1.1-0.7-1.6-0.6c-5.4,1.1-8.9-2.2-12.7-5.1c-1.2-0.9-2.1-1.8-2.7-3.4c-1.9-4.7-4.3-9-10.6-7.6c-1.3,0.3-2.2-0.6-3.1-1.3
	c-0.6-0.5-0.9-1.1-1-1.8c-0.6-3-0.5-5.9,1-8.7c0.6-1.2,1.5-3,2.7-2.7c4.2,1.2,6.8-3.3,10.8-2.3c-0.2-1.9-2.2-1.8-2.5-3.1
	c-0.1-0.5-0.2-0.9,0-1.4c0.7-1.3,1.7-2.4,2.7-3.5c1.7-1.4,3.7-1.5,5.7-0.9C121.7,436.4,122,436.8,122.2,437.2z"/>
<path class="st0" d="M102,459c0,0.6,0,1.2,0,1.7c-2.5,1.9-1.9,5-3.1,7.5s-2.1,5.8-5.9,2.5c-1.5-1.3-3.3-0.8-4.8,0.6
	c-1.6,1.5-0.3,2.7,0.4,3.7c1.1,1.4,1,2.3-0.6,3c-1,0.4-2.4,0.2-2.4-0.8c0.1-3.5-6.6-0.2-5-5.5c1-3.3,3.9-5.8,3.4-9.6
	c-0.2-0.3-0.3-0.5-0.3-0.8s0.1-0.4,0.2-0.4c0.7-0.9,1.8-1.5,1.9-2.8c0.2-3.9,2.8-6.2,4.3-7.4c-1.6,1.5-5.6,0.4-8.5,2.5
	c-1.5,0.8-3,1.6-4.6,2c-2.9,0.6-5.3-0.2-7.2-2.4c-0.4-0.3-0.7-0.6-1.1-0.9c-1.4-1.4-2.9-2.8-4.9-3.2c-0.6-0.3-1.1-0.7-0.7-1.5
	c0.3-1,1-1.6,1.9-2c1-1.7,1.9-3.6,4.1-4.1c2.8-3.4,5.4-7.1,9.9-1.9c0.3,0.3,0.5,0.9,1.1,0.3c5.2-4.5,12.9-2.8,18.1-7.5
	c1.4-1.3,2.8-0.4,4.1,0.3c0.6,3.6,2.7,5.2,6.5,5.1c1.6,0,3.3,0.4,4.7,1.5c0.5,0.7,0.4,1.3,0,2l-0.3,0.4c-4.8,0.6-9,1.8-11.8,6.7
	c-1.5,2.6-2.4,4.4-0.8,7C101.2,456.1,100.9,457.8,102,459z"/>
<path class="st0" d="M127.9,315.2c1.9,1.2,4.5-0.6,6.2,2.2c0.9,1.5,1.4,2.6,0.7,3.9c-0.7,1.5-1.9,2.8-3.9,1.5
	c-0.2-1.8-1.1-1.5-2.1-0.6c-0.6,0.3-1.2,0.5-1.8,0.8c-2,0.8-2.6-1-3.6-2c-1.2-1-2.4-2.1-4-1.2c-1.7,1-1.1,2.6-0.7,4
	c0.4,1.3,1.2,2.4,1.5,3.7c0.1,0.5-0.1,0.9-0.4,1.3c-1.3,3.2-2.9,5.4-7.1,5.3c-2.8-0.1-5.4,2.4-7.9,3.6c-5.5,2.6-11.5,5.4-17.9,4.6
	c-3.1-0.4-6,1.7-9.1,0.5c-1.4-1.4-1.5-3.6-3.4-4.7c-4.2-2.7-4.6-6.4-2.7-10.7c0.3-0.4,0.6-0.8,1.1-1.1c1.7-1.1,3.4-2.1,5.1-3.2
	c2.2,1,4.3,2.5,7,1.8c3.6,4.4,3.8,4.4,5.9-1c0.3-0.8,0.8-1.3,1.8-1.4c3.8-0.2,6.9-2.3,10.4-3.5c1.6,0.5,3.3,0.7,4.9-0.1
	c2.5-0.8,4.8-2.1,6.5-4.2c2.9-3.7,5.7-3.8,8.6,0C124.6,316,126.3,315.6,127.9,315.2z"/>
<path class="st0" d="M73,326.4c0,0.3-0.1,0.6-0.1,0.9c-1,0.8-2.3,1.3-2.5,2.8c-0.3,1.8-0.7,3.6-1.6,5.2c-1,1.6-1.2,3,1,3.8
	c2.7,1,4.8,2.7,6.4,5c0.5,4.7-0.6,8.6-5.2,10.9c-1.4,1.2-2.7,1.2-4.1,0c0.2-0.8,0.2-1.7,0.7-2.3c2.3-3.5,1.6-4.9-2.7-4.7
	c-3.9,0.3-7.1-2.5-10.8-3.2c-1.2-1.4,0.1-3.3-0.9-4.8c-1.2-3.8-2.2-7.4-7.2-8.3c-2.3-0.4-4.4-2.7-1.7-5.6c0.7-0.7,1.5-1.4,1.3-2.5
	c-1-1.2-2.6,0.1-3.7-0.7c-1.5-3.5,3.1-4.4,3.2-7.2c0.9-1.8,2.2-3.2,4.1-4c1,0.1,1.8,0.1,2.8-0.2c5.4-1.6,7.2,0.3,5.9,6.1
	C65.2,316.7,67,324.9,73,326.4z"/>
<path class="st0" d="M89,218.1c-3.2,1-6.5,2-9.7,2.9c-0.8,1.3-1.6,2.6-3.3,2.9c-2.9,0.9-5.4,0.4-7.3-2s0.3-4.2,1.3-6
	c-1.1-1.6-2.6-1-3.8-0.9c-3.1,0.1-4.9-1-4.4-4.2c0.4-2.3-0.2-3-2.5-2.8c-3.2,0.3-4.6-2.5-6-4.5c-1.1-1.7-0.7-4.2,2.1-4.4
	c2.6-0.2,3.3-1.8,4-3.7c1.7-4.3,6-5,8.9-1.3c1.2,1.5,1.6,3.3,4.4,2.1c3.8-1.5,5.4,0.5,5.1,4.4c-0.2,2.9,5.4,11.4,8.1,12.3
	c0.2,0.1,0.3,0.3,0.5,0.4c0.7,1,1.3,2.2,2.2,3.1C89.1,216.9,89.4,217.5,89,218.1z"/>
<path class="st0" d="M143,181c2.9-0.1,5.4,2.3,8.8,0.1c1.7-1.1,3.4,1.3,2.2,3.8c-0.9,1.8-2,3.4-2.6,5.2c-0.5,1.4-1,3.1,1.5,3.9
	c1.4,0.4,2.4,1.8,1.6,3.6c-0.5,1.1-1.1,2.2-2.4,2.4c-1.9,0.3-2.6-0.9-3.1-2.5c-0.3-1-0.6-2.3-2.8-2.4c0.6,5.9-4.4,10.5-3.4,16.7
	c0.3,1.8-2.1,2.8-3.7,3.7c-1.7,1-2.6-0.4-3.3-1.3c-2.2-3-6.1-4.2-7.6-8.1c-2.2-5.8-1.1-10,4.8-12.3c1.9-0.8,3.6-1.4,2.2-3.8
	c-2.1-3.7-0.2-5.3,3-6.5c0.7-0.3,1.3-1,1.9-1.5C140.7,180.6,141.6,180.1,143,181z"/>
<path class="st0" d="M50,442c0-0.7,0-1.9-0.1-1.9c-4-0.8-3.8-5.4-6.3-7.2c-7.5-5.6-10.1-14.9-16.5-21.3c-0.6-0.6-1.2-1.3-1.9-1.5
	c-5.2-1.2-4.8-3.5-0.2-7.5c-4.6,1.8-6.2,1.2-7.1-2.7c-0.9-3.8,0.4-5.4,3.4-6.6c1.4-0.6,3.1-0.4,3.3,0.9c0.5,3.7,4.6,5.6,4.5,9.5
	c0,2.3,2.8,1.5,3.5,2.6c2.7,4.4,7.5,7.3,9.6,11.7c1.8,3.8,5.5,6.3,6.2,10.6c0.2,0.9,1.8,0.9,2.4,1.4c4.9,4.9,10.1,9.5,11.3,16.9
	c0.2,0.5,0.1,0.8-0.3,1.2c-0.2,0-0.4,0.1-0.7,0.1c-1.9-0.8-2.6-2.9-4.5-3.7c-1.7-1.1-3.6-1.4-5.5-1.8C50.7,442.6,50.3,442.3,50,442z
	"/>
<path class="st0" d="M89,218.1c-0.3-0.4-0.6-0.7-0.9-1.1c-0.9-1.1-1.4-2.3-1.7-3.6c-0.1-0.2-0.2-0.3-0.4-0.5c1.4-2,3.1-3.8,1.2-6.6
	c-0.6-0.9-0.7-2.5,0.9-3.4c1.8-1.1,2.5,0.4,3.7,1.2s0.9,4,3.8,2.1c2.1-1.3,4.6-1.8,3.5-5.2c-0.5-1.4,0.3-2.5,1.8-3.1
	c2.1-0.7,4.1-0.7,6.2,0.1c0.5,0.9,2.1,1.4,1.4,2.8c-1.2,2.6,0.1,4.2,1.8,6c2.4,2.6,2.7,5.5,0.1,8.3c-1.7,1.8-2.9,4-4.7,5.7
	c-1.8,1.8-4,2.7-6.7,1.5c-1.2-0.5-2.6-1.1-4.1-0.5C89.8,224,89.3,223.6,89,218.1z"/>
<path class="st0" d="M55.2,464c-1.1-1.6-2.2-3.3-3.3-4.9c-0.3-3.4-0.2-6.7,3.5-8.4c0.9,0.1,1.5,0.6,2,1.3c1.3,1.7,1.1,4.9,3.5,5.1
	c1.8,0.1,3.6-1.9,5.6-2.7c0.9-0.5,1.8-0.9,2.8-0.5c2.2,1.2,3.5,3.1,3.8,5.6c1,5.3,0.2,10.4-1.2,15.5c-1.9,4.1-4.4,5.1-8,3
	C58.7,474.9,56,470,55.2,464z"/>
<path class="st0" d="M40,323.1c-1.2,1.1-2.3,2.5-4.1,1.2c-1.6-1.2-1.4-3.1-0.5-4.5c2.8-4.5-0.1-6.3-3.5-7.8
	c-5.2-2.2-5.4-2.9-2.8-7.9c0.4-0.7,0.7-1.5,0.9-2.3c0.9-3.7,3.6-5.2,7-3.2c1.5,0.9,2.9,1.5,4.4,1.7c6.2,0.9,7.5,2.4,7.3,8.7
	c-1.6,2.2-4.5,3.8-3.5,7.3C43.8,318.8,40.8,320.1,40,323.1z"/>
<path class="st0" d="M99.1,94.1c-1.8-0.2-4.1,0-5.4-2.6c-1.6-3,1.3-3.8,2.5-5.1c1.7-1.8,2.6-2.9-0.3-4.4c-3.1-1.6-2-3.8-0.1-5.6
	c3.1-2.9,7.4-3.2,11.1-4.8c2.4-1,6.9,5.9,6,8.9c-0.7,2.5-2.1,4.5-4.2,5.9c-1.3,0.8-2.3,1.6-2.9,3.2C104.3,94.1,104.1,94.1,99.1,94.1
	z"/>
<path class="st0" d="M130.7,352.9c-1.1,2.5-4.6,1.5-7.1,0.7c-1.8-0.6-4.8-2.3-3.1-5.6c0.7-1.3,0-1.5-1-2.1c-1.3-0.8-4.3-1.5-1.8-3.6
	c1.7-1.5,4.5-4.3,6.6-0.9c1.4,2.3,4.3,2.8,5.1,5.6c0.5,1.7,1.9,0.8,3.2,0.1c3.4-1.7,7.3-3,9.9,0.9c2,3,0.8,7.2-0.5,9.4
	c-1,1.7-5.5,0.7-7.7-2.2C133.6,354,131.9,353.6,130.7,352.9z"/>
<path class="st0" d="M55.2,464c2.6,4.4,3.8,9.8,8.8,12.7c3.2,1.9,5.4,1.9,7.1-1.7c0.5-0.7,0.9-1.6,2-0.9c-0.6,3,5.4,2.3,3.4,5.7
	c-1.3,2.2-3.5,3.7-5.3,5.6c-0.9,0.9-1.9,1.6-2.4,3c-0.6,1.7-2.3,2.3-4,2.1c-1.7-0.2-1.9-1.5-1.8-3c0.1-2.2-2.6-2.5-3-4.3
	c-1.2-2.3,0.3-4.9-0.9-7.1c-1.4-1.4-1.7-3.4-3.7-4.6C52.1,469.4,55.4,466.5,55.2,464z"/>
<path class="st0" d="M122.1,409c1.7,1.6,2.7,3.5,3.1,5.8c1.5,2.1-0.8,4.5,0.5,6.7c-0.1,5.4-2.2,9.7-7.4,11.9c-1.7-0.3-3-1.1-3.6-2.7
	c0.3-3.9-0.4-7.9,0.4-11.8c0.1-3-1.9-6.3,1.2-8.8C117.9,408.6,119.9,408.1,122.1,409z"/>
<path class="st0" d="M67,84c3.3-0.4,6.7-1.5,9.1,1.9c-0.6,1.2-2.2,1.4-2.7,3.2c2.9,0,5.3,0.8,6,3.9c0.5,2.1-1.2,2.4-2.4,3
	c-0.2,2.6-2,3.6-4.1,3c-2.6-0.7-4.9-2.2-7.7-2.5c-1.5-0.2-1.7-2.1-1.1-3.3c1-2,0.7-4.2,1-6.2c0.8-0.4,1-1.2,1.2-2
	C66.4,84.6,66.7,84.3,67,84z"/>
<path class="st0" d="M73.1,474c-0.7,0.3-1.4,0.6-2,0.9c0.8-5.3,1.8-10.5,0.9-15.9c0.6-0.8,1.4-1,2.2-1c1.2,0,1.5-0.8,1.4-1.9
	c-0.1-0.9,0.4-1.6,1.1-2.1c1.6-0.7,3.2-1.4,4.8-2c1.1,0.9,1.8,2,2.4,3.3c0.3,1.2,0.3,2.3-0.1,3.4c0,1.9-4.3,1.1-2.6,4.1
	C81.2,468.7,76.3,470.8,73.1,474z"/>
<path class="st0" d="M56,451c-3.3,1.7-2.2,5.6-4,8.1c-4.3-0.8-3.2-5.6-5.6-8c-1.3-1.4,1-5.5-3.1-6.5c-0.6-0.1-0.1-1.5,0.5-2.1
	c0.7-0.7,1.2-1.6,2.5-0.9c1.2,0.6,2.4,1,3.8,0.5c0.4,0,0.7,0,1.1,0c3.6,0.9,3.1,4.9,5.3,6.9C56.6,449.7,56.5,450.4,56,451z"/>
<path class="st0" d="M138.2,325.1c1.3,1,3.1,1.2,3.9,3.3c1.2,3.2-0.5,6.2,0,9.4c0.1,0.6-1.4,2.2-1.8,2.1c-3.2-0.9-5.2-3.7-7.6-5.7
	c-1.6-1.3-1.1-3,0.8-4.4C135.3,328.4,135.2,325.2,138.2,325.1z"/>
<path class="st0" d="M66.9,355c1.4,0,2.7,0,4.1,0c0.4,1.3,2.1,2.7,0.4,3.9c-2,1.3-0.4,2,0.1,3.1s3.4,1.8,1.6,3.2
	c-1.9,1.5-4.6,2.3-7.1,2.6c-1.7,0.2-2-1.8-1.9-3.4c0.1-2.5-1.5-4.9-0.1-7.6C64.7,355.3,65.5,355,66.9,355z"/>
<path class="st0" d="M56,451c0-0.6,0-1.3,0-1.9c-1.3-2.1-0.8-3.7,1-5.1c2.7,0,3,2.4,4,4.1c-0.1,0.3-0.3,0.5-0.5,0.8
	c0.4,0.2,0.5,0.1,0.3-0.4c0-0.1,0.1-0.3,0.2-0.4c0.3-0.3,0.7-0.7,1-1c0.3,0.1,0.7,0.1,1,0c0.3,0.3,0.7,0.6,1,0.9
	c0.4,1.4,1.6,2.2,2.6,3.2c0.8,1.2,1.4,2.4,0.5,3.8c-0.8,2.5-4.9,1.6-5,4.9c-2.3-0.5-3.6-2.3-4.2-4.2C57.4,453.9,56.5,452.5,56,451z"
	/>
<path class="st0" d="M76.1,344.1c-3.6-0.3-4.9-4.5-9-4.6c-2-0.1-1.1-3.2,0.7-4.5c2-1.6,2-3.7,1.2-5.9c0.7-1.9,2-2.2,3.8-1.8
	c-1.4,4.6-1.6,8.6,3.9,10.8c2.2,0.9,1,3.1,1.2,4.8C77.3,343.3,76.7,343.7,76.1,344.1z"/>
<path class="st0" d="M77.9,86.9c0.6-3.1,3.3-3.1,5.5-3.8c1.4,4.2,4.8,7.8,3.5,12.8c-0.7,2.8-2.4,4.7-4.8,4.8c-1.5,0.1-4.6-0.5-4-3.7
	c0.4-0.4,0.8-0.6,1.3-0.7c4.3-1.1,4.3-1.3,1.6-4.4C79.8,90.3,78,89.2,77.9,86.9z"/>
<path class="st0" d="M71.5,240.3c-1.3,0.5-1.7,0-2.1-0.6c4.4-2.9-1.5-5.6,0-9.3c1.6-4,2.3-2.5,5-2c4.1,0.7,2.1,3.9,3.2,5.7
	c1.2,2-0.9,2.4-2.2,2.8C73.4,237.6,74.1,241.4,71.5,240.3z"/>
<path class="st0" d="M113,439.1c-2.9,0.3-5.6-0.9-8.6-0.9c-3.6,0-2.8-3.5-2.3-6c0.9-0.1,1.9-0.2,2.8-0.2c2.6-2,5.3-2.4,8.1-0.4
	c1.3,1.5,1.5,3.3,1.7,5.2C114.6,437.8,114.1,438.7,113,439.1z"/>
<path class="st0" d="M113,432c-2.7-0.3-5.4-1.3-8.1-0.1c0.5-1.4,3-1.8,2-3.9c0.7-1.3,1.8-1.9,3.2-2.2c1.6-0.9,2-2.4,1.8-4.1
	c-0.3-2.4,1.3-2.7,3-2.8c1.6,4,1.7,8,0,12C114.5,431.7,113.9,432,113,432z"/>
<path class="st0" d="M77.9,86.9c1.4,1.5,2.7,3.3,4.4,4.5c1.7,1.3,3.1,2.1,1.8,4.6c-1.2,2.4-2.8,1.5-4.5,1c-0.5-0.1-1-0.1-1.5-0.1
	c-0.4-0.3-0.7-0.6-1.1-0.9c1.9-2.7,1.3-5.7-1.1-5.7c-1.6,0-3.9,1.9-4.2-1.1c-0.2-2.5,1.9-3.5,4.4-3.3C76.7,86.3,77.3,86.6,77.9,86.9
	z"/>
<path class="st0" d="M120,328.1c-1.9-2.9-5.1-6.4-1.9-9.2c4.5-3.9,6.1,2.4,9,4.1c0,0.3-0.1,0.6-0.2,1
	C125.6,327,123.5,328.7,120,328.1z"/>
<path class="st0" d="M117.9,432.9c4.1-2.9,7-6.6,7.1-11.9c0.3-0.3,0.7-0.4,1.1,0c-0.4,5.6,0.8,11.7-3.9,16.3
	c-0.1-0.1-0.3-0.3-0.4-0.4c-1.8-1.5-4.5-1.1-6-3.1C116.1,432.5,116.9,432.3,117.9,432.9z"/>
<path class="st0" d="M121,305c-0.5,1.7-0.9,3.5-2.3,4.8c-1.1,1-2.1,1.5-3.5,0.6c-1.5-1-2.5-2.1-2.2-4c0.2-1.5,1-2.3,2.6-2.5
	c1.5-0.2,3.3,0.8,4.6-0.9C121.6,303.2,121.7,303.9,121,305z"/>
<path class="st0" d="M106,350.1c-1.3-1-1.9-2.4-2.1-4c0.3-1.2,1-1.8,2.2-2.1c2.8,0.6,7.4-1.9,6.9,4.1l0.1-0.1
	c-1.6,0.7-2.7,2.6-4.8,2.3C107.5,350.4,106.7,350.2,106,350.1z"/>
<path class="st0" d="M127.1,329.9c0.9,1.1,1.8,2.2,2.6,3.4c1,1.7,0.9,3.4-0.5,4.9c-0.9,1-2.1,1.1-3.1,0.5c-1.6-1-2.6-2.6-2-4.6
	c0.4-1.4,1.1-2.7,1.7-4C126.2,329.6,126.7,329.6,127.1,329.9z"/>
<path class="st0" d="M101.1,309.7c-0.3-0.1-0.6-0.1-1-0.2c-1.6-0.3-3.6,1.4-4.8-0.8c-0.8-1.5,0.1-2.5,1-3.5c1.8-2.1,3.8-1.3,5.7-0.2
	c0.4,0.2,0.6,0.7,0.8,1C102,307.2,103.2,309.3,101.1,309.7z"/>
<path class="st0" d="M120.9,185.3c0.1,1.8-0.3,2.9-1.8,2.8c-2.5-0.2-3.7-1.7-4.1-4c-0.4-2,0.6-3.6,2.3-3.5
	C120.4,180.5,119.1,184.4,120.9,185.3z"/>
<path class="st0" d="M141.5,220.6c2.8,3,2.2,5.8-0.9,8.2c-0.5,0.4-2.3,1.2-2.3,0.5C138.3,226.1,136.6,222,141.5,220.6z"/>
<path class="st0" d="M132,218.1c-0.2,1.9-1,3-2.5,2.8c-2.3-0.2-3.4-1.9-3.6-4.1c-0.2-1.4,0.1-3,1.9-2.8
	C130.1,214.4,131.1,216.5,132,218.1z"/>
<path class="st0" d="M124.8,401.5c0.2,2-1.5,2.1-2.8,2.4c-0.5,0.1-2.3,0.7-1.3-1.3s-2.3-5.7,1.5-6.3
	C125,395.9,123.3,399.9,124.8,401.5z"/>
<path class="st0" d="M79.2,221.7c0.8,0.1,1.6,0.3,2.5,0.4c2.2,0.2,2.4,2.1,2.9,3.6c0.3,1.1-0.5,2-1.5,2.2c-1.7,0.4-3.3,0.3-3.8-1.9
	C79.9,224.5,77.6,223.1,79.2,221.7z"/>
<path class="st0" d="M127.1,329.9c-0.4,0-0.9,0.1-1.3,0.1c-2,0-4.1,0.3-5.8-1.1c0-0.3,0-0.5,0-0.8c2.5-1.1,5-2.1,6.9-4.1
	C127.8,325.9,126.8,328,127.1,329.9z"/>
<path class="st0" d="M44.8,316.1c-2.7-4.6,0.6-5.8,4-7c0.1,0.9,0.2,1.8,0.4,2.7c0,2.2-2.6,2.5-3.2,4.3
	C45.6,316.5,45.2,316.6,44.8,316.1z"/>
<path class="st0" d="M126.1,420.9c-0.4,0-0.7,0-1.1,0c-4.5-2.1,1.7-4.1,0.1-6.2c0.7,1.8,3.6-0.3,4,2.6
	C129.6,420.2,126.9,419.6,126.1,420.9z"/>
<path class="st0" d="M122.1,409c-1.8,1.2-3.9,0.9-5.9,1c0.4-2.8,4.5-5.3,6.4-3.7C123.5,407.1,123.4,408.3,122.1,409z"/>
<path class="st0" d="M139,69.1c2.4,0.4,3.2,2.4,3.8,4.3c0.1,0.3-1.1,1.2-1.8,1.4c-1.8,0.6-3.2,0.1-3.8-1.9
	C137.4,71.4,137.6,70,139,69.1z"/>
<path class="st0" d="M121,305c-0.3-0.7-0.6-1.3-0.9-2c-0.4-2.2,1.1-3.5,2.8-3.8c1.4-0.2,2,1.4,2,2.8
	C124.9,304.7,123.3,305.3,121,305z"/>
<path class="st0" d="M110.1,425.8c-0.6,1.5-1.6,2.2-3.2,2.2c-1.2,0-2.7,0-2.6-1.4c0.1-1.6,1.4-2.8,2.9-3.3
	C109.4,422.7,109.3,424.8,110.1,425.8z"/>
<path class="st0" d="M44.8,316.1c0.4,0,0.7,0,1.1-0.1c0.8,3.6-4.3,3.7-4,6.9c-0.6,0.1-1.3,0.2-1.9,0.2
	C38.8,318.8,42.7,318.1,44.8,316.1z"/>
<path class="st0" d="M103.9,309.3c0.9,1.5,3.9,2.2,2.2,4.5c-1.1,1.5-3.2,1.9-4-0.9C103,311.9,101.8,309.8,103.9,309.3z"/>
<path class="st0" d="M115.7,85.1c0-1.7-3.4-3.6,0.3-5c0.6,0.5,1.6,0.1,2.1,1c-0.1,1.3-0.1,2.6-0.2,4
	C117.2,85.5,116.5,85.6,115.7,85.1z"/>
<path class="st0" d="M106,344c-0.4,1-1.1,1.7-2.2,2.1c-3-0.3-2.4-2.8-1.4-3.8C104.4,340.4,105,343,106,344z"/>
<path class="st0" d="M125.8,483.1c-0.6,1.5-1.5,1.9-2.8,1.8c-1.1-0.1-2-0.2-1.9-1.6c0.1-1.3,0.9-2.4,2.1-2.2
	C124.2,481.4,125,482.5,125.8,483.1z"/>
<path class="st0" d="M81,463c-1.2-0.1-2.8-0.5-2.5-1.8c0.5-2.1,3.2-1,4.5-2.3c0.6,0.1,1.1,0.5,1.4,1c0.1,0.4,0,0.8-0.4,1
	c0,0.3,0,0.7,0,1C82.8,461.7,81.7,461.8,81,463z"/>
<path class="st0" d="M110.5,187.2c0.7,0.9,2.4,1.2,1.9,2.8c-0.3,0.7-0.3,2.3-1.7,1.8c-1.3-0.4-2-1.7-2.2-3
	C108.4,188.4,109.8,187.8,110.5,187.2z"/>
<path class="st0" d="M143,181c-0.9,0.3-1.9,0.6-2.8,1c-0.6-1.9-3-1.8-3.8-3.5C139.7,176.7,141.2,179.3,143,181z"/>
<path class="st0" d="M85,325c-3,2.1-5.2,0.8-7-1.8C80.7,322.5,82.6,324.8,85,325z"/>
<path class="st0" d="M67,84c0,0.3,0,0.6,0,1c-0.5,0.7-1.2,1.1-2.1,1.2c-1.2-1.3-2.6-2.6-1.3-4.5C65.6,81.3,65.6,83.7,67,84z"/>
<path class="st0" d="M79.2,318.1c1.2-1.9,2.9-1.3,4.2-0.5c0.8,0.5,0.8,1.7-0.1,2.6C81.2,321,79.7,320.6,79.2,318.1z"/>
<path class="st0" d="M69,440.9c-1.5,1.3-2.1,3.3-4.1,4.1C63.4,440.8,64.9,439.6,69,440.9z"/>
<path class="st0" d="M131.4,84.3c1.6,0.7,3.7,0.5,4.5,2.4c0.3,0.6-0.3,1.3-1.1,1.2C132.6,87.8,131.6,86.5,131.4,84.3z"/>
<path class="st0" d="M135.1,70.8c-1.8-1.2-1.5-2.8-0.4-4.1c1-1.1,2.3-1.2,3.1,0.4C137.4,68.7,137.8,70.9,135.1,70.8z"/>
<path class="st0" d="M138.9,79.2c-0.3,1.1-0.9,1.8-2,1.7c-1.1-0.1-1.8-0.8-1.7-1.9c0.1-1,0.9-1.8,1.9-1.7
	C138.2,77.3,138.7,78.2,138.9,79.2z"/>
<path class="st0" d="M112.9,348.1c1.4-0.8,2.7-1.2,3,1.1c0.2,1.3-0.5,2.6-1.6,2.6C111.6,351.6,113.5,349.3,112.9,348.1
	C113,348,112.9,348.1,112.9,348.1z"/>
<path class="st0" d="M128.9,322.2c0.2-1.2-0.3-2.9,1.6-3.1c0.5-0.1,1.4,0.3,1.6,0.8c0.8,1.4-0.8,1.9-1.2,2.9
	C130.2,323,129.4,322.9,128.9,322.2z"/>
<path class="st0" d="M126.8,224.6c2.1,0.8,5.3,0.8,5.6,2.8c0.3,2.1-1.8,1-2.5,0.1C129,226.3,127.9,225.4,126.8,224.6z"/>
<path class="st0" d="M132.3,98.1c1.7,0.3,3.6-1.1,4.6,1.2c0.2,0.4-0.3,1.5-0.6,1.6C134.2,101.3,133.1,100,132.3,98.1z"/>
<path class="st0" d="M135.1,70.8c1.5-0.8,1.8-2.4,2.7-3.7c0.4,0.7,0.8,1.3,1.2,2c-0.1,1.5-0.7,2.8-1.8,3.9
	C136.5,72.2,135.8,71.5,135.1,70.8z"/>
<path class="st0" d="M79.2,221.7c0,1.4,1.7,2.9-0.1,4.3c-0.4-1.6-1.7-1.9-3.1-2c1.1-1,2.2-2,3.3-2.9
	C79.3,221.3,79.3,221.5,79.2,221.7z"/>
<path class="st0" d="M40,285.3c0.1,0.9-0.2,1.6-1.3,1.7c-0.9,0-1.5-0.3-1.6-1.3s0.3-1.5,1.3-1.6C39.3,284,39.9,284.3,40,285.3z"/>
<path class="st0" d="M103.9,309.3c-0.6,1.2-1.2,2.4-1.8,3.6c-0.3-1.1,0.3-2.5-1.1-3.2c0.6-1.2,1.2-2.4,1.7-3.7
	C103.2,307.2,102.7,308.5,103.9,309.3z"/>
<path class="st0" d="M52.2,190.1c-0.1,1.2-0.2,2.3-0.4,3.8c-1.2-1.2-4.4-1.6-0.9-3.9C51.4,189.5,51.8,189.6,52.2,190.1z"/>
<path class="st0" d="M73.9,111.1c-0.1,0.9-0.7,0.9-1.4,0.9c-1,0-1.6-0.4-1.5-1.5c0.1-0.9,0.2-1.8,1.4-1.3
	C73.2,109.5,73.8,110.2,73.9,111.1z"/>
<path class="st0" d="M138,313.8c-0.5,0.3-1.1,1.1-1.4,1c-0.7-0.3-1.3-0.9-1.7-1.6c-0.5-0.8,0-1.1,0.8-1.1
	C136.8,311.9,137.3,312.8,138,313.8z"/>
<path class="st0" d="M83,305.5c0,1.2-0.6,1.8-1.8,1.6c-0.7-0.1-1.3-0.5-0.8-1.2s0.3-2.1,1.7-1.8C82.9,304.2,83,304.9,83,305.5z"/>
<path class="st0" d="M106,350.1c0.9-1.3,1.6-0.8,2.3,0.2c0.3,0.6,1.2,1.4-0.3,1.6C106.4,352.2,105.8,351.6,106,350.1z"/>
<path class="st0" d="M58,298.1c0-1.3,0-2.7,1.8-2.6c0.4,0,1,1.1,0.9,1.5C60.4,298.7,58.9,297.6,58,298.1L58,298.1z"/>
<path class="st0" d="M59,476c1.8,2.2,0.6,4.7,0.9,7.1C58,480.9,59.4,478.4,59,476z"/>
<path class="st0" d="M107,198c-2.1,0-4.1,0-6.2-0.1C102.9,196.6,105,196.4,107,198z"/>
<path class="st0" d="M79.2,318.1c1,1.4,2.3,2.3,4.1,2C80.8,321.7,78.9,322.2,79.2,318.1z"/>
<path class="st0" d="M139.5,314.9c0.3,0.2,1,0.4,1.2,0.9c0.3,0.8-0.3,1.1-1,1.1s-1.3-0.1-1.5-0.8C138,315.3,138.5,314.9,139.5,314.9
	z"/>
<path class="st0" d="M52.2,190.1c-0.4,0-0.9,0-1.3-0.1c0.6-0.9,1-2,2.3-2.3c0.7-0.1,0.7,0.4,0.8,0.9C54.2,190,53.3,190.2,52.2,190.1
	z"/>
<path class="st0" d="M131.3,410.1c0.6,0.2,1.3,0.3,1.3,1.1c0.1,0.9-0.8,0.9-1.3,0.9c-0.6,0-1.3-0.2-1.3-1
	C130.1,410.2,130.7,410.1,131.3,410.1z"/>
<path class="st0" d="M64.9,86.2c0.4-0.9,1.2-1.2,2.1-1.2c0.2,0.7,1,1.4,0.2,2.2c-0.8,0.9-1.4,0.1-2.1-0.2
	C64.9,86.7,64.9,86.5,64.9,86.2z"/>
<path class="st0" d="M115.7,85.1c0.7,0,1.4,0,2.2-0.1c-0.4,1.1-0.5,3.1-2,2.8C113.9,87.5,116.1,86,115.7,85.1z"/>
<path class="st0" d="M108,319.1c-1.6,1.4-3.3,1.3-4.9,0.1C104.7,318.9,106.3,318.5,108,319.1z"/>
<path class="st0" d="M53.1,340c1.5,1.4,0.6,3.2,0.9,4.8C52.2,343.5,53.1,341.7,53.1,340z"/>
<path class="st0" d="M118.1,81c-0.8-0.1-1.6-0.2-2.1-1c0.7-0.6,1.5-1.5,2.5-0.8C119.4,79.9,119,80.6,118.1,81z"/>
<path class="st0" d="M57.9,298c0.1,1,0.2,2-1.2,2c-0.5,0-1.5,0.1-1.1-0.9C56,297.9,57,297.9,57.9,298C58,298.1,57.9,298,57.9,298z"
	/>
<path class="st0" d="M127.9,315.2c-1.7,1.1-3.4,1.4-4.9-0.3C124.7,315,126.3,315.1,127.9,315.2z"/>
<path class="st0" d="M130.5,471.4c-1.9-2.5,0-7.8-5.7-6.8c-0.6,0.1-1.1-1.5-0.6-2.1c1-1.6,2.1-3.3,3.6-4.3c1.1-0.8,2.9,0.3,3.3,1.5
	C132,463.4,134.4,467.4,130.5,471.4z"/>
<path class="st0" d="M116.1,433.9c2.4,0,4.7,0.2,5.7,2.9c-1.9,0.5-4.2-0.6-5.9,1.1c-0.9,0.2-1.3-0.3-1.3-1.1
	C114.6,435.6,114.9,434.5,116.1,433.9z"/>
<path class="st0" d="M124,457.7c-2.9-0.3-3.6-1.6-1.9-4.3C123.4,454.7,122.8,456.7,124,457.7z"/>
<path class="st0" d="M133.9,475.6c-0.1,0.2-0.3,1-0.5,1c-1.3,0.3-1.5-0.9-1.9-1.7c-0.3-0.6-0.3-1.4,0.8-1.1
	C133,474,133.8,474.3,133.9,475.6z"/>
<path class="st0" d="M115,437c0.3,0.3,0.6,0.7,0.9,1c-0.5,1.4-1.4,2.3-2.7,2.8c-0.1-0.6-0.1-1.1-0.2-1.7c0.4-0.7,0.7-1.4,1.1-2.1
	C114.3,436.6,114.6,436.6,115,437z"/>
<path class="st0" d="M66.1,451c-2.1-0.1-3.2-0.9-2.1-3.2c2.7-0.6,3.8,1.2,5,3.1C68.2,453,68,453,66.1,451z"/>
<path class="st0" d="M66.1,451c1,0.4,1.9,1.6,2.9-0.1c0.4,0,0.7,0,1.1,0c-0.4,1-0.8,2-1.2,3c-0.6,0.3-1.2,0.5-1.8,0.8
	C66.8,453.6,66.4,452.3,66.1,451z"/>
<path class="st0" d="M69.1,329c1.2,2.3,2.3,4.6-1.2,5.9C68.6,333,69.2,331.1,69.1,329z"/>
<path class="st0" d="M86.3,213.4c1.1,0.9,1.7,2.2,1.7,3.6C86.4,216.3,85.7,215.2,86.3,213.4z"/>
<path class="st0" d="M57,443.9c-0.3,1.7-0.7,3.4-1,5.1c-4-0.7-1.9-5.6-4.8-7C53.4,441.9,55.4,442.2,57,443.9z"/>
<path class="st0" d="M115,437c-0.3,0-0.6,0-1,0c-1-1.5-1.1-3.2-1-5c0.6-0.4,1.3-0.7,1.9-1.1c1,0.7,2,1.3,3,2c-0.7,0.2-1.5,0.2-1.8,1
	C115.7,434.9,115.3,436,115,437z"/>
<path class="st0" d="M83,455.2c2.2,1.3,1.7,3,0.8,4.8c-0.3-0.3-0.6-0.7-0.8-1C83,457.7,83,456.4,83,455.2z"/>
<path class="st0" d="M75,459c0.4-1,0.8-2,1.1-3c1.1,1,1.2,2.2,0.4,3.4C76.1,460,75.4,459.6,75,459z"/>
<path class="st0" d="M61,448c1.1,2.3-0.2,3.1-2.5,3.8C58.6,449.8,60,449,61,448L61,448z"/>
<path class="st0" d="M69.5,305.9c-1.2-0.1-1.7-0.8-1.3-1.9c0.2-0.7,0.7-1.2,1.3-0.6c0.6,0.6,2,0.6,1.6,1.9
	C70.8,306,70.1,306,69.5,305.9z"/>
<path class="st0" d="M45.1,286.1c-0.4,1.4-1,1.9-1.9,1.4c-0.5-0.3-0.8-0.9-0.2-1.6s0.9-2.3,1.9-1.8
	C45.5,284.5,45.3,285.4,45.1,286.1z"/>
<path class="st0" d="M50.7,179c0.4,0.6,1.5,0.7,1.2,1.7c-0.2,0.5-0.2,1.4-1.1,1.1c-0.8-0.3-1.3-1.1-1.4-1.9
	C49.4,179.7,50.3,179.3,50.7,179z"/>
<path class="st0" d="M47.9,178.2c0.5,0.8,0.7,1.4-0.1,1.8c-1.2,0.6-2.2,0.2-3-0.8c-0.7-0.8-0.7-1.8,0.1-2.3
	C46.4,176,46.8,178.2,47.9,178.2z"/>
<path class="st0" d="M140.3,176.8c-0.4-0.5-1.4-0.6-1.2-1.5c0.1-0.4,0.1-1.3,0.9-1.1c0.7,0.2,1.2,0.9,1.4,1.6
	C141.5,176.1,140.7,176.5,140.3,176.8z"/>
<path class="st0" d="M145,175.7c-0.5-2,0.5-3.1,2.5-3.3c0.3,0,1.3,0.1,1.1,0.4C147.8,174.1,147.5,176.3,145,175.7z"/>
<path class="st0" d="M146.3,177.8c-0.4,0.4-0.4,1-1.4,1.1c-0.4,0-1.3,0.3-1.2-0.3c0.1-0.5,0.8-0.9,1.4-1.2
	C145.5,177.3,146,177.6,146.3,177.8z"/>
<path class="st0" d="M133.6,224.9c0.5-0.5,0.5-1.2,1.6-1.4c0.5-0.1,1.6-0.5,1.5,0.1s-0.9,1.2-1.7,1.6
	C134.7,225.3,134.1,225,133.6,224.9z"/>
<path class="st0" d="M13.4,383.5c0.8,1.1,0.9,2-0.1,2.4c-0.5,0.2-1.2,0.1-1.4-0.8s-1.3-2.2-0.2-2.6
	C12.4,382.2,12.9,382.9,13.4,383.5z"/>
<path class="st0" d="M16.2,387.8c1.7,0.1,3,1.2,4.3,2c-1.5,1.6-5.4,1.4-5.9-0.5C14.4,388.4,15,387.6,16.2,387.8z"/>
<path class="st0" d="M9,382.9c0.1,0.7-0.3,1.3-0.6,2c-0.8-0.6-0.9-2.2-0.2-2.6C8.6,382.2,9,382.4,9,382.9z"/>
</svg>
